Varta-Light.ufo
<glyph name="exclam" format="1">
  <advance width="567"/>
  <unicode hex="0021"/>
  <outline>
	<contour>
	  <point x="235" y="390" type="line"/>
	  <point x="331" y="390" type="line"/>
	  <point x="350" y="1199" type="line"/>
	  <point x="353" y="1372" type="line"/>
	  <point x="214" y="1372" type="line"/>
	  <point x="217" y="1199" type="line"/>
	</contour>
	<contour>
	  <point x="176" y="88" type="curve" smooth="yes"/>
	  <point x="176" y="21"/>
	  <point x="226" y="-25"/>
	  <point x="284" y="-25" type="curve" smooth="yes"/>
	  <point x="341" y="-25"/>
	  <point x="391" y="21"/>
	  <point x="391" y="88" type="curve" smooth="yes"/>
	  <point x="391" y="158"/>
	  <point x="341" y="204"/>
	  <point x="284" y="204" type="curve" smooth="yes"/>
	  <point x="226" y="204"/>
	  <point x="176" y="158"/>
	</contour>
  </outline>
</glyph>
<glyph name="quotedbl" format="1">
  <advance width="817"/>
  <unicode hex="0022"/>
  <outline>
	<contour>
	  <point x="197" y="910" type="line"/>
	  <point x="285" y="910" type="line"/>
	  <point x="312" y="1247" type="line"/>
	  <point x="315" y="1415" type="line"/>
	  <point x="166" y="1415" type="line"/>
	  <point x="171" y="1247" type="line"/>
	</contour>
	<contour>
	  <point x="529" y="910" type="line"/>
	  <point x="618" y="910" type="line"/>
	  <point x="644" y="1247" type="line"/>
	  <point x="648" y="1415" type="line"/>
	  <point x="499" y="1415" type="line"/>
	  <point x="502" y="1247" type="line"/>
	</contour>
  </outline>
</glyph>
<glyph name="quotesingle" format="1">
  <advance width="485"/>
  <unicode hex="0027"/>
  <outline>
	<contour>
	  <point x="197" y="910" type="line"/>
	  <point x="285" y="910" type="line"/>
	  <point x="312" y="1247" type="line"/>
	  <point x="315" y="1415" type="line"/>
	  <point x="166" y="1415" type="line"/>
	  <point x="171" y="1247" type="line"/>
	</contour>
  </outline>
</glyph>
<glyph name="parenleft" format="1">
  <advance width="600"/>
  <unicode hex="0028"/>
  <outline>
	<contour>
	  <point x="443" y="-359" type="curve"/>
	  <point x="528" y="-317" type="line"/>
	  <point x="368" y="-58"/>
	  <point x="290" y="242"/>
	  <point x="290" y="567" type="curve" smooth="yes"/>
	  <point x="290" y="894"/>
	  <point x="368" y="1197"/>
	  <point x="528" y="1456" type="curve"/>
	  <point x="443" y="1498" type="line"/>
	  <point x="274" y="1225"/>
	  <point x="173" y="939"/>
	  <point x="173" y="567" type="curve" smooth="yes"/>
	  <point x="173" y="196"/>
	  <point x="274" y="-86"/>
	</contour>
  </outline>
</glyph>
<glyph name="parenright" format="1">
  <advance width="600"/>
  <unicode hex="0029"/>
  <outline>
	<contour>
	  <point x="73" y="-317" type="curve"/>
	  <point x="157" y="-359" type="line"/>
	  <point x="326" y="-86"/>
	  <point x="428" y="209"/>
	  <point x="428" y="569" type="curve" smooth="yes"/>
	  <point x="428" y="930"/>
	  <point x="326" y="1225"/>
	  <point x="157" y="1498" type="curve"/>
	  <point x="73" y="1456" type="line"/>
	  <point x="232" y="1197"/>
	  <point x="312" y="886"/>
	  <point x="312" y="569" type="curve" smooth="yes"/>
	  <point x="312" y="253"/>
	  <point x="232" y="-58"/>
	</contour>
  </outline>
</glyph>
<glyph name="period" format="1">
  <advance width="485"/>
  <unicode hex="002E"/>
  <outline>
	<contour>
	  <point x="135" y="88" type="curve" smooth="yes"/>
	  <point x="135" y="21"/>
	  <point x="185" y="-25"/>
	  <point x="243" y="-25" type="curve" smooth="yes"/>
	  <point x="301" y="-25"/>
	  <point x="350" y="21"/>
	  <point x="350" y="88" type="curve" smooth="yes"/>
	  <point x="350" y="158"/>
	  <point x="301" y="204"/>
	  <point x="243" y="204" type="curve" smooth="yes"/>
	  <point x="185" y="204"/>
	  <point x="135" y="158"/>
	</contour>
  </outline>
</glyph>
<glyph name="slash" format="1">
  <advance width="723"/>
  <unicode hex="002F"/>
  <outline>
	<contour>
	  <point x="19" y="-328" type="line"/>
	  <point x="126" y="-328" type="line"/>
	  <point x="703" y="1454" type="line"/>
	  <point x="598" y="1454" type="line"/>
	</contour>
  </outline>
</glyph>
<glyph name="colon" format="1">
  <advance width="485"/>
  <unicode hex="003A"/>
  <outline>
	<contour>
	  <point x="135" y="845" type="curve" smooth="yes"/>
	  <point x="135" y="777"/>
	  <point x="185" y="733"/>
	  <point x="243" y="733" type="curve" smooth="yes"/>
	  <point x="301" y="733"/>
	  <point x="350" y="777"/>
	  <point x="350" y="845" type="curve" smooth="yes"/>
	  <point x="350" y="915"/>
	  <point x="301" y="960"/>
	  <point x="243" y="960" type="curve" smooth="yes"/>
	  <point x="185" y="960"/>
	  <point x="135" y="915"/>
	</contour>
	<contour>
	  <point x="135" y="88" type="curve" smooth="yes"/>
	  <point x="135" y="21"/>
	  <point x="185" y="-25"/>
	  <point x="243" y="-25" type="curve" smooth="yes"/>
	  <point x="301" y="-25"/>
	  <point x="350" y="21"/>
	  <point x="350" y="88" type="curve" smooth="yes"/>
	  <point x="350" y="158"/>
	  <point x="301" y="204"/>
	  <point x="243" y="204" type="curve" smooth="yes"/>
	  <point x="185" y="204"/>
	  <point x="135" y="158"/>
	</contour>
  </outline>
</glyph>
<glyph name="semicolon" format="1">
  <advance width="485"/>
  <unicode hex="003B"/>
  <outline>
	<contour>
	  <point x="243" y="733" type="curve" smooth="yes"/>
	  <point x="301" y="733"/>
	  <point x="350" y="777"/>
	  <point x="350" y="845" type="curve" smooth="yes"/>
	  <point x="350" y="915"/>
	  <point x="301" y="960"/>
	  <point x="243" y="960" type="curve" smooth="yes"/>
	  <point x="185" y="960"/>
	  <point x="135" y="915"/>
	  <point x="135" y="845" type="curve" smooth="yes"/>
	  <point x="135" y="777"/>
	  <point x="185" y="733"/>
	</contour>
	<contour>
	  <point x="133" y="-335" type="line"/>
	  <point x="281" y="-268"/>
	  <point x="378" y="-138"/>
	  <point x="378" y="27" type="curve" smooth="yes"/>
	  <point x="378" y="137"/>
	  <point x="329" y="204"/>
	  <point x="251" y="204" type="curve" smooth="yes"/>
	  <point x="193" y="204"/>
	  <point x="141" y="165"/>
	  <point x="141" y="99" type="curve" smooth="yes"/>
	  <point x="141" y="31"/>
	  <point x="190" y="-5"/>
	  <point x="248" y="-5" type="curve" smooth="yes"/>
	  <point x="255" y="-5"/>
	  <point x="263" y="-5"/>
	  <point x="271" y="-3" type="curve"/>
	  <point x="270" y="-115"/>
	  <point x="202" y="-202"/>
	  <point x="97" y="-252" type="curve"/>
	</contour>
  </outline>
</glyph>
<glyph name="greater" format="1">
  <advance width="1003"/>
  <unicode hex="003E"/>
  <outline>
	<contour>
	  <point x="933" y="739" type="line"/>
	  <point x="70" y="1079" type="line"/>
	  <point x="70" y="957" type="line"/>
	  <point x="520" y="787" type="line"/>
	  <point x="793" y="684" type="line"/>
	  <point x="793" y="676" type="line"/>
	  <point x="520" y="572" type="line"/>
	  <point x="70" y="403" type="line"/>
	  <point x="70" y="281" type="line"/>
	  <point x="933" y="621" type="line"/>
	</contour>
  </outline>
</glyph>
<glyph name="D" format="1">
  <advance width="1242"/>
  <unicode hex="0044"/>
  <outline>
	<contour>
	  <point x="184" y="0" type="line"/>
	  <point x="518" y="0" type="line"/>
	  <point x="928" y="0"/>
	  <point x="1136" y="252"/>
	  <point x="1136" y="679" type="curve" smooth="yes"/>
	  <point x="1136" y="1104"/>
	  <point x="934" y="1346"/>
	  <point x="519" y="1346" type="curve" smooth="yes"/>
	  <point x="184" y="1346" type="line"/>
	</contour>
	<contour>
	  <point x="324" y="115" type="line"/>
	  <point x="324" y="1231" type="line"/>
	  <point x="508" y="1231" type="line"/>
	  <point x="843" y="1231"/>
	  <point x="992" y="1028"/>
	  <point x="992" y="679" type="curve" smooth="yes"/>
	  <point x="992" y="330"/>
	  <point x="838" y="115"/>
	  <point x="502" y="115" type="curve" smooth="yes"/>
	</contour>
	<contour>
	  <point x="613" y="-45" type="move" name="mark0"/>
	</contour>
  </outline>
</glyph>
<glyph name="E" format="1">
  <advance width="1056"/>
  <unicode hex="0045"/>
  <outline>
	<contour>
	  <point x="184" y="0" type="line"/>
	  <point x="964" y="0" type="line"/>
	  <point x="964" y="119" type="line"/>
	  <point x="324" y="119" type="line"/>
	  <point x="324" y="651" type="line"/>
	  <point x="845" y="651" type="line"/>
	  <point x="845" y="770" type="line"/>
	  <point x="324" y="770" type="line"/>
	  <point x="324" y="1228" type="line"/>
	  <point x="943" y="1228" type="line"/>
	  <point x="943" y="1346" type="line"/>
	  <point x="184" y="1346" type="line"/>
	</contour>
	<contour>
	  <point x="787" y="0" type="move" name="mark0"/>
	</contour>
  </outline>
</glyph>
<glyph name="F" format="1">
  <advance width="985"/>
  <unicode hex="0046"/>
  <outline>
	<contour>
	  <point x="184" y="0" type="line"/>
	  <point x="324" y="0" type="line"/>
	  <point x="324" y="621" type="line"/>
	  <point x="848" y="621" type="line"/>
	  <point x="848" y="739" type="line"/>
	  <point x="324" y="739" type="line"/>
	  <point x="324" y="1228" type="line"/>
	  <point x="943" y="1228" type="line"/>
	  <point x="943" y="1346" type="line"/>
	  <point x="184" y="1346" type="line"/>
	</contour>
	<contour>
	  <point x="260" y="-45" type="move" name="mark0"/>
	</contour>
  </outline>
</glyph>
<glyph name="G" format="1">
  <advance width="1241"/>
  <unicode hex="0047"/>
  <outline>
	<contour>
	  <point x="102" y="673" type="curve" smooth="yes"/>
	  <point x="102" y="227"/>
	  <point x="346" y="-25"/>
	  <point x="696" y="-25" type="curve" smooth="yes"/>
	  <point x="875" y="-25"/>
	  <point x="1020" y="43"/>
	  <point x="1106" y="130" type="curve"/>
	  <point x="1106" y="683" type="line"/>
	  <point x="683" y="683" type="line"/>
	  <point x="683" y="567" type="line"/>
	  <point x="978" y="567" type="line"/>
	  <point x="978" y="188" type="line"/>
	  <point x="919" y="132"/>
	  <point x="817" y="99"/>
	  <point x="710" y="99" type="curve" smooth="yes"/>
	  <point x="415" y="99"/>
	  <point x="247" y="315"/>
	  <point x="247" y="675" type="curve" smooth="yes"/>
	  <point x="247" y="1041"/>
	  <point x="427" y="1247"/>
	  <point x="714" y="1247" type="curve" smooth="yes"/>
	  <point x="854" y="1247"/>
	  <point x="942" y="1196"/>
	  <point x="1010" y="1123" type="curve"/>
	  <point x="1091" y="1212" type="line"/>
	  <point x="1014" y="1292"/>
	  <point x="896" y="1370"/>
	  <point x="713" y="1370" type="curve" smooth="yes"/>
	  <point x="354" y="1370"/>
	  <point x="102" y="1124"/>
	</contour>
	<contour>
	  <point x="699" y="-45" type="move" name="mark0"/>
	</contour>
  </outline>
</glyph>
<glyph name="H" format="1">
  <advance width="1312"/>
  <unicode hex="0048"/>
  <outline>
	<contour>
	  <point x="184" y="0" type="line"/>
	  <point x="324" y="0" type="line"/>
	  <point x="324" y="651" type="line"/>
	  <point x="989" y="651" type="line"/>
	  <point x="989" y="0" type="line"/>
	  <point x="1127" y="0" type="line"/>
	  <point x="1127" y="1346" type="line"/>
	  <point x="989" y="1346" type="line"/>
	  <point x="989" y="771" type="line"/>
	  <point x="324" y="771" type="line"/>
	  <point x="324" y="1346" type="line"/>
	  <point x="184" y="1346" type="line"/>
	</contour>
	<contour>
	  <point x="653" y="-45" type="move" name="mark0"/>
	</contour>
  </outline>
</glyph>
<glyph name="I" format="1">
  <advance width="507"/>
  <unicode hex="0049"/>
  <outline>
	<contour>
	  <point x="184" y="0" type="line"/>
	  <point x="324" y="0" type="line"/>
	  <point x="324" y="1346" type="line"/>
	  <point x="184" y="1346" type="line"/>
	</contour>
	<contour>
	  <point x="204" y="0" type="move" name="mark0"/>
	</contour>
  </outline>
</glyph>
<glyph name="J" format="1">
  <advance width="955"/>
  <unicode hex="004A"/>
  <outline>
	<contour>
	  <point x="66" y="183" type="line"/>
	  <point x="140" y="48"/>
	  <point x="260" y="-25"/>
	  <point x="422" y="-25" type="curve" smooth="yes"/>
	  <point x="678" y="-25"/>
	  <point x="777" y="152"/>
	  <point x="777" y="378" type="curve" smooth="yes"/>
	  <point x="777" y="1346" type="line"/>
	  <point x="638" y="1346" type="line"/>
	  <point x="638" y="392" type="line"/>
	  <point x="638" y="181"/>
	  <point x="565" y="99"/>
	  <point x="413" y="99" type="curve" smooth="yes"/>
	  <point x="310" y="99"/>
	  <point x="231" y="144"/>
	  <point x="166" y="253" type="curve"/>
	</contour>
	<contour>
	  <point x="505" y="-45" type="move" name="mark0"/>
	</contour>
  </outline>
</glyph>
<glyph name="K" format="1">
  <advance width="1156"/>
  <unicode hex="004B"/>
  <outline>
	<contour>
	  <point x="184" y="0" type="line"/>
	  <point x="324" y="0" type="line"/>
	  <point x="324" y="442" type="line"/>
	  <point x="572" y="731" type="line"/>
	  <point x="991" y="0" type="line"/>
	  <point x="1148" y="0" type="line"/>
	  <point x="661" y="839" type="line"/>
	  <point x="1086" y="1346" type="line"/>
	  <point x="926" y="1346" type="line"/>
	  <point x="328" y="641" type="line"/>
	  <point x="324" y="641" type="line"/>
	  <point x="324" y="1346" type="line"/>
	  <point x="184" y="1346" type="line"/>
	</contour>
	<contour>
	  <point x="662" y="-45" type="move" name="mark0"/>
	</contour>
  </outline>
</glyph>
<glyph name="L" format="1">
  <advance width="967"/>
  <unicode hex="004C"/>
  <outline>
	<contour>
	  <point x="184" y="0" type="line"/>
	  <point x="924" y="0" type="line"/>
	  <point x="924" y="119" type="line"/>
	  <point x="324" y="119" type="line"/>
	  <point x="324" y="1346" type="line"/>
	  <point x="184" y="1346" type="line"/>
	</contour>
	<contour>
	  <point x="586" y="-45" type="move" name="mark0"/>
	</contour>
  </outline>
</glyph>
<glyph name="T" format="1">
  <advance width="1076"/>
  <unicode hex="0054"/>
  <outline>
	<contour>
	  <point x="469" y="0" type="line"/>
	  <point x="608" y="0" type="line"/>
	  <point x="608" y="1228" type="line"/>
	  <point x="1024" y="1228" type="line"/>
	  <point x="1024" y="1346" type="line"/>
	  <point x="52" y="1346" type="line"/>
	  <point x="52" y="1228" type="line"/>
	  <point x="469" y="1228" type="line"/>
	</contour>
	<contour>
	  <point x="539" y="-45" type="move" name="mark0"/>
	</contour>
  </outline>
</glyph>
<glyph name="V" format="1">
  <advance width="1022"/>
  <unicode hex="0056"/>
  <outline>
	<contour>
	  <point x="433" y="0" type="line"/>
	  <point x="593" y="0" type="line"/>
	  <point x="1024" y="1346" type="line"/>
	  <point x="883" y="1346" type="line"/>
	  <point x="653" y="595" type="line"/>
	  <point x="606" y="434"/>
	  <point x="571" y="307"/>
	  <point x="519" y="147" type="curve"/>
	  <point x="511" y="147" type="line"/>
	  <point x="459" y="307"/>
	  <point x="425" y="434"/>
	  <point x="376" y="595" type="curve" smooth="yes"/>
	  <point x="146" y="1346" type="line"/>
	  <point x="-2" y="1346" type="line"/>
	</contour>
	<contour>
	  <point x="513" y="-45" type="move" name="mark0"/>
	</contour>
  </outline>
</glyph>
<glyph name="Z" format="1">
  <advance width="1091"/>
  <unicode hex="005A"/>
  <outline>
	<contour>
	  <point x="89" y="0" type="line"/>
	  <point x="1006" y="0" type="line"/>
	  <point x="1006" y="119" type="line"/>
	  <point x="263" y="119" type="line"/>
	  <point x="999" y="1264" type="line"/>
	  <point x="999" y="1346" type="line"/>
	  <point x="156" y="1346" type="line"/>
	  <point x="156" y="1228" type="line"/>
	  <point x="827" y="1228" type="line"/>
	  <point x="89" y="83" type="line"/>
	</contour>
	<contour>
	  <point x="570" y="-45" type="move" name="mark0"/>
	</contour>
  </outline>
</glyph>
<glyph name="bracketleft" format="1">
  <advance width="600"/>
  <unicode hex="005B"/>
  <outline>
	<contour>
	  <point x="196" y="-311" type="line"/>
	  <point x="546" y="-311" type="line"/>
	  <point x="546" y="-230" type="line"/>
	  <point x="300" y="-230" type="line"/>
	  <point x="300" y="1366" type="line"/>
	  <point x="546" y="1366" type="line"/>
	  <point x="546" y="1450" type="line"/>
	  <point x="196" y="1450" type="line"/>
	</contour>
  </outline>
</glyph>
<glyph name="backslash" format="1">
  <advance width="723"/>
  <unicode hex="005C"/>
  <outline>
	<contour>
	  <point x="598" y="-328" type="line"/>
	  <point x="704" y="-328" type="line"/>
	  <point x="125" y="1454" type="line"/>
	  <point x="21" y="1454" type="line"/>
	</contour>
  </outline>
</glyph>
<glyph name="bracketright" format="1">
  <advance width="600"/>
  <unicode hex="005D"/>
  <outline>
	<contour>
	  <point x="55" y="-230" type="line"/>
	  <point x="55" y="-311" type="line"/>
	  <point x="405" y="-311" type="line"/>
	  <point x="405" y="1450" type="line"/>
	  <point x="55" y="1450" type="line"/>
	  <point x="55" y="1366" type="line"/>
	  <point x="300" y="1366" type="line"/>
	  <point x="300" y="-230" type="line"/>
	</contour>
  </outline>
</glyph>
<glyph name="asciicircum" format="1">
  <advance width="1003"/>
  <unicode hex="005E"/>
  <outline>
	<contour>
	  <point x="128" y="587" type="line"/>
	  <point x="251" y="587" type="line"/>
	  <point x="394" y="970" type="line"/>
	  <point x="497" y="1242" type="line"/>
	  <point x="506" y="1242" type="line"/>
	  <point x="608" y="970" type="line"/>
	  <point x="752" y="587" type="line"/>
	  <point x="875" y="587" type="line"/>
	  <point x="565" y="1372" type="line"/>
	  <point x="437" y="1372" type="line"/>
	</contour>
  </outline>
</glyph>
<glyph name="grave" format="1">
  <advance width="1104"/>
  <unicode hex="0060"/>
  <outline>
	<contour>
	  <point x="569" y="1173" type="line"/>
	  <point x="677" y="1173" type="line"/>
	  <point x="491" y="1457" type="line"/>
	  <point x="344" y="1457" type="line"/>
	</contour>
  </outline>
</glyph>
<glyph name="a" format="1">
  <advance width="1038"/>
  <unicode hex="0061"/>
  <outline>
	<contour>
	  <point x="125" y="254" type="curve" smooth="yes"/>
	  <point x="125" y="73"/>
	  <point x="252" y="-25"/>
	  <point x="421" y="-25" type="curve" smooth="yes"/>
	  <point x="558" y="-25"/>
	  <point x="654" y="43"/>
	  <point x="752" y="122" type="curve"/>
	  <point x="756" y="122" type="line"/>
	  <point x="769" y="0" type="line"/>
	  <point x="882" y="0" type="line"/>
	  <point x="882" y="618" type="line"/>
	  <point x="882" y="859"/>
	  <point x="788" y="1015"/>
	  <point x="549" y="1015" type="curve" smooth="yes"/>
	  <point x="389" y="1015"/>
	  <point x="247" y="952"/>
	  <point x="164" y="898" type="curve"/>
	  <point x="221" y="801" type="line"/>
	  <point x="294" y="853"/>
	  <point x="405" y="900"/>
	  <point x="529" y="900" type="curve" smooth="yes"/>
	  <point x="703" y="900"/>
	  <point x="748" y="775"/>
	  <point x="746" y="625" type="curve"/>
	  <point x="314" y="593"/>
	  <point x="125" y="471"/>
	</contour>
	<contour>
	  <point x="261" y="262" type="curve" smooth="yes"/>
	  <point x="261" y="401"/>
	  <point x="382" y="504"/>
	  <point x="746" y="531" type="curve"/>
	  <point x="746" y="231" type="line"/>
	  <point x="640" y="138"/>
	  <point x="558" y="87"/>
	  <point x="455" y="87" type="curve" smooth="yes"/>
	  <point x="344" y="87"/>
	  <point x="261" y="138"/>
	</contour>
	<contour>
	  <point x="842" y="0" type="move" name="mark0"/>
	</contour>
  </outline>
</glyph>
<glyph name="d" format="1">
  <advance width="1128"/>
  <unicode hex="0064"/>
  <outline>
	<contour>
	  <point x="100" y="494" type="curve" smooth="yes"/>
	  <point x="100" y="154"/>
	  <point x="263" y="-25"/>
	  <point x="510" y="-25" type="curve" smooth="yes"/>
	  <point x="633" y="-25"/>
	  <point x="740" y="43"/>
	  <point x="819" y="121" type="curve"/>
	  <point x="825" y="121" type="line"/>
	  <point x="837" y="0" type="line"/>
	  <point x="951" y="0" type="line"/>
	  <point x="951" y="1464" type="line"/>
	  <point x="814" y="1464" type="line"/>
	  <point x="814" y="1072" type="line"/>
	  <point x="821" y="898" type="line"/>
	  <point x="728" y="971"/>
	  <point x="651" y="1015"/>
	  <point x="534" y="1015" type="curve" smooth="yes"/>
	  <point x="298" y="1015"/>
	  <point x="100" y="824"/>
	</contour>
	<contour>
	  <point x="241" y="495" type="curve" smooth="yes"/>
	  <point x="241" y="737"/>
	  <point x="373" y="899"/>
	  <point x="554" y="899" type="curve" smooth="yes"/>
	  <point x="641" y="899"/>
	  <point x="722" y="868"/>
	  <point x="814" y="785" type="curve"/>
	  <point x="814" y="239" type="line"/>
	  <point x="723" y="142"/>
	  <point x="636" y="92"/>
	  <point x="537" y="92" type="curve" smooth="yes"/>
	  <point x="343" y="92"/>
	  <point x="241" y="243"/>
	</contour>
	<contour>
	  <point x="610" y="-45" type="move" name="mark0"/>
	</contour>
  </outline>
</glyph>
<glyph name="h" format="1">
  <advance width="1100"/>
  <unicode hex="0068"/>
  <outline>
	<contour>
	  <point x="176" y="0" type="line"/>
	  <point x="313" y="0" type="line"/>
	  <point x="313" y="729" type="line"/>
	  <point x="421" y="839"/>
	  <point x="497" y="895"/>
	  <point x="605" y="895" type="curve" smooth="yes"/>
	  <point x="751" y="895"/>
	  <point x="808" y="810"/>
	  <point x="808" y="614" type="curve" smooth="yes"/>
	  <point x="808" y="0" type="line"/>
	  <point x="944" y="0" type="line"/>
	  <point x="944" y="633" type="line"/>
	  <point x="944" y="887"/>
	  <point x="854" y="1015"/>
	  <point x="644" y="1015" type="curve" smooth="yes"/>
	  <point x="507" y="1015"/>
	  <point x="406" y="940"/>
	  <point x="309" y="845" type="curve"/>
	  <point x="313" y="1055" type="line"/>
	  <point x="313" y="1464" type="line"/>
	  <point x="176" y="1464" type="line"/>
	</contour>
	<contour>
	  <point x="583" y="-45" type="move" name="mark0"/>
	</contour>
  </outline>
</glyph>
<glyph name="i" format="1">
  <advance width="490"/>
  <unicode hex="0069"/>
  <outline>
	<contour>
	  <point x="247" y="1209" type="curve" smooth="yes"/>
	  <point x="303" y="1209"/>
	  <point x="349" y="1248"/>
	  <point x="349" y="1305" type="curve" smooth="yes"/>
	  <point x="349" y="1365"/>
	  <point x="303" y="1403"/>
	  <point x="247" y="1403" type="curve" smooth="yes"/>
	  <point x="189" y="1403"/>
	  <point x="144" y="1365"/>
	  <point x="144" y="1305" type="curve" smooth="yes"/>
	  <point x="144" y="1248"/>
	  <point x="189" y="1209"/>
	</contour>
	<contour>
	  <point x="176" y="0" type="line"/>
	  <point x="313" y="0" type="line"/>
	  <point x="313" y="990" type="line"/>
	  <point x="176" y="990" type="line"/>
	</contour>
	<contour>
	  <point x="298" y="0" type="move" name="mark0"/>
	</contour>
  </outline>
</glyph>
<glyph name="k" format="1">
  <advance width="988"/>
  <unicode hex="006B"/>
  <outline>
	<contour>
	  <point x="176" y="0" type="line"/>
	  <point x="311" y="0" type="line"/>
	  <point x="311" y="264" type="line"/>
	  <point x="512" y="498" type="line"/>
	  <point x="817" y="0" type="line"/>
	  <point x="967" y="0" type="line"/>
	  <point x="590" y="595" type="line"/>
	  <point x="918" y="990" type="line"/>
	  <point x="766" y="990" type="line"/>
	  <point x="317" y="437" type="line"/>
	  <point x="311" y="437" type="line"/>
	  <point x="311" y="1464" type="line"/>
	  <point x="176" y="1464" type="line"/>
	</contour>
	<contour>
	  <point x="543" y="-45" type="move" name="mark0"/>
	</contour>
  </outline>
</glyph>
<glyph name="n" format="1">
  <advance width="1108"/>
  <unicode hex="006E"/>
  <outline>
	<contour>
	  <point x="176" y="0" type="line"/>
	  <point x="313" y="0" type="line"/>
	  <point x="313" y="729" type="line"/>
	  <point x="421" y="839"/>
	  <point x="497" y="895"/>
	  <point x="605" y="895" type="curve" smooth="yes"/>
	  <point x="754" y="895"/>
	  <point x="808" y="811"/>
	  <point x="808" y="615" type="curve" smooth="yes"/>
	  <point x="808" y="0" type="line"/>
	  <point x="944" y="0" type="line"/>
	  <point x="944" y="634" type="line"/>
	  <point x="944" y="888"/>
	  <point x="856" y="1015"/>
	  <point x="644" y="1015" type="curve" smooth="yes"/>
	  <point x="507" y="1015"/>
	  <point x="405" y="940"/>
	  <point x="309" y="843" type="curve"/>
	  <point x="302" y="843" type="line"/>
	  <point x="290" y="990" type="line"/>
	  <point x="176" y="990" type="line"/>
	</contour>
	<contour>
	  <point x="563" y="-45" type="move" name="mark0"/>
	</contour>
  </outline>
</glyph>
<glyph name="o" format="1">
  <advance width="1104"/>
  <unicode hex="006F"/>
  <outline>
	<contour>
	  <point x="100" y="494" type="curve" smooth="yes"/>
	  <point x="100" y="162"/>
	  <point x="306" y="-25"/>
	  <point x="551" y="-25" type="curve" smooth="yes"/>
	  <point x="797" y="-25"/>
	  <point x="1005" y="162"/>
	  <point x="1005" y="494" type="curve" smooth="yes"/>
	  <point x="1005" y="831"/>
	  <point x="797" y="1015"/>
	  <point x="551" y="1015" type="curve" smooth="yes"/>
	  <point x="306" y="1015"/>
	  <point x="100" y="831"/>
	</contour>
	<contour>
	  <point x="241" y="494" type="curve" smooth="yes"/>
	  <point x="241" y="739"/>
	  <point x="366" y="900"/>
	  <point x="551" y="900" type="curve" smooth="yes"/>
	  <point x="737" y="900"/>
	  <point x="864" y="739"/>
	  <point x="864" y="494" type="curve" smooth="yes"/>
	  <point x="864" y="251"/>
	  <point x="737" y="90"/>
	  <point x="551" y="90" type="curve" smooth="yes"/>
	  <point x="366" y="90"/>
	  <point x="241" y="251"/>
	</contour>
	<contour>
	  <point x="650" y="0" type="move" name="mark0"/>
	</contour>
  </outline>
</glyph>
<glyph name="q" format="1">
  <advance width="1115"/>
  <unicode hex="0071"/>
  <outline>
	<contour>
	  <point x="100" y="492" type="curve" smooth="yes"/>
	  <point x="100" y="154"/>
	  <point x="257" y="-25"/>
	  <point x="511" y="-25" type="curve" smooth="yes"/>
	  <point x="635" y="-25"/>
	  <point x="737" y="40"/>
	  <point x="821" y="117" type="curve"/>
	  <point x="814" y="-66" type="line"/>
	  <point x="814" y="-430" type="line"/>
	  <point x="951" y="-430" type="line"/>
	  <point x="951" y="990" type="line"/>
	  <point x="841" y="990" type="line"/>
	  <point x="826" y="898" type="line"/>
	  <point x="822" y="898" type="line"/>
	  <point x="731" y="973"/>
	  <point x="654" y="1015"/>
	  <point x="535" y="1015" type="curve" smooth="yes"/>
	  <point x="301" y="1015"/>
	  <point x="100" y="819"/>
	</contour>
	<contour>
	  <point x="243" y="493" type="curve" smooth="yes"/>
	  <point x="243" y="733"/>
	  <point x="377" y="899"/>
	  <point x="555" y="899" type="curve" smooth="yes"/>
	  <point x="645" y="899"/>
	  <point x="722" y="868"/>
	  <point x="814" y="785" type="curve"/>
	  <point x="814" y="239" type="line"/>
	  <point x="723" y="142"/>
	  <point x="640" y="92"/>
	  <point x="539" y="92" type="curve" smooth="yes"/>
	  <point x="346" y="92"/>
	  <point x="243" y="241"/>
	</contour>
	<contour>
	  <point x="870" y="-446" type="move" name="mark0"/>
	</contour>
  </outline>
</glyph>
<glyph name="u" format="1">
  <advance width="1101"/>
  <unicode hex="0075"/>
  <outline>
	<contour>
	  <point x="162" y="357" type="line"/>
	  <point x="162" y="103"/>
	  <point x="250" y="-25"/>
	  <point x="464" y="-25" type="curve" smooth="yes"/>
	  <point x="606" y="-25"/>
	  <point x="700" y="49"/>
	  <point x="794" y="159" type="curve"/>
	  <point x="800" y="159" type="line"/>
	  <point x="812" y="0" type="line"/>
	  <point x="925" y="0" type="line"/>
	  <point x="925" y="990" type="line"/>
	  <point x="789" y="990" type="line"/>
	  <point x="789" y="276" type="line"/>
	  <point x="686" y="150"/>
	  <point x="615" y="95"/>
	  <point x="501" y="95" type="curve" smooth="yes"/>
	  <point x="353" y="95"/>
	  <point x="299" y="180"/>
	  <point x="299" y="376" type="curve" smooth="yes"/>
	  <point x="299" y="990" type="line"/>
	  <point x="162" y="990" type="line"/>
	</contour>
	<contour>
	  <point x="863" y="0" type="move" name="mark0"/>
	</contour>
  </outline>
</glyph>
<glyph name="v" format="1">
  <advance width="929"/>
  <unicode hex="0076"/>
  <outline>
	<contour>
	  <point x="387" y="0" type="line"/>
	  <point x="547" y="0" type="line"/>
	  <point x="904" y="990" type="line"/>
	  <point x="768" y="990" type="line"/>
	  <point x="567" y="404" type="line"/>
	  <point x="536" y="307"/>
	  <point x="502" y="208"/>
	  <point x="472" y="115" type="curve"/>
	  <point x="464" y="115" type="line"/>
	  <point x="434" y="208"/>
	  <point x="399" y="307"/>
	  <point x="369" y="404" type="curve"/>
	  <point x="168" y="990" type="line"/>
	  <point x="25" y="990" type="line"/>
	</contour>
	<contour>
	  <point x="467" y="-45" type="move" name="mark0"/>
	</contour>
  </outline>
</glyph>
<glyph name="z" format="1">
  <advance width="852"/>
  <unicode hex="007A"/>
  <outline>
	<contour>
	  <point x="60" y="0" type="line"/>
	  <point x="799" y="0" type="line"/>
	  <point x="799" y="114" type="line"/>
	  <point x="234" y="114" type="line"/>
	  <point x="782" y="918" type="line"/>
	  <point x="782" y="990" type="line"/>
	  <point x="120" y="990" type="line"/>
	  <point x="120" y="877" type="line"/>
	  <point x="608" y="877" type="line"/>
	  <point x="60" y="73" type="line"/>
	</contour>
	<contour>
	  <point x="458" y="-45" type="move" name="mark0"/>
	</contour>
  </outline>
</glyph>
<glyph name="bar" format="1">
  <advance width="481"/>
  <unicode hex="007C"/>
  <outline>
	<contour>
	  <point x="191" y="-512" type="line"/>
	  <point x="291" y="-512" type="line"/>
	  <point x="291" y="1536" type="line"/>
	  <point x="191" y="1536" type="line"/>
	</contour>
  </outline>
</glyph>
<glyph name="braceright" format="1">
  <advance width="600"/>
  <unicode hex="007D"/>
  <outline>
	<contour>
	  <point x="55" y="-230" type="line"/>
	  <point x="55" y="-311" type="line"/>
	  <point x="137" y="-311" type="line"/>
	  <point x="295" y="-311"/>
	  <point x="371" y="-252"/>
	  <point x="371" y="-43" type="curve" smooth="yes"/>
	  <point x="371" y="107"/>
	  <point x="354" y="223"/>
	  <point x="354" y="362" type="curve" smooth="yes"/>
	  <point x="354" y="444"/>
	  <point x="390" y="523"/>
	  <point x="530" y="525" type="curve"/>
	  <point x="530" y="614" type="line"/>
	  <point x="390" y="616"/>
	  <point x="354" y="695"/>
	  <point x="354" y="773" type="curve" smooth="yes"/>
	  <point x="354" y="903"/>
	  <point x="371" y="1041"/>
	  <point x="371" y="1182" type="curve" smooth="yes"/>
	  <point x="371" y="1388"/>
	  <point x="295" y="1450"/>
	  <point x="137" y="1450" type="curve" smooth="yes"/>
	  <point x="55" y="1450" type="line"/>
	  <point x="55" y="1366" type="line"/>
	  <point x="112" y="1366" type="line"/>
	  <point x="229" y="1366"/>
	  <point x="259" y="1309"/>
	  <point x="259" y="1172" type="curve" smooth="yes"/>
	  <point x="259" y="1051"/>
	  <point x="248" y="919"/>
	  <point x="248" y="792" type="curve" smooth="yes"/>
	  <point x="248" y="665"/>
	  <point x="278" y="598"/>
	  <point x="362" y="573" type="curve"/>
	  <point x="362" y="565" type="line"/>
	  <point x="278" y="541"/>
	  <point x="248" y="471"/>
	  <point x="248" y="346" type="curve" smooth="yes"/>
	  <point x="248" y="204"/>
	  <point x="259" y="94"/>
	  <point x="259" y="-34" type="curve" smooth="yes"/>
	  <point x="259" y="-171"/>
	  <point x="229" y="-230"/>
	  <point x="112" y="-230" type="curve" smooth="yes"/>
	</contour>
  </outline>
</glyph>
<glyph name="exclamdown" format="1">
  <advance width="567"/>
  <unicode hex="00A1"/>
  <outline>
	<contour>
	  <point x="331" y="601" type="line"/>
	  <point x="235" y="601" type="line"/>
	  <point x="217" y="-209" type="line"/>
	  <point x="214" y="-382" type="line"/>
	  <point x="353" y="-382" type="line"/>
	  <point x="350" y="-209" type="line"/>
	</contour>
	<contour>
	  <point x="391" y="903" type="curve" smooth="yes"/>
	  <point x="391" y="969"/>
	  <point x="341" y="1015"/>
	  <point x="284" y="1015" type="curve" smooth="yes"/>
	  <point x="226" y="1015"/>
	  <point x="176" y="969"/>
	  <point x="176" y="903" type="curve" smooth="yes"/>
	  <point x="176" y="832"/>
	  <point x="226" y="786"/>
	  <point x="284" y="786" type="curve" smooth="yes"/>
	  <point x="341" y="786"/>
	  <point x="391" y="832"/>
	</contour>
  </outline>
</glyph>
<glyph name="brokenbar" format="1">
  <advance width="481"/>
  <unicode hex="00A6"/>
  <outline>
	<contour>
	  <point x="191" y="586" type="line"/>
	  <point x="291" y="586" type="line"/>
	  <point x="291" y="1536" type="line"/>
	  <point x="191" y="1536" type="line"/>
	</contour>
	<contour>
	  <point x="191" y="443" type="line"/>
	  <point x="191" y="-512" type="line"/>
	  <point x="291" y="-512" type="line"/>
	  <point x="291" y="443" type="line"/>
	</contour>
  </outline>
</glyph>
<glyph name="dieresis" format="1">
  <advance width="1104"/>
  <unicode hex="00A8"/>
  <outline>
	<contour>
	  <point x="382" y="1213" type="curve" smooth="yes"/>
	  <point x="433" y="1213"/>
	  <point x="472" y="1251"/>
	  <point x="472" y="1303" type="curve" smooth="yes"/>
	  <point x="472" y="1353"/>
	  <point x="433" y="1392"/>
	  <point x="382" y="1392" type="curve" smooth="yes"/>
	  <point x="331" y="1392"/>
	  <point x="292" y="1353"/>
	  <point x="292" y="1303" type="curve" smooth="yes"/>
	  <point x="292" y="1251"/>
	  <point x="331" y="1213"/>
	</contour>
	<contour>
	  <point x="722" y="1213" type="curve" smooth="yes"/>
	  <point x="775" y="1213"/>
	  <point x="812" y="1251"/>
	  <point x="812" y="1303" type="curve" smooth="yes"/>
	  <point x="812" y="1353"/>
	  <point x="775" y="1392"/>
	  <point x="722" y="1392" type="curve" smooth="yes"/>
	  <point x="671" y="1392"/>
	  <point x="634" y="1353"/>
	  <point x="634" y="1303" type="curve" smooth="yes"/>
	  <point x="634" y="1251"/>
	  <point x="671" y="1213"/>
	</contour>
  </outline>
</glyph>
<glyph name="guillemotleft" format="1">
  <advance width="854"/>
  <unicode hex="00AB"/>
  <outline>
	<contour>
	  <point x="370" y="140" type="line"/>
	  <point x="434" y="190" type="line"/>
	  <point x="189" y="516" type="line"/>
	  <point x="434" y="838" type="line"/>
	  <point x="370" y="892" type="line"/>
	  <point x="90" y="570" type="line"/>
	  <point x="90" y="463" type="line"/>
	</contour>
	<contour>
	  <point x="680" y="140" type="line"/>
	  <point x="743" y="190" type="line"/>
	  <point x="498" y="516" type="line"/>
	  <point x="743" y="838" type="line"/>
	  <point x="680" y="892" type="line"/>
	  <point x="399" y="570" type="line"/>
	  <point x="399" y="463" type="line"/>
	</contour>
  </outline>
</glyph>
<glyph name="logicalnot" format="1">
  <advance width="1003"/>
  <unicode hex="00AC"/>
  <outline>
	<contour>
	  <point x="70" y="622" type="line"/>
	  <point x="819" y="622" type="line"/>
	  <point x="819" y="218" type="line"/>
	  <point x="933" y="218" type="line"/>
	  <point x="933" y="729" type="line"/>
	  <point x="70" y="729" type="line"/>
	</contour>
  </outline>
</glyph>
<glyph name="macron" format="1">
  <advance width="1104"/>
  <unicode hex="00AF"/>
  <outline>
	<contour>
	  <point x="309" y="1235" type="line"/>
	  <point x="796" y="1235" type="line"/>
	  <point x="796" y="1334" type="line"/>
	  <point x="309" y="1334" type="line"/>
	</contour>
  </outline>
</glyph>
<glyph name="acute" format="1">
  <advance width="1104"/>
  <unicode hex="00B4"/>
  <outline>
	<contour>
	  <point x="760" y="1457" type="line"/>
	  <point x="612" y="1457" type="line"/>
	  <point x="427" y="1173" type="line"/>
	  <point x="534" y="1173" type="line"/>
	</contour>
  </outline>
</glyph>
<glyph name="paragraph" format="1">
  <advance width="1109"/>
  <unicode hex="00B6"/>
  <outline>
	<contour>
	  <point x="772" y="-164" type="line"/>
	  <point x="912" y="-164" type="line"/>
	  <point x="912" y="1346" type="line"/>
	  <point x="772" y="1346" type="line"/>
	</contour>
	<contour>
	  <point x="598" y="478" type="curve"/>
	  <point x="645" y="478" type="line"/>
	  <point x="645" y="1346" type="line"/>
	  <point x="572" y="1346" type="line"/>
	  <point x="290" y="1346"/>
	  <point x="85" y="1230"/>
	  <point x="85" y="914" type="curve" smooth="yes"/>
	  <point x="85" y="606"/>
	  <point x="300" y="478"/>
	</contour>
  </outline>
</glyph>
<glyph name="periodcentered" format="1">
  <advance width="485"/>
  <unicode hex="00B7"/>
  <outline>
	<contour>
	  <point x="135" y="658" type="curve" smooth="yes"/>
	  <point x="135" y="591"/>
	  <point x="185" y="545"/>
	  <point x="243" y="545" type="curve" smooth="yes"/>
	  <point x="301" y="545"/>
	  <point x="350" y="591"/>
	  <point x="350" y="658" type="curve" smooth="yes"/>
	  <point x="350" y="728"/>
	  <point x="301" y="774"/>
	  <point x="243" y="774" type="curve" smooth="yes"/>
	  <point x="185" y="774"/>
	  <point x="135" y="728"/>
	</contour>
  </outline>
</glyph>
<glyph name="onequarter" format="1">
  <advance width="1585"/>
  <unicode hex="00BC"/>
  <outline>
	<contour>
	  <point x="418" y="547" type="line"/>
	  <point x="418" y="1346" type="line"/>
	  <point x="327" y="1346" type="line"/>
	  <point x="274" y="1306"/>
	  <point x="222" y="1281"/>
	  <point x="136" y="1265" type="curve"/>
	  <point x="136" y="1192" type="line"/>
	  <point x="309" y="1192" type="line"/>
	  <point x="309" y="547" type="line"/>
	</contour>
	<contour>
	  <point x="1112" y="1370" type="line"/>
	  <point x="366" y="-25" type="line"/>
	  <point x="466" y="-25" type="line"/>
	  <point x="1212" y="1370" type="line"/>
	</contour>
	<contour>
	  <point x="1047" y="304" type="line"/>
	  <point x="1183" y="513" type="line"/>
	  <point x="1291" y="681" type="line"/>
	  <point x="1299" y="681" type="line"/>
	  <point x="1289" y="462" type="line"/>
	  <point x="1289" y="304" type="line"/>
	</contour>
	<contour>
	  <point x="1509" y="304" type="line"/>
	  <point x="1390" y="304" type="line"/>
	  <point x="1390" y="799" type="line"/>
	  <point x="1274" y="799" type="line"/>
	  <point x="928" y="279" type="line"/>
	  <point x="928" y="221" type="line"/>
	  <point x="1289" y="221" type="line"/>
	  <point x="1289" y="0" type="line"/>
	  <point x="1390" y="0" type="line"/>
	  <point x="1390" y="221" type="line"/>
	  <point x="1509" y="221" type="line"/>
	</contour>
  </outline>
</glyph>
<glyph name="onehalf" format="1">
  <advance width="1637"/>
  <unicode hex="00BD"/>
  <outline>
	<contour>
	  <point x="309" y="547" type="line"/>
	  <point x="418" y="547" type="line"/>
	  <point x="418" y="1346" type="line"/>
	  <point x="327" y="1346" type="line"/>
	  <point x="274" y="1306"/>
	  <point x="222" y="1281"/>
	  <point x="136" y="1265" type="curve"/>
	  <point x="136" y="1192" type="line"/>
	  <point x="309" y="1192" type="line"/>
	</contour>
	<contour>
	  <point x="423" y="-25" type="line"/>
	  <point x="1169" y="1370" type="line"/>
	  <point x="1069" y="1370" type="line"/>
	  <point x="323" y="-25" type="line"/>
	</contour>
	<contour>
	  <point x="1000" y="0" type="line"/>
	  <point x="1537" y="0" type="line"/>
	  <point x="1537" y="95" type="line"/>
	  <point x="1177" y="95" type="line"/>
	  <point x="1361" y="281"/>
	  <point x="1494" y="408"/>
	  <point x="1494" y="567" type="curve" smooth="yes"/>
	  <point x="1494" y="735"/>
	  <point x="1389" y="823"/>
	  <point x="1234" y="823" type="curve" smooth="yes"/>
	  <point x="1129" y="823"/>
	  <point x="1034" y="758"/>
	  <point x="977" y="670" type="curve"/>
	  <point x="1044" y="609" type="line"/>
	  <point x="1089" y="676"/>
	  <point x="1151" y="730"/>
	  <point x="1222" y="730" type="curve" smooth="yes"/>
	  <point x="1321" y="730"/>
	  <point x="1385" y="662"/>
	  <point x="1385" y="552" type="curve" smooth="yes"/>
	  <point x="1385" y="426"/>
	  <point x="1257" y="301"/>
	  <point x="1000" y="66" type="curve"/>
	</contour>
  </outline>
</glyph>
<glyph name="threequarters" format="1">
  <advance width="1619"/>
  <unicode hex="00BE"/>
  <outline>
	<contour>
	  <point x="174" y="1181" type="line"/>
	  <point x="223" y="1241"/>
	  <point x="284" y="1282"/>
	  <point x="345" y="1282" type="curve" smooth="yes"/>
	  <point x="440" y="1282"/>
	  <point x="500" y="1227"/>
	  <point x="500" y="1145" type="curve" smooth="yes"/>
	  <point x="500" y="1059"/>
	  <point x="415" y="990"/>
	  <point x="269" y="990" type="curve"/>
	  <point x="269" y="917" type="line"/>
	  <point x="433" y="917"/>
	  <point x="531" y="863"/>
	  <point x="531" y="766" type="curve" smooth="yes"/>
	  <point x="531" y="669"/>
	  <point x="454" y="612"/>
	  <point x="360" y="612" type="curve" smooth="yes"/>
	  <point x="274" y="612"/>
	  <point x="199" y="661"/>
	  <point x="150" y="736" type="curve"/>
	  <point x="75" y="679" type="line"/>
	  <point x="133" y="592"/>
	  <point x="237" y="522"/>
	  <point x="365" y="522" type="curve" smooth="yes"/>
	  <point x="518" y="522"/>
	  <point x="642" y="613"/>
	  <point x="642" y="761" type="curve" smooth="yes"/>
	  <point x="642" y="869"/>
	  <point x="557" y="937"/>
	  <point x="464" y="959" type="curve"/>
	  <point x="548" y="995"/>
	  <point x="610" y="1061"/>
	  <point x="610" y="1157" type="curve" smooth="yes"/>
	  <point x="610" y="1291"/>
	  <point x="496" y="1370"/>
	  <point x="359" y="1370" type="curve" smooth="yes"/>
	  <point x="253" y="1370"/>
	  <point x="171" y="1318"/>
	  <point x="107" y="1240" type="curve"/>
	</contour>
	<contour>
	  <point x="1198" y="1370" type="line"/>
	  <point x="451" y="-25" type="line"/>
	  <point x="550" y="-25" type="line"/>
	  <point x="1296" y="1370" type="line"/>
	</contour>
	<contour>
	  <point x="1081" y="304" type="line"/>
	  <point x="1218" y="513" type="line"/>
	  <point x="1325" y="681" type="line"/>
	  <point x="1333" y="681" type="line"/>
	  <point x="1324" y="462" type="line"/>
	  <point x="1324" y="304" type="line"/>
	</contour>
	<contour>
	  <point x="1543" y="304" type="line"/>
	  <point x="1424" y="304" type="line"/>
	  <point x="1424" y="799" type="line"/>
	  <point x="1307" y="799" type="line"/>
	  <point x="960" y="279" type="line"/>
	  <point x="960" y="221" type="line"/>
	  <point x="1324" y="221" type="line"/>
	  <point x="1324" y="0" type="line"/>
	  <point x="1424" y="0" type="line"/>
	  <point x="1424" y="221" type="line"/>
	  <point x="1543" y="221" type="line"/>
	</contour>
  </outline>
</glyph>
<glyph name="questiondown" format="1">
  <advance width="851"/>
  <unicode hex="00BF"/>
  <outline>
	<contour>
	  <point x="522" y="601" type="curve"/>
	  <point x="399" y="601" type="line"/>
	  <point x="435" y="304"/>
	  <point x="100" y="188"/>
	  <point x="100" y="-85" type="curve" smooth="yes"/>
	  <point x="100" y="-277"/>
	  <point x="232" y="-406"/>
	  <point x="439" y="-406" type="curve" smooth="yes"/>
	  <point x="581" y="-406"/>
	  <point x="692" y="-334"/>
	  <point x="775" y="-240" type="curve"/>
	  <point x="693" y="-168" type="line"/>
	  <point x="629" y="-245"/>
	  <point x="542" y="-290"/>
	  <point x="448" y="-290" type="curve" smooth="yes"/>
	  <point x="303" y="-290"/>
	  <point x="235" y="-191"/>
	  <point x="235" y="-76" type="curve" smooth="yes"/>
	  <point x="235" y="156"/>
	  <point x="566" y="272"/>
	</contour>
	<contour>
	  <point x="562" y="903" type="curve" smooth="yes"/>
	  <point x="562" y="969"/>
	  <point x="512" y="1015"/>
	  <point x="456" y="1015" type="curve" smooth="yes"/>
	  <point x="397" y="1015"/>
	  <point x="348" y="969"/>
	  <point x="348" y="903" type="curve" smooth="yes"/>
	  <point x="348" y="832"/>
	  <point x="397" y="786"/>
	  <point x="456" y="786" type="curve" smooth="yes"/>
	  <point x="512" y="786"/>
	  <point x="562" y="832"/>
	</contour>
  </outline>
</glyph>
<glyph name="Acircumflex" format="1">
  <advance width="1086"/>
  <unicode hex="00C2"/>
  <outline>
	<contour>
	  <point x="537" y="1591" type="line"/>
	  <point x="546" y="1591" type="line"/>
	  <point x="689" y="1448" type="line"/>
	  <point x="804" y="1448" type="line"/>
	  <point x="607" y="1673" type="line"/>
	  <point x="475" y="1673" type="line"/>
	  <point x="279" y="1448" type="line"/>
	  <point x="394" y="1448" type="line"/>
	</contour>
	<contour>
	  <point x="323" y="545" type="line"/>
	  <point x="398" y="770" type="line"/>
	  <point x="448" y="923"/>
	  <point x="493" y="1068"/>
	  <point x="537" y="1228" type="curve"/>
	  <point x="546" y="1228" type="line"/>
	  <point x="590" y="1068"/>
	  <point x="636" y="923"/>
	  <point x="685" y="770" type="curve" smooth="yes"/>
	  <point x="758" y="545" type="line"/>
	</contour>
	<contour>
	  <point x="935" y="0" type="line"/>
	  <point x="1083" y="0" type="line"/>
	  <point x="620" y="1346" type="line"/>
	  <point x="467" y="1346" type="line"/>
	  <point x="3" y="0" type="line"/>
	  <point x="145" y="0" type="line"/>
	  <point x="286" y="432" type="line"/>
	  <point x="795" y="432" type="line"/>
	</contour>
  </outline>
</glyph>
<glyph name="Atilde" format="1">
  <advance width="1086"/>
  <unicode hex="00C3"/>
  <outline>
	<contour>
	  <point x="746" y="1668" type="line"/>
	  <point x="735" y="1600"/>
	  <point x="704" y="1558"/>
	  <point x="662" y="1558" type="curve" smooth="yes"/>
	  <point x="583" y="1558"/>
	  <point x="526" y="1668"/>
	  <point x="420" y="1668" type="curve" smooth="yes"/>
	  <point x="324" y="1668"/>
	  <point x="267" y="1573"/>
	  <point x="258" y="1460" type="curve"/>
	  <point x="337" y="1460" type="line"/>
	  <point x="346" y="1530"/>
	  <point x="378" y="1571"/>
	  <point x="421" y="1571" type="curve" smooth="yes"/>
	  <point x="499" y="1571"/>
	  <point x="556" y="1460"/>
	  <point x="663" y="1460" type="curve" smooth="yes"/>
	  <point x="759" y="1460"/>
	  <point x="816" y="1557"/>
	  <point x="825" y="1668" type="curve"/>
	</contour>
	<contour>
	  <point x="323" y="545" type="line"/>
	  <point x="398" y="770" type="line"/>
	  <point x="448" y="923"/>
	  <point x="493" y="1068"/>
	  <point x="537" y="1228" type="curve"/>
	  <point x="546" y="1228" type="line"/>
	  <point x="590" y="1068"/>
	  <point x="636" y="923"/>
	  <point x="685" y="770" type="curve" smooth="yes"/>
	  <point x="758" y="545" type="line"/>
	</contour>
	<contour>
	  <point x="935" y="0" type="line"/>
	  <point x="1083" y="0" type="line"/>
	  <point x="620" y="1346" type="line"/>
	  <point x="467" y="1346" type="line"/>
	  <point x="3" y="0" type="line"/>
	  <point x="145" y="0" type="line"/>
	  <point x="286" y="432" type="line"/>
	  <point x="795" y="432" type="line"/>
	</contour>
  </outline>
</glyph>
<glyph name="Adieresis" format="1">
  <advance width="1086"/>
  <unicode hex="00C4"/>
  <outline>
	<contour>
	  <point x="711" y="1473" type="curve" smooth="yes"/>
	  <point x="763" y="1473"/>
	  <point x="802" y="1509"/>
	  <point x="802" y="1563" type="curve" smooth="yes"/>
	  <point x="802" y="1617"/>
	  <point x="763" y="1652"/>
	  <point x="711" y="1652" type="curve" smooth="yes"/>
	  <point x="660" y="1652"/>
	  <point x="621" y="1617"/>
	  <point x="621" y="1563" type="curve" smooth="yes"/>
	  <point x="621" y="1509"/>
	  <point x="660" y="1473"/>
	</contour>
	<contour>
	  <point x="370" y="1473" type="curve" smooth="yes"/>
	  <point x="423" y="1473"/>
	  <point x="460" y="1509"/>
	  <point x="460" y="1563" type="curve" smooth="yes"/>
	  <point x="460" y="1617"/>
	  <point x="423" y="1652"/>
	  <point x="370" y="1652" type="curve" smooth="yes"/>
	  <point x="319" y="1652"/>
	  <point x="281" y="1617"/>
	  <point x="281" y="1563" type="curve" smooth="yes"/>
	  <point x="281" y="1509"/>
	  <point x="319" y="1473"/>
	</contour>
	<contour>
	  <point x="323" y="545" type="line"/>
	  <point x="398" y="770" type="line"/>
	  <point x="448" y="923"/>
	  <point x="493" y="1068"/>
	  <point x="537" y="1228" type="curve"/>
	  <point x="546" y="1228" type="line"/>
	  <point x="590" y="1068"/>
	  <point x="636" y="923"/>
	  <point x="685" y="770" type="curve" smooth="yes"/>
	  <point x="758" y="545" type="line"/>
	</contour>
	<contour>
	  <point x="935" y="0" type="line"/>
	  <point x="1083" y="0" type="line"/>
	  <point x="620" y="1346" type="line"/>
	  <point x="467" y="1346" type="line"/>
	  <point x="3" y="0" type="line"/>
	  <point x="145" y="0" type="line"/>
	  <point x="286" y="432" type="line"/>
	  <point x="795" y="432" type="line"/>
	</contour>
  </outline>
</glyph>
<glyph name="Aring" format="1">
  <advance width="1086"/>
  <unicode hex="00C5"/>
  <outline>
	<contour>
	  <point x="541" y="1716" type="curve" smooth="yes"/>
	  <point x="595" y="1716"/>
	  <point x="641" y="1674"/>
	  <point x="641" y="1608" type="curve" smooth="yes"/>
	  <point x="641" y="1537"/>
	  <point x="595" y="1498"/>
	  <point x="541" y="1498" type="curve" smooth="yes"/>
	  <point x="485" y="1498"/>
	  <point x="440" y="1537"/>
	  <point x="440" y="1608" type="curve" smooth="yes"/>
	  <point x="440" y="1674"/>
	  <point x="485" y="1716"/>
	</contour>
	<contour>
	  <point x="541" y="1433" type="curve" smooth="yes"/>
	  <point x="643" y="1433"/>
	  <point x="722" y="1500"/>
	  <point x="722" y="1608" type="curve" smooth="yes"/>
	  <point x="722" y="1713"/>
	  <point x="643" y="1783"/>
	  <point x="541" y="1783" type="curve" smooth="yes"/>
	  <point x="435" y="1783"/>
	  <point x="358" y="1713"/>
	  <point x="358" y="1608" type="curve" smooth="yes"/>
	  <point x="358" y="1500"/>
	  <point x="435" y="1433"/>
	</contour>
	<contour>
	  <point x="323" y="545" type="line"/>
	  <point x="398" y="770" type="line"/>
	  <point x="448" y="923"/>
	  <point x="493" y="1068"/>
	  <point x="537" y="1228" type="curve"/>
	  <point x="546" y="1228" type="line"/>
	  <point x="590" y="1068"/>
	  <point x="636" y="923"/>
	  <point x="685" y="770" type="curve" smooth="yes"/>
	  <point x="758" y="545" type="line"/>
	</contour>
	<contour>
	  <point x="935" y="0" type="line"/>
	  <point x="1083" y="0" type="line"/>
	  <point x="620" y="1346" type="line"/>
	  <point x="467" y="1346" type="line"/>
	  <point x="3" y="0" type="line"/>
	  <point x="145" y="0" type="line"/>
	  <point x="286" y="432" type="line"/>
	  <point x="795" y="432" type="line"/>
	</contour>
  </outline>
</glyph>
<glyph name="AE" format="1">
  <advance width="1660"/>
  <unicode hex="00C6"/>
  <outline>
	<contour>
	  <point x="445" y="526" type="line"/>
	  <point x="579" y="780" type="line"/>
	  <point x="657" y="932"/>
	  <point x="739" y="1085"/>
	  <point x="816" y="1233" type="curve"/>
	  <point x="824" y="1233" type="line"/>
	  <point x="824" y="526" type="line"/>
	</contour>
	<contour>
	  <point x="963" y="119" type="line"/>
	  <point x="963" y="651" type="line"/>
	  <point x="1450" y="651" type="line"/>
	  <point x="1450" y="770" type="line"/>
	  <point x="963" y="770" type="line"/>
	  <point x="963" y="1228" type="line"/>
	  <point x="1549" y="1228" type="line"/>
	  <point x="1549" y="1346" type="line"/>
	  <point x="744" y="1346" type="line"/>
	  <point x="22" y="0" type="line"/>
	  <point x="165" y="0" type="line"/>
	  <point x="384" y="413" type="line"/>
	  <point x="824" y="413" type="line"/>
	  <point x="824" y="0" type="line"/>
	  <point x="1569" y="0" type="line"/>
	  <point x="1569" y="119" type="line"/>
	</contour>
	<contour>
	  <point x="1162" y="1421" type="move" name="mark0"/>
	</contour>
  </outline>
</glyph>
<glyph name="Egrave" format="1">
  <advance width="1056"/>
  <unicode hex="00C8"/>
  <outline>
	<contour>
	  <point x="184" y="0" type="line"/>
	  <point x="964" y="0" type="line"/>
	  <point x="964" y="119" type="line"/>
	  <point x="324" y="119" type="line"/>
	  <point x="324" y="651" type="line"/>
	  <point x="845" y="651" type="line"/>
	  <point x="845" y="770" type="line"/>
	  <point x="324" y="770" type="line"/>
	  <point x="324" y="1228" type="line"/>
	  <point x="943" y="1228" type="line"/>
	  <point x="943" y="1346" type="line"/>
	  <point x="184" y="1346" type="line"/>
	</contour>
	<contour>
	  <point x="550" y="1448" type="line"/>
	  <point x="668" y="1448" type="line"/>
	  <point x="484" y="1673" type="line"/>
	  <point x="321" y="1673" type="line"/>
	</contour>
  </outline>
</glyph>
<glyph name="Eacute" format="1">
  <advance width="1056"/>
  <unicode hex="00C9"/>
  <outline>
	<contour>
	  <point x="184" y="0" type="line"/>
	  <point x="964" y="0" type="line"/>
	  <point x="964" y="119" type="line"/>
	  <point x="324" y="119" type="line"/>
	  <point x="324" y="651" type="line"/>
	  <point x="845" y="651" type="line"/>
	  <point x="845" y="770" type="line"/>
	  <point x="324" y="770" type="line"/>
	  <point x="324" y="1228" type="line"/>
	  <point x="943" y="1228" type="line"/>
	  <point x="943" y="1346" type="line"/>
	  <point x="184" y="1346" type="line"/>
	</contour>
	<contour>
	  <point x="828" y="1673" type="line"/>
	  <point x="665" y="1673" type="line"/>
	  <point x="482" y="1448" type="line"/>
	  <point x="599" y="1448" type="line"/>
	</contour>
  </outline>
</glyph>
<glyph name="Ecircumflex" format="1">
  <advance width="1056"/>
  <unicode hex="00CA"/>
  <outline>
	<contour>
	  <point x="184" y="0" type="line"/>
	  <point x="964" y="0" type="line"/>
	  <point x="964" y="119" type="line"/>
	  <point x="324" y="119" type="line"/>
	  <point x="324" y="651" type="line"/>
	  <point x="845" y="651" type="line"/>
	  <point x="845" y="770" type="line"/>
	  <point x="324" y="770" type="line"/>
	  <point x="324" y="1228" type="line"/>
	  <point x="943" y="1228" type="line"/>
	  <point x="943" y="1346" type="line"/>
	  <point x="184" y="1346" type="line"/>
	</contour>
	<contour>
	  <point x="426" y="1448" type="line"/>
	  <point x="570" y="1591" type="line"/>
	  <point x="578" y="1591" type="line"/>
	  <point x="722" y="1448" type="line"/>
	  <point x="837" y="1448" type="line"/>
	  <point x="640" y="1673" type="line"/>
	  <point x="508" y="1673" type="line"/>
	  <point x="312" y="1448" type="line"/>
	</contour>
  </outline>
</glyph>
<glyph name="Edieresis" format="1">
  <advance width="1056"/>
  <unicode hex="00CB"/>
  <outline>
	<contour>
	  <point x="184" y="0" type="line"/>
	  <point x="964" y="0" type="line"/>
	  <point x="964" y="119" type="line"/>
	  <point x="324" y="119" type="line"/>
	  <point x="324" y="651" type="line"/>
	  <point x="845" y="651" type="line"/>
	  <point x="845" y="770" type="line"/>
	  <point x="324" y="770" type="line"/>
	  <point x="324" y="1228" type="line"/>
	  <point x="943" y="1228" type="line"/>
	  <point x="943" y="1346" type="line"/>
	  <point x="184" y="1346" type="line"/>
	</contour>
	<contour>
	  <point x="403" y="1473" type="curve" smooth="yes"/>
	  <point x="456" y="1473"/>
	  <point x="493" y="1509"/>
	  <point x="493" y="1563" type="curve" smooth="yes"/>
	  <point x="493" y="1617"/>
	  <point x="456" y="1652"/>
	  <point x="403" y="1652" type="curve" smooth="yes"/>
	  <point x="352" y="1652"/>
	  <point x="315" y="1617"/>
	  <point x="315" y="1563" type="curve" smooth="yes"/>
	  <point x="315" y="1509"/>
	  <point x="352" y="1473"/>
	</contour>
	<contour>
	  <point x="745" y="1473" type="curve" smooth="yes"/>
	  <point x="796" y="1473"/>
	  <point x="835" y="1509"/>
	  <point x="835" y="1563" type="curve" smooth="yes"/>
	  <point x="835" y="1617"/>
	  <point x="796" y="1652"/>
	  <point x="745" y="1652" type="curve" smooth="yes"/>
	  <point x="693" y="1652"/>
	  <point x="654" y="1617"/>
	  <point x="654" y="1563" type="curve" smooth="yes"/>
	  <point x="654" y="1509"/>
	  <point x="693" y="1473"/>
	</contour>
  </outline>
</glyph>
<glyph name="Igrave" format="1">
  <advance width="507"/>
  <unicode hex="00CC"/>
  <outline>
	<contour>
	  <point x="184" y="0" type="line"/>
	  <point x="324" y="0" type="line"/>
	  <point x="324" y="1346" type="line"/>
	  <point x="184" y="1346" type="line"/>
	</contour>
	<contour>
	  <point x="229" y="1448" type="line"/>
	  <point x="347" y="1448" type="line"/>
	  <point x="162" y="1673" type="line"/>
	  <point x="1" y="1673" type="line"/>
	</contour>
  </outline>
</glyph>
<glyph name="Iacute" format="1">
  <advance width="507"/>
  <unicode hex="00CD"/>
  <outline>
	<contour>
	  <point x="184" y="0" type="line"/>
	  <point x="324" y="0" type="line"/>
	  <point x="324" y="1346" type="line"/>
	  <point x="184" y="1346" type="line"/>
	</contour>
	<contour>
	  <point x="506" y="1673" type="line"/>
	  <point x="345" y="1673" type="line"/>
	  <point x="161" y="1448" type="line"/>
	  <point x="278" y="1448" type="line"/>
	</contour>
  </outline>
</glyph>
<glyph name="Icircumflex" format="1">
  <advance width="507"/>
  <unicode hex="00CE"/>
  <outline>
	<contour>
	  <point x="184" y="0" type="line"/>
	  <point x="324" y="0" type="line"/>
	  <point x="324" y="1346" type="line"/>
	  <point x="184" y="1346" type="line"/>
	</contour>
	<contour>
	  <point x="106" y="1448" type="line"/>
	  <point x="250" y="1591" type="line"/>
	  <point x="258" y="1591" type="line"/>
	  <point x="402" y="1448" type="line"/>
	  <point x="517" y="1448" type="line"/>
	  <point x="320" y="1673" type="line"/>
	  <point x="188" y="1673" type="line"/>
	  <point x="-8" y="1448" type="line"/>
	</contour>
  </outline>
</glyph>
<glyph name="Idieresis" format="1">
  <advance width="507"/>
  <unicode hex="00CF"/>
  <outline>
	<contour>
	  <point x="184" y="0" type="line"/>
	  <point x="324" y="0" type="line"/>
	  <point x="324" y="1346" type="line"/>
	  <point x="184" y="1346" type="line"/>
	</contour>
	<contour>
	  <point x="84" y="1473" type="curve" smooth="yes"/>
	  <point x="135" y="1473"/>
	  <point x="173" y="1509"/>
	  <point x="173" y="1563" type="curve" smooth="yes"/>
	  <point x="173" y="1617"/>
	  <point x="135" y="1652"/>
	  <point x="84" y="1652" type="curve" smooth="yes"/>
	  <point x="31" y="1652"/>
	  <point x="-6" y="1617"/>
	  <point x="-6" y="1563" type="curve" smooth="yes"/>
	  <point x="-6" y="1509"/>
	  <point x="31" y="1473"/>
	</contour>
	<contour>
	  <point x="423" y="1473" type="curve" smooth="yes"/>
	  <point x="476" y="1473"/>
	  <point x="514" y="1509"/>
	  <point x="514" y="1563" type="curve" smooth="yes"/>
	  <point x="514" y="1617"/>
	  <point x="476" y="1652"/>
	  <point x="423" y="1652" type="curve" smooth="yes"/>
	  <point x="373" y="1652"/>
	  <point x="334" y="1617"/>
	  <point x="334" y="1563" type="curve" smooth="yes"/>
	  <point x="334" y="1509"/>
	  <point x="373" y="1473"/>
	</contour>
  </outline>
</glyph>
<glyph name="Ntilde" format="1">
  <advance width="1304"/>
  <unicode hex="00D1"/>
  <outline>
	<contour>
	  <point x="184" y="0" type="line"/>
	  <point x="316" y="0" type="line"/>
	  <point x="316" y="758" type="line"/>
	  <point x="316" y="895"/>
	  <point x="306" y="1030"/>
	  <point x="298" y="1163" type="curve"/>
	  <point x="307" y="1163" type="line"/>
	  <point x="455" y="889" type="line"/>
	  <point x="974" y="0" type="line"/>
	  <point x="1119" y="0" type="line"/>
	  <point x="1119" y="1346" type="line"/>
	  <point x="987" y="1346" type="line"/>
	  <point x="987" y="597" type="line"/>
	  <point x="987" y="460"/>
	  <point x="998" y="317"/>
	  <point x="1005" y="183" type="curve"/>
	  <point x="997" y="183" type="line"/>
	  <point x="849" y="458" type="line"/>
	  <point x="328" y="1346" type="line"/>
	  <point x="184" y="1346" type="line"/>
	</contour>
	<contour>
	  <point x="781" y="1460" type="curve" smooth="yes"/>
	  <point x="877" y="1460"/>
	  <point x="934" y="1557"/>
	  <point x="944" y="1668" type="curve"/>
	  <point x="864" y="1668" type="line"/>
	  <point x="854" y="1600"/>
	  <point x="821" y="1558"/>
	  <point x="781" y="1558" type="curve" smooth="yes"/>
	  <point x="702" y="1558"/>
	  <point x="646" y="1668"/>
	  <point x="537" y="1668" type="curve" smooth="yes"/>
	  <point x="441" y="1668"/>
	  <point x="385" y="1573"/>
	  <point x="375" y="1460" type="curve"/>
	  <point x="455" y="1460" type="line"/>
	  <point x="464" y="1530"/>
	  <point x="497" y="1571"/>
	  <point x="538" y="1571" type="curve" smooth="yes"/>
	  <point x="616" y="1571"/>
	  <point x="673" y="1460"/>
	</contour>
  </outline>
</glyph>
<glyph name="Ograve" format="1">
  <advance width="1338"/>
  <unicode hex="00D2"/>
  <outline>
	<contour>
	  <point x="670" y="-25" type="curve" smooth="yes"/>
	  <point x="1001" y="-25"/>
	  <point x="1236" y="248"/>
	  <point x="1236" y="679" type="curve" smooth="yes"/>
	  <point x="1236" y="1106"/>
	  <point x="1001" y="1370"/>
	  <point x="670" y="1370" type="curve" smooth="yes"/>
	  <point x="337" y="1370"/>
	  <point x="102" y="1107"/>
	  <point x="102" y="679" type="curve" smooth="yes"/>
	  <point x="102" y="248"/>
	  <point x="337" y="-25"/>
	</contour>
	<contour>
	  <point x="670" y="99" type="curve" smooth="yes"/>
	  <point x="415" y="99"/>
	  <point x="246" y="327"/>
	  <point x="246" y="679" type="curve" smooth="yes"/>
	  <point x="246" y="1029"/>
	  <point x="415" y="1247"/>
	  <point x="670" y="1247" type="curve" smooth="yes"/>
	  <point x="923" y="1247"/>
	  <point x="1091" y="1029"/>
	  <point x="1091" y="679" type="curve" smooth="yes"/>
	  <point x="1091" y="327"/>
	  <point x="923" y="99"/>
	</contour>
	<contour>
	  <point x="645" y="1448" type="line"/>
	  <point x="762" y="1448" type="line"/>
	  <point x="578" y="1673" type="line"/>
	  <point x="417" y="1673" type="line"/>
	</contour>
  </outline>
</glyph>
<glyph name="Oacute" format="1">
  <advance width="1338"/>
  <unicode hex="00D3"/>
  <outline>
	<contour>
	  <point x="670" y="-25" type="curve" smooth="yes"/>
	  <point x="1001" y="-25"/>
	  <point x="1236" y="248"/>
	  <point x="1236" y="679" type="curve" smooth="yes"/>
	  <point x="1236" y="1106"/>
	  <point x="1001" y="1370"/>
	  <point x="670" y="1370" type="curve" smooth="yes"/>
	  <point x="337" y="1370"/>
	  <point x="102" y="1107"/>
	  <point x="102" y="679" type="curve" smooth="yes"/>
	  <point x="102" y="248"/>
	  <point x="337" y="-25"/>
	</contour>
	<contour>
	  <point x="670" y="99" type="curve" smooth="yes"/>
	  <point x="415" y="99"/>
	  <point x="246" y="327"/>
	  <point x="246" y="679" type="curve" smooth="yes"/>
	  <point x="246" y="1029"/>
	  <point x="415" y="1247"/>
	  <point x="670" y="1247" type="curve" smooth="yes"/>
	  <point x="923" y="1247"/>
	  <point x="1091" y="1029"/>
	  <point x="1091" y="679" type="curve" smooth="yes"/>
	  <point x="1091" y="327"/>
	  <point x="923" y="99"/>
	</contour>
	<contour>
	  <point x="922" y="1673" type="line"/>
	  <point x="761" y="1673" type="line"/>
	  <point x="575" y="1448" type="line"/>
	  <point x="693" y="1448" type="line"/>
	</contour>
  </outline>
</glyph>
<glyph name="Ocircumflex" format="1">
  <advance width="1338"/>
  <unicode hex="00D4"/>
  <outline>
	<contour>
	  <point x="670" y="-25" type="curve" smooth="yes"/>
	  <point x="1001" y="-25"/>
	  <point x="1236" y="248"/>
	  <point x="1236" y="679" type="curve" smooth="yes"/>
	  <point x="1236" y="1106"/>
	  <point x="1001" y="1370"/>
	  <point x="670" y="1370" type="curve" smooth="yes"/>
	  <point x="337" y="1370"/>
	  <point x="102" y="1107"/>
	  <point x="102" y="679" type="curve" smooth="yes"/>
	  <point x="102" y="248"/>
	  <point x="337" y="-25"/>
	</contour>
	<contour>
	  <point x="670" y="99" type="curve" smooth="yes"/>
	  <point x="415" y="99"/>
	  <point x="246" y="327"/>
	  <point x="246" y="679" type="curve" smooth="yes"/>
	  <point x="246" y="1029"/>
	  <point x="415" y="1247"/>
	  <point x="670" y="1247" type="curve" smooth="yes"/>
	  <point x="923" y="1247"/>
	  <point x="1091" y="1029"/>
	  <point x="1091" y="679" type="curve" smooth="yes"/>
	  <point x="1091" y="327"/>
	  <point x="923" y="99"/>
	</contour>
	<contour>
	  <point x="522" y="1448" type="line"/>
	  <point x="666" y="1591" type="line"/>
	  <point x="674" y="1591" type="line"/>
	  <point x="818" y="1448" type="line"/>
	  <point x="931" y="1448" type="line"/>
	  <point x="735" y="1673" type="line"/>
	  <point x="604" y="1673" type="line"/>
	  <point x="407" y="1448" type="line"/>
	</contour>
  </outline>
</glyph>
<glyph name="Odieresis" format="1">
  <advance width="1338"/>
  <unicode hex="00D6"/>
  <outline>
	<contour>
	  <point x="670" y="-25" type="curve" smooth="yes"/>
	  <point x="1001" y="-25"/>
	  <point x="1236" y="248"/>
	  <point x="1236" y="679" type="curve" smooth="yes"/>
	  <point x="1236" y="1106"/>
	  <point x="1001" y="1370"/>
	  <point x="670" y="1370" type="curve" smooth="yes"/>
	  <point x="337" y="1370"/>
	  <point x="102" y="1107"/>
	  <point x="102" y="679" type="curve" smooth="yes"/>
	  <point x="102" y="248"/>
	  <point x="337" y="-25"/>
	</contour>
	<contour>
	  <point x="670" y="99" type="curve" smooth="yes"/>
	  <point x="415" y="99"/>
	  <point x="246" y="327"/>
	  <point x="246" y="679" type="curve" smooth="yes"/>
	  <point x="246" y="1029"/>
	  <point x="415" y="1247"/>
	  <point x="670" y="1247" type="curve" smooth="yes"/>
	  <point x="923" y="1247"/>
	  <point x="1091" y="1029"/>
	  <point x="1091" y="679" type="curve" smooth="yes"/>
	  <point x="1091" y="327"/>
	  <point x="923" y="99"/>
	</contour>
	<contour>
	  <point x="499" y="1473" type="curve" smooth="yes"/>
	  <point x="551" y="1473"/>
	  <point x="588" y="1509"/>
	  <point x="588" y="1563" type="curve" smooth="yes"/>
	  <point x="588" y="1617"/>
	  <point x="551" y="1652"/>
	  <point x="499" y="1652" type="curve" smooth="yes"/>
	  <point x="447" y="1652"/>
	  <point x="408" y="1617"/>
	  <point x="408" y="1563" type="curve" smooth="yes"/>
	  <point x="408" y="1509"/>
	  <point x="447" y="1473"/>
	</contour>
	<contour>
	  <point x="839" y="1473" type="curve" smooth="yes"/>
	  <point x="891" y="1473"/>
	  <point x="929" y="1509"/>
	  <point x="929" y="1563" type="curve" smooth="yes"/>
	  <point x="929" y="1617"/>
	  <point x="891" y="1652"/>
	  <point x="839" y="1652" type="curve" smooth="yes"/>
	  <point x="789" y="1652"/>
	  <point x="750" y="1617"/>
	  <point x="750" y="1563" type="curve" smooth="yes"/>
	  <point x="750" y="1509"/>
	  <point x="789" y="1473"/>
	</contour>
  </outline>
</glyph>
<glyph name="Uacute" format="1">
  <advance width="1300"/>
  <unicode hex="00DA"/>
  <outline>
	<contour>
	  <point x="178" y="540" type="line"/>
	  <point x="178" y="112"/>
	  <point x="392" y="-25"/>
	  <point x="649" y="-25" type="curve" smooth="yes"/>
	  <point x="906" y="-25"/>
	  <point x="1122" y="112"/>
	  <point x="1122" y="540" type="curve" smooth="yes"/>
	  <point x="1122" y="1346" type="line"/>
	  <point x="989" y="1346" type="line"/>
	  <point x="989" y="542" type="line"/>
	  <point x="989" y="204"/>
	  <point x="835" y="99"/>
	  <point x="649" y="99" type="curve" smooth="yes"/>
	  <point x="469" y="99"/>
	  <point x="318" y="204"/>
	  <point x="318" y="542" type="curve" smooth="yes"/>
	  <point x="318" y="1346" type="line"/>
	  <point x="178" y="1346" type="line"/>
	</contour>
	<contour>
	  <point x="903" y="1673" type="line"/>
	  <point x="741" y="1673" type="line"/>
	  <point x="557" y="1448" type="line"/>
	  <point x="674" y="1448" type="line"/>
	</contour>
  </outline>
</glyph>
<glyph name="Ucircumflex" format="1">
  <advance width="1300"/>
  <unicode hex="00DB"/>
  <outline>
	<contour>
	  <point x="178" y="540" type="line"/>
	  <point x="178" y="112"/>
	  <point x="392" y="-25"/>
	  <point x="649" y="-25" type="curve" smooth="yes"/>
	  <point x="906" y="-25"/>
	  <point x="1122" y="112"/>
	  <point x="1122" y="540" type="curve" smooth="yes"/>
	  <point x="1122" y="1346" type="line"/>
	  <point x="989" y="1346" type="line"/>
	  <point x="989" y="542" type="line"/>
	  <point x="989" y="204"/>
	  <point x="835" y="99"/>
	  <point x="649" y="99" type="curve" smooth="yes"/>
	  <point x="469" y="99"/>
	  <point x="318" y="204"/>
	  <point x="318" y="542" type="curve" smooth="yes"/>
	  <point x="318" y="1346" type="line"/>
	  <point x="178" y="1346" type="line"/>
	</contour>
	<contour>
	  <point x="502" y="1448" type="line"/>
	  <point x="646" y="1591" type="line"/>
	  <point x="654" y="1591" type="line"/>
	  <point x="798" y="1448" type="line"/>
	  <point x="913" y="1448" type="line"/>
	  <point x="716" y="1673" type="line"/>
	  <point x="583" y="1673" type="line"/>
	  <point x="387" y="1448" type="line"/>
	</contour>
  </outline>
</glyph>
<glyph name="Udieresis" format="1">
  <advance width="1300"/>
  <unicode hex="00DC"/>
  <outline>
	<contour>
	  <point x="178" y="540" type="line"/>
	  <point x="178" y="112"/>
	  <point x="392" y="-25"/>
	  <point x="649" y="-25" type="curve" smooth="yes"/>
	  <point x="906" y="-25"/>
	  <point x="1122" y="112"/>
	  <point x="1122" y="540" type="curve" smooth="yes"/>
	  <point x="1122" y="1346" type="line"/>
	  <point x="989" y="1346" type="line"/>
	  <point x="989" y="542" type="line"/>
	  <point x="989" y="204"/>
	  <point x="835" y="99"/>
	  <point x="649" y="99" type="curve" smooth="yes"/>
	  <point x="469" y="99"/>
	  <point x="318" y="204"/>
	  <point x="318" y="542" type="curve" smooth="yes"/>
	  <point x="318" y="1346" type="line"/>
	  <point x="178" y="1346" type="line"/>
	</contour>
	<contour>
	  <point x="480" y="1473" type="curve" smooth="yes"/>
	  <point x="532" y="1473"/>
	  <point x="570" y="1509"/>
	  <point x="570" y="1563" type="curve" smooth="yes"/>
	  <point x="570" y="1617"/>
	  <point x="532" y="1652"/>
	  <point x="480" y="1652" type="curve" smooth="yes"/>
	  <point x="429" y="1652"/>
	  <point x="390" y="1617"/>
	  <point x="390" y="1563" type="curve" smooth="yes"/>
	  <point x="390" y="1509"/>
	  <point x="429" y="1473"/>
	</contour>
	<contour>
	  <point x="821" y="1473" type="curve" smooth="yes"/>
	  <point x="873" y="1473"/>
	  <point x="910" y="1509"/>
	  <point x="910" y="1563" type="curve" smooth="yes"/>
	  <point x="910" y="1617"/>
	  <point x="873" y="1652"/>
	  <point x="821" y="1652" type="curve" smooth="yes"/>
	  <point x="769" y="1652"/>
	  <point x="731" y="1617"/>
	  <point x="731" y="1563" type="curve" smooth="yes"/>
	  <point x="731" y="1509"/>
	  <point x="769" y="1473"/>
	</contour>
  </outline>
</glyph>
<glyph name="atilde" format="1">
  <advance width="1038"/>
  <unicode hex="00E3"/>
  <outline>
	<contour>
	  <point x="125" y="253" type="curve" smooth="yes"/>
	  <point x="125" y="71"/>
	  <point x="252" y="-25"/>
	  <point x="415" y="-25" type="curve" smooth="yes"/>
	  <point x="541" y="-25"/>
	  <point x="654" y="43"/>
	  <point x="752" y="122" type="curve"/>
	  <point x="756" y="122" type="line"/>
	  <point x="769" y="0" type="line"/>
	  <point x="882" y="0" type="line"/>
	  <point x="882" y="618" type="line"/>
	  <point x="882" y="851"/>
	  <point x="790" y="1015"/>
	  <point x="551" y="1015" type="curve" smooth="yes"/>
	  <point x="391" y="1015"/>
	  <point x="253" y="942"/>
	  <point x="170" y="887" type="curve"/>
	  <point x="227" y="790" type="line"/>
	  <point x="300" y="841"/>
	  <point x="407" y="900"/>
	  <point x="531" y="900" type="curve" smooth="yes"/>
	  <point x="705" y="900"/>
	  <point x="748" y="761"/>
	  <point x="746" y="625" type="curve"/>
	  <point x="317" y="577"/>
	  <point x="125" y="470"/>
	</contour>
	<contour>
	  <point x="261" y="262" type="curve" smooth="yes"/>
	  <point x="261" y="401"/>
	  <point x="384" y="488"/>
	  <point x="746" y="531" type="curve"/>
	  <point x="746" y="231" type="line"/>
	  <point x="640" y="138"/>
	  <point x="552" y="87"/>
	  <point x="449" y="87" type="curve" smooth="yes"/>
	  <point x="344" y="87"/>
	  <point x="261" y="138"/>
	</contour>
	<contour>
	  <point x="274" y="1188" type="curve"/>
	  <point x="355" y="1188" type="line"/>
	  <point x="365" y="1258"/>
	  <point x="388" y="1295"/>
	  <point x="431" y="1295" type="curve" smooth="yes"/>
	  <point x="503" y="1295"/>
	  <point x="560" y="1188"/>
	  <point x="662" y="1188" type="curve" smooth="yes"/>
	  <point x="761" y="1188"/>
	  <point x="808" y="1282"/>
	  <point x="819" y="1390" type="curve"/>
	  <point x="736" y="1390" type="line"/>
	  <point x="726" y="1321"/>
	  <point x="702" y="1282"/>
	  <point x="661" y="1282" type="curve" smooth="yes"/>
	  <point x="593" y="1282"/>
	  <point x="532" y="1390"/>
	  <point x="431" y="1390" type="curve" smooth="yes"/>
	  <point x="330" y="1390"/>
	  <point x="284" y="1296"/>
	</contour>
  </outline>
</glyph>
<glyph name="aring" format="1">
  <advance width="1038"/>
  <unicode hex="00E5"/>
  <outline>
	<contour>
	  <point x="125" y="253" type="curve" smooth="yes"/>
	  <point x="125" y="71"/>
	  <point x="252" y="-25"/>
	  <point x="415" y="-25" type="curve" smooth="yes"/>
	  <point x="541" y="-25"/>
	  <point x="654" y="43"/>
	  <point x="752" y="122" type="curve"/>
	  <point x="756" y="122" type="line"/>
	  <point x="769" y="0" type="line"/>
	  <point x="882" y="0" type="line"/>
	  <point x="882" y="618" type="line"/>
	  <point x="882" y="851"/>
	  <point x="790" y="1015"/>
	  <point x="551" y="1015" type="curve" smooth="yes"/>
	  <point x="391" y="1015"/>
	  <point x="253" y="942"/>
	  <point x="170" y="887" type="curve"/>
	  <point x="227" y="790" type="line"/>
	  <point x="300" y="841"/>
	  <point x="407" y="900"/>
	  <point x="531" y="900" type="curve" smooth="yes"/>
	  <point x="705" y="900"/>
	  <point x="748" y="761"/>
	  <point x="746" y="625" type="curve"/>
	  <point x="317" y="577"/>
	  <point x="125" y="470"/>
	</contour>
	<contour>
	  <point x="261" y="262" type="curve" smooth="yes"/>
	  <point x="261" y="401"/>
	  <point x="384" y="488"/>
	  <point x="746" y="531" type="curve"/>
	  <point x="746" y="231" type="line"/>
	  <point x="640" y="138"/>
	  <point x="552" y="87"/>
	  <point x="449" y="87" type="curve" smooth="yes"/>
	  <point x="344" y="87"/>
	  <point x="261" y="138"/>
	</contour>
	<contour>
	  <point x="546" y="1108" type="curve" smooth="yes"/>
	  <point x="651" y="1108"/>
	  <point x="728" y="1182"/>
	  <point x="728" y="1292" type="curve" smooth="yes"/>
	  <point x="728" y="1402"/>
	  <point x="651" y="1476"/>
	  <point x="546" y="1476" type="curve" smooth="yes"/>
	  <point x="441" y="1476"/>
	  <point x="364" y="1402"/>
	  <point x="364" y="1292" type="curve" smooth="yes"/>
	  <point x="364" y="1182"/>
	  <point x="441" y="1108"/>
	</contour>
	<contour>
	  <point x="546" y="1174" type="curve" smooth="yes"/>
	  <point x="489" y="1174"/>
	  <point x="444" y="1221"/>
	  <point x="444" y="1292" type="curve" smooth="yes"/>
	  <point x="444" y="1363"/>
	  <point x="489" y="1410"/>
	  <point x="546" y="1410" type="curve" smooth="yes"/>
	  <point x="603" y="1410"/>
	  <point x="647" y="1363"/>
	  <point x="647" y="1292" type="curve" smooth="yes"/>
	  <point x="647" y="1221"/>
	  <point x="603" y="1174"/>
	</contour>
  </outline>
</glyph>
<glyph name="edieresis" format="1">
  <advance width="1005"/>
  <unicode hex="00EB"/>
  <outline>
	<contour>
	  <point x="99" y="493" type="curve" smooth="yes"/>
	  <point x="99" y="169"/>
	  <point x="307" y="-25"/>
	  <point x="567" y="-25" type="curve" smooth="yes"/>
	  <point x="706" y="-25"/>
	  <point x="805" y="24"/>
	  <point x="887" y="76" type="curve"/>
	  <point x="838" y="169" type="line"/>
	  <point x="764" y="119"/>
	  <point x="682" y="87"/>
	  <point x="583" y="87" type="curve" smooth="yes"/>
	  <point x="379" y="87"/>
	  <point x="244" y="240"/>
	  <point x="235" y="468" type="curve"/>
	  <point x="922" y="468" type="line"/>
	  <point x="926" y="493"/>
	  <point x="927" y="522"/>
	  <point x="927" y="553" type="curve" smooth="yes"/>
	  <point x="927" y="840"/>
	  <point x="784" y="1015"/>
	  <point x="539" y="1015" type="curve" smooth="yes"/>
	  <point x="314" y="1015"/>
	  <point x="99" y="817"/>
	</contour>
	<contour>
	  <point x="234" y="562" type="line"/>
	  <point x="254" y="777"/>
	  <point x="391" y="905"/>
	  <point x="542" y="905" type="curve" smooth="yes"/>
	  <point x="705" y="905"/>
	  <point x="805" y="785"/>
	  <point x="805" y="562" type="curve"/>
	</contour>
	<contour>
	  <point x="368" y="1213" type="curve" smooth="yes"/>
	  <point x="420" y="1213"/>
	  <point x="458" y="1251"/>
	  <point x="458" y="1303" type="curve" smooth="yes"/>
	  <point x="458" y="1353"/>
	  <point x="420" y="1392"/>
	  <point x="368" y="1392" type="curve" smooth="yes"/>
	  <point x="317" y="1392"/>
	  <point x="278" y="1353"/>
	  <point x="278" y="1303" type="curve" smooth="yes"/>
	  <point x="278" y="1251"/>
	  <point x="317" y="1213"/>
	</contour>
	<contour>
	  <point x="710" y="1213" type="curve" smooth="yes"/>
	  <point x="761" y="1213"/>
	  <point x="800" y="1251"/>
	  <point x="800" y="1303" type="curve" smooth="yes"/>
	  <point x="800" y="1353"/>
	  <point x="761" y="1392"/>
	  <point x="710" y="1392" type="curve" smooth="yes"/>
	  <point x="657" y="1392"/>
	  <point x="619" y="1353"/>
	  <point x="619" y="1303" type="curve" smooth="yes"/>
	  <point x="619" y="1251"/>
	  <point x="657" y="1213"/>
	</contour>
  </outline>
</glyph>
<glyph name="igrave" format="1">
  <advance width="490"/>
  <unicode hex="00EC"/>
  <outline>
	<contour>
	  <point x="176" y="0" type="line"/>
	  <point x="313" y="0" type="line"/>
	  <point x="313" y="990" type="line"/>
	  <point x="176" y="990" type="line"/>
	</contour>
	<contour>
	  <point x="262" y="1173" type="line"/>
	  <point x="370" y="1173" type="line"/>
	  <point x="184" y="1457" type="line"/>
	  <point x="36" y="1457" type="line"/>
	</contour>
  </outline>
</glyph>
<glyph name="iacute" format="1">
  <advance width="490"/>
  <unicode hex="00ED"/>
  <outline>
	<contour>
	  <point x="176" y="0" type="line"/>
	  <point x="313" y="0" type="line"/>
	  <point x="313" y="990" type="line"/>
	  <point x="176" y="990" type="line"/>
	</contour>
	<contour>
	  <point x="453" y="1457" type="line"/>
	  <point x="305" y="1457" type="line"/>
	  <point x="120" y="1173" type="line"/>
	  <point x="227" y="1173" type="line"/>
	</contour>
  </outline>
</glyph>
<glyph name="icircumflex" format="1">
  <advance width="490"/>
  <unicode hex="00EE"/>
  <outline>
	<contour>
	  <point x="176" y="0" type="line"/>
	  <point x="313" y="0" type="line"/>
	  <point x="313" y="990" type="line"/>
	  <point x="176" y="990" type="line"/>
	</contour>
	<contour>
	  <point x="-5" y="1173" type="line"/>
	  <point x="97" y="1173" type="line"/>
	  <point x="240" y="1366" type="line"/>
	  <point x="249" y="1366" type="line"/>
	  <point x="392" y="1173" type="line"/>
	  <point x="496" y="1173" type="line"/>
	  <point x="302" y="1457" type="line"/>
	  <point x="187" y="1457" type="line"/>
	</contour>
  </outline>
</glyph>
<glyph name="idieresis" format="1">
  <advance width="490"/>
  <unicode hex="00EF"/>
  <outline>
	<contour>
	  <point x="176" y="0" type="line"/>
	  <point x="313" y="0" type="line"/>
	  <point x="313" y="990" type="line"/>
	  <point x="176" y="990" type="line"/>
	</contour>
	<contour>
	  <point x="75" y="1213" type="curve" smooth="yes"/>
	  <point x="126" y="1213"/>
	  <point x="164" y="1251"/>
	  <point x="164" y="1303" type="curve" smooth="yes"/>
	  <point x="164" y="1353"/>
	  <point x="126" y="1392"/>
	  <point x="75" y="1392" type="curve" smooth="yes"/>
	  <point x="23" y="1392"/>
	  <point x="-16" y="1353"/>
	  <point x="-16" y="1303" type="curve" smooth="yes"/>
	  <point x="-16" y="1251"/>
	  <point x="23" y="1213"/>
	</contour>
	<contour>
	  <point x="414" y="1213" type="curve" smooth="yes"/>
	  <point x="467" y="1213"/>
	  <point x="505" y="1251"/>
	  <point x="505" y="1303" type="curve" smooth="yes"/>
	  <point x="505" y="1353"/>
	  <point x="467" y="1392"/>
	  <point x="414" y="1392" type="curve" smooth="yes"/>
	  <point x="363" y="1392"/>
	  <point x="327" y="1353"/>
	  <point x="327" y="1303" type="curve" smooth="yes"/>
	  <point x="327" y="1251"/>
	  <point x="363" y="1213"/>
	</contour>
  </outline>
</glyph>
<glyph name="ntilde" format="1">
  <advance width="1108"/>
  <unicode hex="00F1"/>
  <outline>
	<contour>
	  <point x="176" y="0" type="line"/>
	  <point x="313" y="0" type="line"/>
	  <point x="313" y="729" type="line"/>
	  <point x="421" y="839"/>
	  <point x="497" y="895"/>
	  <point x="605" y="895" type="curve" smooth="yes"/>
	  <point x="748" y="895"/>
	  <point x="808" y="808"/>
	  <point x="808" y="612" type="curve" smooth="yes"/>
	  <point x="808" y="0" type="line"/>
	  <point x="944" y="0" type="line"/>
	  <point x="944" y="631" type="line"/>
	  <point x="944" y="885"/>
	  <point x="850" y="1015"/>
	  <point x="644" y="1015" type="curve" smooth="yes"/>
	  <point x="507" y="1015"/>
	  <point x="405" y="940"/>
	  <point x="309" y="843" type="curve"/>
	  <point x="302" y="843" type="line"/>
	  <point x="290" y="990" type="line"/>
	  <point x="176" y="990" type="line"/>
	</contour>
	<contour>
	  <point x="318" y="1188" type="curve"/>
	  <point x="399" y="1188" type="line"/>
	  <point x="410" y="1258"/>
	  <point x="433" y="1295"/>
	  <point x="476" y="1295" type="curve" smooth="yes"/>
	  <point x="547" y="1295"/>
	  <point x="604" y="1188"/>
	  <point x="707" y="1188" type="curve" smooth="yes"/>
	  <point x="805" y="1188"/>
	  <point x="853" y="1282"/>
	  <point x="862" y="1390" type="curve"/>
	  <point x="779" y="1390" type="line"/>
	  <point x="770" y="1321"/>
	  <point x="747" y="1282"/>
	  <point x="705" y="1282" type="curve" smooth="yes"/>
	  <point x="636" y="1282"/>
	  <point x="575" y="1390"/>
	  <point x="474" y="1390" type="curve" smooth="yes"/>
	  <point x="375" y="1390"/>
	  <point x="327" y="1296"/>
	</contour>
  </outline>
</glyph>
<glyph name="ograve" format="1">
  <advance width="1104"/>
  <unicode hex="00F2"/>
  <outline>
	<contour>
	  <point x="99" y="493" type="curve" smooth="yes"/>
	  <point x="99" y="165"/>
	  <point x="311" y="-25"/>
	  <point x="552" y="-25" type="curve" smooth="yes"/>
	  <point x="793" y="-25"/>
	  <point x="1005" y="165"/>
	  <point x="1005" y="493" type="curve" smooth="yes"/>
	  <point x="1005" y="825"/>
	  <point x="793" y="1015"/>
	  <point x="552" y="1015" type="curve" smooth="yes"/>
	  <point x="311" y="1015"/>
	  <point x="99" y="825"/>
	</contour>
	<contour>
	  <point x="241" y="493" type="curve" smooth="yes"/>
	  <point x="241" y="735"/>
	  <point x="370" y="900"/>
	  <point x="552" y="900" type="curve" smooth="yes"/>
	  <point x="734" y="900"/>
	  <point x="864" y="735"/>
	  <point x="864" y="493" type="curve" smooth="yes"/>
	  <point x="864" y="253"/>
	  <point x="734" y="90"/>
	  <point x="552" y="90" type="curve" smooth="yes"/>
	  <point x="370" y="90"/>
	  <point x="241" y="253"/>
	</contour>
	<contour>
	  <point x="569" y="1173" type="line"/>
	  <point x="677" y="1173" type="line"/>
	  <point x="491" y="1457" type="line"/>
	  <point x="344" y="1457" type="line"/>
	</contour>
  </outline>
</glyph>
<glyph name="oacute" format="1">
  <advance width="1104"/>
  <unicode hex="00F3"/>
  <outline>
	<contour>
	  <point x="99" y="493" type="curve" smooth="yes"/>
	  <point x="99" y="165"/>
	  <point x="311" y="-25"/>
	  <point x="552" y="-25" type="curve" smooth="yes"/>
	  <point x="793" y="-25"/>
	  <point x="1005" y="165"/>
	  <point x="1005" y="493" type="curve" smooth="yes"/>
	  <point x="1005" y="825"/>
	  <point x="793" y="1015"/>
	  <point x="552" y="1015" type="curve" smooth="yes"/>
	  <point x="311" y="1015"/>
	  <point x="99" y="825"/>
	</contour>
	<contour>
	  <point x="241" y="493" type="curve" smooth="yes"/>
	  <point x="241" y="735"/>
	  <point x="370" y="900"/>
	  <point x="552" y="900" type="curve" smooth="yes"/>
	  <point x="734" y="900"/>
	  <point x="864" y="735"/>
	  <point x="864" y="493" type="curve" smooth="yes"/>
	  <point x="864" y="253"/>
	  <point x="734" y="90"/>
	  <point x="552" y="90" type="curve" smooth="yes"/>
	  <point x="370" y="90"/>
	  <point x="241" y="253"/>
	</contour>
	<contour>
	  <point x="760" y="1457" type="line"/>
	  <point x="612" y="1457" type="line"/>
	  <point x="427" y="1173" type="line"/>
	  <point x="534" y="1173" type="line"/>
	</contour>
  </outline>
</glyph>
<glyph name="ocircumflex" format="1">
  <advance width="1104"/>
  <unicode hex="00F4"/>
  <outline>
	<contour>
	  <point x="99" y="493" type="curve" smooth="yes"/>
	  <point x="99" y="165"/>
	  <point x="311" y="-25"/>
	  <point x="552" y="-25" type="curve" smooth="yes"/>
	  <point x="793" y="-25"/>
	  <point x="1005" y="165"/>
	  <point x="1005" y="493" type="curve" smooth="yes"/>
	  <point x="1005" y="825"/>
	  <point x="793" y="1015"/>
	  <point x="552" y="1015" type="curve" smooth="yes"/>
	  <point x="311" y="1015"/>
	  <point x="99" y="825"/>
	</contour>
	<contour>
	  <point x="241" y="493" type="curve" smooth="yes"/>
	  <point x="241" y="735"/>
	  <point x="370" y="900"/>
	  <point x="552" y="900" type="curve" smooth="yes"/>
	  <point x="734" y="900"/>
	  <point x="864" y="735"/>
	  <point x="864" y="493" type="curve" smooth="yes"/>
	  <point x="864" y="253"/>
	  <point x="734" y="90"/>
	  <point x="552" y="90" type="curve" smooth="yes"/>
	  <point x="370" y="90"/>
	  <point x="241" y="253"/>
	</contour>
	<contour>
	  <point x="302" y="1173" type="line"/>
	  <point x="404" y="1173" type="line"/>
	  <point x="548" y="1366" type="line"/>
	  <point x="556" y="1366" type="line"/>
	  <point x="700" y="1173" type="line"/>
	  <point x="803" y="1173" type="line"/>
	  <point x="610" y="1457" type="line"/>
	  <point x="494" y="1457" type="line"/>
	</contour>
  </outline>
</glyph>
<glyph name="otilde" format="1">
  <advance width="1104"/>
  <unicode hex="00F5"/>
  <outline>
	<contour>
	  <point x="99" y="493" type="curve" smooth="yes"/>
	  <point x="99" y="165"/>
	  <point x="311" y="-25"/>
	  <point x="552" y="-25" type="curve" smooth="yes"/>
	  <point x="793" y="-25"/>
	  <point x="1005" y="165"/>
	  <point x="1005" y="493" type="curve" smooth="yes"/>
	  <point x="1005" y="825"/>
	  <point x="793" y="1015"/>
	  <point x="552" y="1015" type="curve" smooth="yes"/>
	  <point x="311" y="1015"/>
	  <point x="99" y="825"/>
	</contour>
	<contour>
	  <point x="241" y="493" type="curve" smooth="yes"/>
	  <point x="241" y="735"/>
	  <point x="370" y="900"/>
	  <point x="552" y="900" type="curve" smooth="yes"/>
	  <point x="734" y="900"/>
	  <point x="864" y="735"/>
	  <point x="864" y="493" type="curve" smooth="yes"/>
	  <point x="864" y="253"/>
	  <point x="734" y="90"/>
	  <point x="552" y="90" type="curve" smooth="yes"/>
	  <point x="370" y="90"/>
	  <point x="241" y="253"/>
	</contour>
	<contour>
	  <point x="280" y="1188" type="curve"/>
	  <point x="362" y="1188" type="line"/>
	  <point x="372" y="1258"/>
	  <point x="395" y="1295"/>
	  <point x="437" y="1295" type="curve" smooth="yes"/>
	  <point x="509" y="1295"/>
	  <point x="567" y="1188"/>
	  <point x="668" y="1188" type="curve" smooth="yes"/>
	  <point x="767" y="1188"/>
	  <point x="815" y="1282"/>
	  <point x="824" y="1390" type="curve"/>
	  <point x="743" y="1390" type="line"/>
	  <point x="732" y="1321"/>
	  <point x="709" y="1282"/>
	  <point x="667" y="1282" type="curve" smooth="yes"/>
	  <point x="599" y="1282"/>
	  <point x="539" y="1390"/>
	  <point x="435" y="1390" type="curve" smooth="yes"/>
	  <point x="337" y="1390"/>
	  <point x="289" y="1296"/>
	</contour>
  </outline>
</glyph>
<glyph name="odieresis" format="1">
  <advance width="1104"/>
  <unicode hex="00F6"/>
  <outline>
	<contour>
	  <point x="99" y="493" type="curve" smooth="yes"/>
	  <point x="99" y="165"/>
	  <point x="311" y="-25"/>
	  <point x="552" y="-25" type="curve" smooth="yes"/>
	  <point x="793" y="-25"/>
	  <point x="1005" y="165"/>
	  <point x="1005" y="493" type="curve" smooth="yes"/>
	  <point x="1005" y="825"/>
	  <point x="793" y="1015"/>
	  <point x="552" y="1015" type="curve" smooth="yes"/>
	  <point x="311" y="1015"/>
	  <point x="99" y="825"/>
	</contour>
	<contour>
	  <point x="241" y="493" type="curve" smooth="yes"/>
	  <point x="241" y="735"/>
	  <point x="370" y="900"/>
	  <point x="552" y="900" type="curve" smooth="yes"/>
	  <point x="734" y="900"/>
	  <point x="864" y="735"/>
	  <point x="864" y="493" type="curve" smooth="yes"/>
	  <point x="864" y="253"/>
	  <point x="734" y="90"/>
	  <point x="552" y="90" type="curve" smooth="yes"/>
	  <point x="370" y="90"/>
	  <point x="241" y="253"/>
	</contour>
	<contour>
	  <point x="382" y="1213" type="curve" smooth="yes"/>
	  <point x="331" y="1213"/>
	  <point x="292" y="1251"/>
	  <point x="292" y="1303" type="curve" smooth="yes"/>
	  <point x="292" y="1353"/>
	  <point x="331" y="1392"/>
	  <point x="382" y="1392" type="curve" smooth="yes"/>
	  <point x="433" y="1392"/>
	  <point x="472" y="1353"/>
	  <point x="472" y="1303" type="curve" smooth="yes"/>
	  <point x="472" y="1251"/>
	  <point x="433" y="1213"/>
	</contour>
	<contour>
	  <point x="722" y="1213" type="curve" smooth="yes"/>
	  <point x="775" y="1213"/>
	  <point x="812" y="1251"/>
	  <point x="812" y="1303" type="curve" smooth="yes"/>
	  <point x="812" y="1353"/>
	  <point x="775" y="1392"/>
	  <point x="722" y="1392" type="curve" smooth="yes"/>
	  <point x="671" y="1392"/>
	  <point x="634" y="1353"/>
	  <point x="634" y="1303" type="curve" smooth="yes"/>
	  <point x="634" y="1251"/>
	  <point x="671" y="1213"/>
	</contour>
  </outline>
</glyph>
<glyph name="ucircumflex" format="1">
  <advance width="1101"/>
  <unicode hex="00FB"/>
  <outline>
	<contour>
	  <point x="162" y="360" type="line"/>
	  <point x="162" y="106"/>
	  <point x="256" y="-25"/>
	  <point x="464" y="-25" type="curve" smooth="yes"/>
	  <point x="600" y="-25"/>
	  <point x="700" y="49"/>
	  <point x="794" y="159" type="curve"/>
	  <point x="800" y="159" type="line"/>
	  <point x="812" y="0" type="line"/>
	  <point x="925" y="0" type="line"/>
	  <point x="925" y="990" type="line"/>
	  <point x="789" y="990" type="line"/>
	  <point x="789" y="276" type="line"/>
	  <point x="686" y="150"/>
	  <point x="609" y="95"/>
	  <point x="501" y="95" type="curve" smooth="yes"/>
	  <point x="359" y="95"/>
	  <point x="299" y="183"/>
	  <point x="299" y="378" type="curve" smooth="yes"/>
	  <point x="299" y="990" type="line"/>
	  <point x="162" y="990" type="line"/>
	</contour>
	<contour>
	  <point x="301" y="1173" type="line"/>
	  <point x="403" y="1173" type="line"/>
	  <point x="547" y="1366" type="line"/>
	  <point x="555" y="1366" type="line"/>
	  <point x="699" y="1173" type="line"/>
	  <point x="802" y="1173" type="line"/>
	  <point x="609" y="1457" type="line"/>
	  <point x="493" y="1457" type="line"/>
	</contour>
  </outline>
</glyph>
<glyph name="udieresis" format="1">
  <advance width="1101"/>
  <unicode hex="00FC"/>
  <outline>
	<contour>
	  <point x="162" y="360" type="line"/>
	  <point x="162" y="106"/>
	  <point x="256" y="-25"/>
	  <point x="464" y="-25" type="curve" smooth="yes"/>
	  <point x="600" y="-25"/>
	  <point x="700" y="49"/>
	  <point x="794" y="159" type="curve"/>
	  <point x="800" y="159" type="line"/>
	  <point x="812" y="0" type="line"/>
	  <point x="925" y="0" type="line"/>
	  <point x="925" y="990" type="line"/>
	  <point x="789" y="990" type="line"/>
	  <point x="789" y="276" type="line"/>
	  <point x="686" y="150"/>
	  <point x="609" y="95"/>
	  <point x="501" y="95" type="curve" smooth="yes"/>
	  <point x="359" y="95"/>
	  <point x="299" y="183"/>
	  <point x="299" y="378" type="curve" smooth="yes"/>
	  <point x="299" y="990" type="line"/>
	  <point x="162" y="990" type="line"/>
	</contour>
	<contour>
	  <point x="381" y="1213" type="curve" smooth="yes"/>
	  <point x="432" y="1213"/>
	  <point x="471" y="1251"/>
	  <point x="471" y="1303" type="curve" smooth="yes"/>
	  <point x="471" y="1353"/>
	  <point x="432" y="1392"/>
	  <point x="381" y="1392" type="curve" smooth="yes"/>
	  <point x="330" y="1392"/>
	  <point x="291" y="1353"/>
	  <point x="291" y="1303" type="curve" smooth="yes"/>
	  <point x="291" y="1251"/>
	  <point x="330" y="1213"/>
	</contour>
	<contour>
	  <point x="723" y="1213" type="curve" smooth="yes"/>
	  <point x="773" y="1213"/>
	  <point x="812" y="1251"/>
	  <point x="812" y="1303" type="curve" smooth="yes"/>
	  <point x="812" y="1353"/>
	  <point x="773" y="1392"/>
	  <point x="723" y="1392" type="curve" smooth="yes"/>
	  <point x="670" y="1392"/>
	  <point x="633" y="1353"/>
	  <point x="633" y="1303" type="curve" smooth="yes"/>
	  <point x="633" y="1251"/>
	  <point x="670" y="1213"/>
	</contour>
  </outline>
</glyph>
<glyph name="ydieresis" format="1">
  <advance width="930"/>
  <unicode hex="00FF"/>
  <outline>
	<contour>
	  <point x="88" y="-304" type="curve"/>
	  <point x="60" y="-416" type="line"/>
	  <point x="90" y="-428"/>
	  <point x="128" y="-437"/>
	  <point x="170" y="-437" type="curve" smooth="yes"/>
	  <point x="361" y="-437"/>
	  <point x="461" y="-282"/>
	  <point x="525" y="-99" type="curve" smooth="yes"/>
	  <point x="906" y="990" type="line"/>
	  <point x="771" y="990" type="line"/>
	  <point x="580" y="412" type="line"/>
	  <point x="553" y="326"/>
	  <point x="523" y="222"/>
	  <point x="493" y="134" type="curve"/>
	  <point x="485" y="134" type="line"/>
	  <point x="452" y="223"/>
	  <point x="415" y="327"/>
	  <point x="384" y="412" type="curve" smooth="yes"/>
	  <point x="168" y="990" type="line"/>
	  <point x="25" y="990" type="line"/>
	  <point x="426" y="-9" type="line"/>
	  <point x="401" y="-87" type="line"/>
	  <point x="357" y="-222"/>
	  <point x="281" y="-320"/>
	  <point x="165" y="-320" type="curve" smooth="yes"/>
	  <point x="139" y="-320"/>
	  <point x="108" y="-312"/>
	</contour>
	<contour>
	  <point x="316" y="1213" type="curve" smooth="yes"/>
	  <point x="367" y="1213"/>
	  <point x="406" y="1251"/>
	  <point x="406" y="1303" type="curve" smooth="yes"/>
	  <point x="406" y="1353"/>
	  <point x="367" y="1392"/>
	  <point x="316" y="1392" type="curve" smooth="yes"/>
	  <point x="265" y="1392"/>
	  <point x="226" y="1353"/>
	  <point x="226" y="1303" type="curve" smooth="yes"/>
	  <point x="226" y="1251"/>
	  <point x="265" y="1213"/>
	</contour>
	<contour>
	  <point x="656" y="1213" type="curve" smooth="yes"/>
	  <point x="709" y="1213"/>
	  <point x="747" y="1251"/>
	  <point x="747" y="1303" type="curve" smooth="yes"/>
	  <point x="747" y="1353"/>
	  <point x="709" y="1392"/>
	  <point x="656" y="1392" type="curve" smooth="yes"/>
	  <point x="605" y="1392"/>
	  <point x="567" y="1353"/>
	  <point x="567" y="1303" type="curve" smooth="yes"/>
	  <point x="567" y="1251"/>
	  <point x="605" y="1213"/>
	</contour>
  </outline>
</glyph>
<glyph name="Abreve" format="1">
  <advance width="1086"/>
  <unicode hex="0102"/>
  <outline>
	<contour>
	  <point x="699" y="1673" type="line"/>
	  <point x="687" y="1605"/>
	  <point x="639" y="1536"/>
	  <point x="541" y="1536" type="curve" smooth="yes"/>
	  <point x="444" y="1536"/>
	  <point x="397" y="1605"/>
	  <point x="384" y="1673" type="curve"/>
	  <point x="296" y="1673" type="line"/>
	  <point x="308" y="1567"/>
	  <point x="382" y="1452"/>
	  <point x="541" y="1452" type="curve" smooth="yes"/>
	  <point x="702" y="1452"/>
	  <point x="773" y="1567"/>
	  <point x="787" y="1673" type="curve"/>
	</contour>
	<contour>
	  <point x="323" y="545" type="line"/>
	  <point x="398" y="770" type="line"/>
	  <point x="448" y="923"/>
	  <point x="493" y="1068"/>
	  <point x="537" y="1228" type="curve"/>
	  <point x="546" y="1228" type="line"/>
	  <point x="590" y="1068"/>
	  <point x="636" y="923"/>
	  <point x="685" y="770" type="curve" smooth="yes"/>
	  <point x="758" y="545" type="line"/>
	</contour>
	<contour>
	  <point x="935" y="0" type="line"/>
	  <point x="1083" y="0" type="line"/>
	  <point x="620" y="1346" type="line"/>
	  <point x="467" y="1346" type="line"/>
	  <point x="3" y="0" type="line"/>
	  <point x="145" y="0" type="line"/>
	  <point x="286" y="432" type="line"/>
	  <point x="795" y="432" type="line"/>
	</contour>
  </outline>
</glyph>
<glyph name="ccircumflex" format="1">
  <advance width="928"/>
  <unicode hex="0109"/>
  <outline>
	<contour>
	  <point x="99" y="493" type="curve" smooth="yes"/>
	  <point x="99" y="165"/>
	  <point x="298" y="-25"/>
	  <point x="558" y="-25" type="curve" smooth="yes"/>
	  <point x="679" y="-25"/>
	  <point x="790" y="27"/>
	  <point x="877" y="105" type="curve"/>
	  <point x="813" y="196" type="line"/>
	  <point x="751" y="139"/>
	  <point x="667" y="90"/>
	  <point x="568" y="90" type="curve" smooth="yes"/>
	  <point x="372" y="90"/>
	  <point x="241" y="253"/>
	  <point x="241" y="493" type="curve" smooth="yes"/>
	  <point x="241" y="735"/>
	  <point x="381" y="900"/>
	  <point x="571" y="900" type="curve" smooth="yes"/>
	  <point x="657" y="900"/>
	  <point x="723" y="860"/>
	  <point x="785" y="805" type="curve"/>
	  <point x="856" y="895" type="line"/>
	  <point x="789" y="958"/>
	  <point x="699" y="1015"/>
	  <point x="566" y="1015" type="curve" smooth="yes"/>
	  <point x="316" y="1015"/>
	  <point x="99" y="825"/>
	</contour>
	<contour>
	  <point x="314" y="1173" type="line"/>
	  <point x="417" y="1173" type="line"/>
	  <point x="561" y="1366" type="line"/>
	  <point x="569" y="1366" type="line"/>
	  <point x="714" y="1173" type="line"/>
	  <point x="815" y="1173" type="line"/>
	  <point x="621" y="1457" type="line"/>
	  <point x="508" y="1457" type="line"/>
	</contour>
  </outline>
</glyph>
<glyph name="Cdotaccent" format="1">
  <advance width="1152"/>
  <unicode hex="010A"/>
  <outline>
	<contour>
	  <point x="102" y="674" type="curve" smooth="yes"/>
	  <point x="102" y="239"/>
	  <point x="346" y="-25"/>
	  <point x="682" y="-25" type="curve" smooth="yes"/>
	  <point x="854" y="-25"/>
	  <point x="983" y="48"/>
	  <point x="1087" y="169" type="curve"/>
	  <point x="1007" y="255" type="line"/>
	  <point x="916" y="153"/>
	  <point x="818" y="99"/>
	  <point x="686" y="99" type="curve" smooth="yes"/>
	  <point x="416" y="99"/>
	  <point x="246" y="324"/>
	  <point x="246" y="677" type="curve" smooth="yes"/>
	  <point x="246" y="1028"/>
	  <point x="422" y="1247"/>
	  <point x="694" y="1247" type="curve" smooth="yes"/>
	  <point x="810" y="1247"/>
	  <point x="901" y="1195"/>
	  <point x="973" y="1117" type="curve"/>
	  <point x="1053" y="1206" type="line"/>
	  <point x="976" y="1292"/>
	  <point x="852" y="1370"/>
	  <point x="693" y="1370" type="curve" smooth="yes"/>
	  <point x="349" y="1370"/>
	  <point x="102" y="1105"/>
	</contour>
	<contour>
	  <point x="664" y="1468" type="curve" smooth="yes"/>
	  <point x="721" y="1468"/>
	  <point x="766" y="1508"/>
	  <point x="766" y="1568" type="curve" smooth="yes"/>
	  <point x="766" y="1625"/>
	  <point x="721" y="1664"/>
	  <point x="664" y="1664" type="curve" smooth="yes"/>
	  <point x="607" y="1664"/>
	  <point x="562" y="1625"/>
	  <point x="562" y="1568" type="curve" smooth="yes"/>
	  <point x="562" y="1508"/>
	  <point x="607" y="1468"/>
	</contour>
  </outline>
</glyph>
<glyph name="cdotaccent" format="1">
  <advance width="928"/>
  <unicode hex="010B"/>
  <outline>
	<contour>
	  <point x="99" y="493" type="curve" smooth="yes"/>
	  <point x="99" y="165"/>
	  <point x="298" y="-25"/>
	  <point x="558" y="-25" type="curve" smooth="yes"/>
	  <point x="679" y="-25"/>
	  <point x="790" y="27"/>
	  <point x="877" y="105" type="curve"/>
	  <point x="813" y="196" type="line"/>
	  <point x="751" y="139"/>
	  <point x="667" y="90"/>
	  <point x="568" y="90" type="curve" smooth="yes"/>
	  <point x="372" y="90"/>
	  <point x="241" y="253"/>
	  <point x="241" y="493" type="curve" smooth="yes"/>
	  <point x="241" y="735"/>
	  <point x="381" y="900"/>
	  <point x="571" y="900" type="curve" smooth="yes"/>
	  <point x="657" y="900"/>
	  <point x="723" y="860"/>
	  <point x="785" y="805" type="curve"/>
	  <point x="856" y="895" type="line"/>
	  <point x="789" y="958"/>
	  <point x="699" y="1015"/>
	  <point x="566" y="1015" type="curve" smooth="yes"/>
	  <point x="316" y="1015"/>
	  <point x="99" y="825"/>
	</contour>
	<contour>
	  <point x="565" y="1209" type="curve" smooth="yes"/>
	  <point x="621" y="1209"/>
	  <point x="663" y="1248"/>
	  <point x="663" y="1309" type="curve" smooth="yes"/>
	  <point x="663" y="1365"/>
	  <point x="621" y="1406"/>
	  <point x="565" y="1406" type="curve" smooth="yes"/>
	  <point x="508" y="1406"/>
	  <point x="467" y="1365"/>
	  <point x="467" y="1309" type="curve" smooth="yes"/>
	  <point x="467" y="1248"/>
	  <point x="508" y="1209"/>
	</contour>
  </outline>
</glyph>
<glyph name="Ccaron" format="1">
  <advance width="1152"/>
  <unicode hex="010C"/>
  <outline>
	<contour>
	  <point x="102" y="674" type="curve" smooth="yes"/>
	  <point x="102" y="239"/>
	  <point x="346" y="-25"/>
	  <point x="682" y="-25" type="curve" smooth="yes"/>
	  <point x="854" y="-25"/>
	  <point x="983" y="48"/>
	  <point x="1087" y="169" type="curve"/>
	  <point x="1007" y="255" type="line"/>
	  <point x="916" y="153"/>
	  <point x="818" y="99"/>
	  <point x="686" y="99" type="curve" smooth="yes"/>
	  <point x="416" y="99"/>
	  <point x="246" y="324"/>
	  <point x="246" y="677" type="curve" smooth="yes"/>
	  <point x="246" y="1028"/>
	  <point x="422" y="1247"/>
	  <point x="694" y="1247" type="curve" smooth="yes"/>
	  <point x="810" y="1247"/>
	  <point x="901" y="1195"/>
	  <point x="973" y="1117" type="curve"/>
	  <point x="1053" y="1206" type="line"/>
	  <point x="976" y="1292"/>
	  <point x="852" y="1370"/>
	  <point x="693" y="1370" type="curve" smooth="yes"/>
	  <point x="349" y="1370"/>
	  <point x="102" y="1105"/>
	</contour>
	<contour>
	  <point x="812" y="1673" type="line"/>
	  <point x="668" y="1530" type="line"/>
	  <point x="660" y="1530" type="line"/>
	  <point x="516" y="1673" type="line"/>
	  <point x="402" y="1673" type="line"/>
	  <point x="598" y="1448" type="line"/>
	  <point x="730" y="1448" type="line"/>
	  <point x="927" y="1673" type="line"/>
	</contour>
  </outline>
</glyph>
<glyph name="Dcaron" format="1">
  <advance width="1242"/>
  <unicode hex="010E"/>
  <outline>
	<contour>
	  <point x="184" y="0" type="line"/>
	  <point x="515" y="0" type="line"/>
	  <point x="925" y="0"/>
	  <point x="1136" y="258"/>
	  <point x="1136" y="679" type="curve" smooth="yes"/>
	  <point x="1136" y="1097"/>
	  <point x="925" y="1346"/>
	  <point x="510" y="1346" type="curve" smooth="yes"/>
	  <point x="184" y="1346" type="line"/>
	</contour>
	<contour>
	  <point x="324" y="115" type="line"/>
	  <point x="324" y="1231" type="line"/>
	  <point x="499" y="1231" type="line"/>
	  <point x="835" y="1231"/>
	  <point x="992" y="1022"/>
	  <point x="992" y="679" type="curve" smooth="yes"/>
	  <point x="992" y="334"/>
	  <point x="835" y="115"/>
	  <point x="499" y="115" type="curve" smooth="yes"/>
	</contour>
	<contour>
	  <point x="769" y="1673" type="line"/>
	  <point x="625" y="1530" type="line"/>
	  <point x="617" y="1530" type="line"/>
	  <point x="473" y="1673" type="line"/>
	  <point x="358" y="1673" type="line"/>
	  <point x="555" y="1448" type="line"/>
	  <point x="686" y="1448" type="line"/>
	  <point x="882" y="1673" type="line"/>
	</contour>
  </outline>
</glyph>
<glyph name="dcaron" format="1">
  <advance width="1153"/>
  <unicode hex="010F"/>
  <outline>
	<contour>
	  <point x="100" y="493" type="curve" smooth="yes"/>
	  <point x="100" y="162"/>
	  <point x="261" y="-25"/>
	  <point x="510" y="-25" type="curve" smooth="yes"/>
	  <point x="633" y="-25"/>
	  <point x="740" y="43"/>
	  <point x="819" y="121" type="curve"/>
	  <point x="825" y="121" type="line"/>
	  <point x="837" y="0" type="line"/>
	  <point x="951" y="0" type="line"/>
	  <point x="951" y="1464" type="line"/>
	  <point x="814" y="1464" type="line"/>
	  <point x="814" y="1072" type="line"/>
	  <point x="821" y="898" type="line"/>
	  <point x="728" y="971"/>
	  <point x="651" y="1015"/>
	  <point x="534" y="1015" type="curve" smooth="yes"/>
	  <point x="304" y="1015"/>
	  <point x="100" y="814"/>
	</contour>
	<contour>
	  <point x="243" y="494" type="curve" smooth="yes"/>
	  <point x="243" y="730"/>
	  <point x="379" y="899"/>
	  <point x="554" y="899" type="curve" smooth="yes"/>
	  <point x="641" y="899"/>
	  <point x="722" y="868"/>
	  <point x="814" y="785" type="curve"/>
	  <point x="814" y="239" type="line"/>
	  <point x="723" y="142"/>
	  <point x="636" y="92"/>
	  <point x="537" y="92" type="curve" smooth="yes"/>
	  <point x="349" y="92"/>
	  <point x="243" y="247"/>
	</contour>
	<contour>
	  <point x="1145" y="1122" type="line"/>
	  <point x="1169" y="1441" type="line"/>
	  <point x="1170" y="1551" type="line"/>
	  <point x="1067" y="1551" type="line"/>
	  <point x="1074" y="1122" type="line"/>
	</contour>
  </outline>
</glyph>
<glyph name="Dcroat" format="1">
  <advance width="1280"/>
  <unicode hex="0110"/>
  <outline>
	<contour>
	  <point x="362" y="115" type="line"/>
	  <point x="362" y="666" type="line"/>
	  <point x="684" y="666" type="line"/>
	  <point x="684" y="752" type="line"/>
	  <point x="362" y="752" type="line"/>
	  <point x="362" y="1231" type="line"/>
	  <point x="537" y="1231" type="line"/>
	  <point x="872" y="1231"/>
	  <point x="1031" y="1022"/>
	  <point x="1031" y="679" type="curve" smooth="yes"/>
	  <point x="1031" y="334"/>
	  <point x="872" y="115"/>
	  <point x="537" y="115" type="curve" smooth="yes"/>
	</contour>
	<contour>
	  <point x="222" y="1346" type="line"/>
	  <point x="222" y="752" type="line"/>
	  <point x="64" y="744" type="line"/>
	  <point x="64" y="666" type="line"/>
	  <point x="222" y="666" type="line"/>
	  <point x="222" y="0" type="line"/>
	  <point x="554" y="0" type="line"/>
	  <point x="963" y="0"/>
	  <point x="1175" y="258"/>
	  <point x="1175" y="679" type="curve" smooth="yes"/>
	  <point x="1175" y="1097"/>
	  <point x="963" y="1346"/>
	  <point x="548" y="1346" type="curve" smooth="yes"/>
	</contour>
  </outline>
</glyph>
<glyph name="Emacron" format="1">
  <advance width="1056"/>
  <unicode hex="0112"/>
  <outline>
	<contour>
	  <point x="184" y="0" type="line"/>
	  <point x="964" y="0" type="line"/>
	  <point x="964" y="119" type="line"/>
	  <point x="324" y="119" type="line"/>
	  <point x="324" y="651" type="line"/>
	  <point x="845" y="651" type="line"/>
	  <point x="845" y="770" type="line"/>
	  <point x="324" y="770" type="line"/>
	  <point x="324" y="1228" type="line"/>
	  <point x="943" y="1228" type="line"/>
	  <point x="943" y="1346" type="line"/>
	  <point x="184" y="1346" type="line"/>
	</contour>
	<contour>
	  <point x="329" y="1497" type="line"/>
	  <point x="820" y="1497" type="line"/>
	  <point x="820" y="1596" type="line"/>
	  <point x="329" y="1596" type="line"/>
	</contour>
  </outline>
</glyph>
<glyph name="Ebreve" format="1">
  <advance width="1056"/>
  <unicode hex="0114"/>
  <outline>
	<contour>
	  <point x="184" y="0" type="line"/>
	  <point x="964" y="0" type="line"/>
	  <point x="964" y="119" type="line"/>
	  <point x="324" y="119" type="line"/>
	  <point x="324" y="651" type="line"/>
	  <point x="845" y="651" type="line"/>
	  <point x="845" y="770" type="line"/>
	  <point x="324" y="770" type="line"/>
	  <point x="324" y="1228" type="line"/>
	  <point x="943" y="1228" type="line"/>
	  <point x="943" y="1346" type="line"/>
	  <point x="184" y="1346" type="line"/>
	</contour>
	<contour>
	  <point x="574" y="1452" type="curve" smooth="yes"/>
	  <point x="734" y="1452"/>
	  <point x="806" y="1567"/>
	  <point x="819" y="1673" type="curve"/>
	  <point x="732" y="1673" type="line"/>
	  <point x="720" y="1605"/>
	  <point x="672" y="1536"/>
	  <point x="574" y="1536" type="curve" smooth="yes"/>
	  <point x="477" y="1536"/>
	  <point x="429" y="1605"/>
	  <point x="417" y="1673" type="curve"/>
	  <point x="329" y="1673" type="line"/>
	  <point x="341" y="1567"/>
	  <point x="415" y="1452"/>
	</contour>
  </outline>
</glyph>
<glyph name="ebreve" format="1">
  <advance width="1005"/>
  <unicode hex="0115"/>
  <outline>
	<contour>
	  <point x="99" y="493" type="curve" smooth="yes"/>
	  <point x="99" y="169"/>
	  <point x="307" y="-25"/>
	  <point x="567" y="-25" type="curve" smooth="yes"/>
	  <point x="706" y="-25"/>
	  <point x="805" y="24"/>
	  <point x="887" y="76" type="curve"/>
	  <point x="838" y="169" type="line"/>
	  <point x="764" y="119"/>
	  <point x="682" y="87"/>
	  <point x="583" y="87" type="curve" smooth="yes"/>
	  <point x="379" y="87"/>
	  <point x="244" y="240"/>
	  <point x="235" y="468" type="curve"/>
	  <point x="922" y="468" type="line"/>
	  <point x="926" y="493"/>
	  <point x="927" y="522"/>
	  <point x="927" y="553" type="curve" smooth="yes"/>
	  <point x="927" y="840"/>
	  <point x="784" y="1015"/>
	  <point x="539" y="1015" type="curve" smooth="yes"/>
	  <point x="314" y="1015"/>
	  <point x="99" y="817"/>
	</contour>
	<contour>
	  <point x="234" y="562" type="line"/>
	  <point x="254" y="777"/>
	  <point x="391" y="905"/>
	  <point x="542" y="905" type="curve" smooth="yes"/>
	  <point x="705" y="905"/>
	  <point x="805" y="785"/>
	  <point x="805" y="562" type="curve"/>
	</contour>
	<contour>
	  <point x="539" y="1179" type="curve" smooth="yes"/>
	  <point x="711" y="1179"/>
	  <point x="781" y="1318"/>
	  <point x="792" y="1432" type="curve"/>
	  <point x="702" y="1432" type="line"/>
	  <point x="690" y="1349"/>
	  <point x="640" y="1267"/>
	  <point x="539" y="1267" type="curve" smooth="yes"/>
	  <point x="438" y="1267"/>
	  <point x="386" y="1349"/>
	  <point x="375" y="1432" type="curve"/>
	  <point x="286" y="1432" type="line"/>
	  <point x="297" y="1318"/>
	  <point x="368" y="1179"/>
	</contour>
  </outline>
</glyph>
<glyph name="Edotaccent" format="1">
  <advance width="1056"/>
  <unicode hex="0116"/>
  <outline>
	<contour>
	  <point x="184" y="0" type="line"/>
	  <point x="964" y="0" type="line"/>
	  <point x="964" y="119" type="line"/>
	  <point x="324" y="119" type="line"/>
	  <point x="324" y="651" type="line"/>
	  <point x="845" y="651" type="line"/>
	  <point x="845" y="770" type="line"/>
	  <point x="324" y="770" type="line"/>
	  <point x="324" y="1228" type="line"/>
	  <point x="943" y="1228" type="line"/>
	  <point x="943" y="1346" type="line"/>
	  <point x="184" y="1346" type="line"/>
	</contour>
	<contour>
	  <point x="574" y="1468" type="curve" smooth="yes"/>
	  <point x="631" y="1468"/>
	  <point x="677" y="1508"/>
	  <point x="677" y="1568" type="curve" smooth="yes"/>
	  <point x="677" y="1625"/>
	  <point x="631" y="1664"/>
	  <point x="574" y="1664" type="curve" smooth="yes"/>
	  <point x="517" y="1664"/>
	  <point x="472" y="1625"/>
	  <point x="472" y="1568" type="curve" smooth="yes"/>
	  <point x="472" y="1508"/>
	  <point x="517" y="1468"/>
	</contour>
  </outline>
</glyph>
<glyph name="Ecaron" format="1">
  <advance width="1056"/>
  <unicode hex="011A"/>
  <outline>
	<contour>
	  <point x="184" y="0" type="line"/>
	  <point x="964" y="0" type="line"/>
	  <point x="964" y="119" type="line"/>
	  <point x="324" y="119" type="line"/>
	  <point x="324" y="651" type="line"/>
	  <point x="845" y="651" type="line"/>
	  <point x="845" y="770" type="line"/>
	  <point x="324" y="770" type="line"/>
	  <point x="324" y="1228" type="line"/>
	  <point x="943" y="1228" type="line"/>
	  <point x="943" y="1346" type="line"/>
	  <point x="184" y="1346" type="line"/>
	</contour>
	<contour>
	  <point x="722" y="1673" type="line"/>
	  <point x="578" y="1530" type="line"/>
	  <point x="570" y="1530" type="line"/>
	  <point x="426" y="1673" type="line"/>
	  <point x="312" y="1673" type="line"/>
	  <point x="508" y="1448" type="line"/>
	  <point x="640" y="1448" type="line"/>
	  <point x="837" y="1673" type="line"/>
	</contour>
  </outline>
</glyph>
<glyph name="ecaron" format="1">
  <advance width="1005"/>
  <unicode hex="011B"/>
  <outline>
	<contour>
	  <point x="99" y="493" type="curve" smooth="yes"/>
	  <point x="99" y="169"/>
	  <point x="307" y="-25"/>
	  <point x="567" y="-25" type="curve" smooth="yes"/>
	  <point x="706" y="-25"/>
	  <point x="805" y="24"/>
	  <point x="887" y="76" type="curve"/>
	  <point x="838" y="169" type="line"/>
	  <point x="764" y="119"/>
	  <point x="682" y="87"/>
	  <point x="583" y="87" type="curve" smooth="yes"/>
	  <point x="379" y="87"/>
	  <point x="244" y="240"/>
	  <point x="235" y="468" type="curve"/>
	  <point x="922" y="468" type="line"/>
	  <point x="926" y="493"/>
	  <point x="927" y="522"/>
	  <point x="927" y="553" type="curve" smooth="yes"/>
	  <point x="927" y="840"/>
	  <point x="784" y="1015"/>
	  <point x="539" y="1015" type="curve" smooth="yes"/>
	  <point x="314" y="1015"/>
	  <point x="99" y="817"/>
	</contour>
	<contour>
	  <point x="234" y="562" type="line"/>
	  <point x="254" y="777"/>
	  <point x="391" y="905"/>
	  <point x="542" y="905" type="curve" smooth="yes"/>
	  <point x="705" y="905"/>
	  <point x="805" y="785"/>
	  <point x="805" y="562" type="curve"/>
	</contour>
	<contour>
	  <point x="482" y="1173" type="line"/>
	  <point x="596" y="1173" type="line"/>
	  <point x="790" y="1457" type="line"/>
	  <point x="686" y="1457" type="line"/>
	  <point x="543" y="1263" type="line"/>
	  <point x="534" y="1263" type="line"/>
	  <point x="390" y="1457" type="line"/>
	  <point x="289" y="1457" type="line"/>
	</contour>
  </outline>
</glyph>
<glyph name="Gcircumflex" format="1">
  <advance width="1241"/>
  <unicode hex="011C"/>
  <outline>
	<contour>
	  <point x="102" y="674" type="curve" smooth="yes"/>
	  <point x="102" y="239"/>
	  <point x="346" y="-25"/>
	  <point x="696" y="-25" type="curve" smooth="yes"/>
	  <point x="875" y="-25"/>
	  <point x="1020" y="43"/>
	  <point x="1106" y="130" type="curve"/>
	  <point x="1106" y="683" type="line"/>
	  <point x="678" y="683" type="line"/>
	  <point x="678" y="567" type="line"/>
	  <point x="978" y="567" type="line"/>
	  <point x="978" y="188" type="line"/>
	  <point x="919" y="132"/>
	  <point x="817" y="99"/>
	  <point x="710" y="99" type="curve" smooth="yes"/>
	  <point x="415" y="99"/>
	  <point x="246" y="324"/>
	  <point x="246" y="677" type="curve" smooth="yes"/>
	  <point x="246" y="1028"/>
	  <point x="427" y="1247"/>
	  <point x="714" y="1247" type="curve" smooth="yes"/>
	  <point x="854" y="1247"/>
	  <point x="942" y="1190"/>
	  <point x="1010" y="1117" type="curve"/>
	  <point x="1091" y="1206" type="line"/>
	  <point x="1014" y="1286"/>
	  <point x="896" y="1370"/>
	  <point x="713" y="1370" type="curve" smooth="yes"/>
	  <point x="354" y="1370"/>
	  <point x="102" y="1105"/>
	</contour>
	<contour>
	  <point x="564" y="1448" type="line"/>
	  <point x="707" y="1591" type="line"/>
	  <point x="716" y="1591" type="line"/>
	  <point x="859" y="1448" type="line"/>
	  <point x="974" y="1448" type="line"/>
	  <point x="777" y="1673" type="line"/>
	  <point x="645" y="1673" type="line"/>
	  <point x="449" y="1448" type="line"/>
	</contour>
  </outline>
</glyph>
<glyph name="Gbreve" format="1">
  <advance width="1241"/>
  <unicode hex="011E"/>
  <outline>
	<contour>
	  <point x="102" y="674" type="curve" smooth="yes"/>
	  <point x="102" y="239"/>
	  <point x="346" y="-25"/>
	  <point x="696" y="-25" type="curve" smooth="yes"/>
	  <point x="875" y="-25"/>
	  <point x="1020" y="43"/>
	  <point x="1106" y="130" type="curve"/>
	  <point x="1106" y="683" type="line"/>
	  <point x="678" y="683" type="line"/>
	  <point x="678" y="567" type="line"/>
	  <point x="978" y="567" type="line"/>
	  <point x="978" y="188" type="line"/>
	  <point x="919" y="132"/>
	  <point x="817" y="99"/>
	  <point x="710" y="99" type="curve" smooth="yes"/>
	  <point x="415" y="99"/>
	  <point x="246" y="324"/>
	  <point x="246" y="677" type="curve" smooth="yes"/>
	  <point x="246" y="1028"/>
	  <point x="427" y="1247"/>
	  <point x="714" y="1247" type="curve" smooth="yes"/>
	  <point x="854" y="1247"/>
	  <point x="942" y="1190"/>
	  <point x="1010" y="1117" type="curve"/>
	  <point x="1091" y="1206" type="line"/>
	  <point x="1014" y="1286"/>
	  <point x="896" y="1370"/>
	  <point x="713" y="1370" type="curve" smooth="yes"/>
	  <point x="354" y="1370"/>
	  <point x="102" y="1105"/>
	</contour>
	<contour>
	  <point x="711" y="1452" type="curve" smooth="yes"/>
	  <point x="872" y="1452"/>
	  <point x="943" y="1567"/>
	  <point x="957" y="1673" type="curve"/>
	  <point x="869" y="1673" type="line"/>
	  <point x="857" y="1605"/>
	  <point x="809" y="1536"/>
	  <point x="711" y="1536" type="curve" smooth="yes"/>
	  <point x="614" y="1536"/>
	  <point x="567" y="1605"/>
	  <point x="554" y="1673" type="curve"/>
	  <point x="466" y="1673" type="line"/>
	  <point x="480" y="1567"/>
	  <point x="552" y="1452"/>
	</contour>
  </outline>
</glyph>
<glyph name="Gdotaccent" format="1">
  <advance width="1241"/>
  <unicode hex="0120"/>
  <outline>
	<contour>
	  <point x="102" y="674" type="curve" smooth="yes"/>
	  <point x="102" y="239"/>
	  <point x="346" y="-25"/>
	  <point x="696" y="-25" type="curve" smooth="yes"/>
	  <point x="875" y="-25"/>
	  <point x="1020" y="43"/>
	  <point x="1106" y="130" type="curve"/>
	  <point x="1106" y="683" type="line"/>
	  <point x="678" y="683" type="line"/>
	  <point x="678" y="567" type="line"/>
	  <point x="978" y="567" type="line"/>
	  <point x="978" y="188" type="line"/>
	  <point x="919" y="132"/>
	  <point x="817" y="99"/>
	  <point x="710" y="99" type="curve" smooth="yes"/>
	  <point x="415" y="99"/>
	  <point x="246" y="324"/>
	  <point x="246" y="677" type="curve" smooth="yes"/>
	  <point x="246" y="1028"/>
	  <point x="427" y="1247"/>
	  <point x="714" y="1247" type="curve" smooth="yes"/>
	  <point x="854" y="1247"/>
	  <point x="942" y="1190"/>
	  <point x="1010" y="1117" type="curve"/>
	  <point x="1091" y="1206" type="line"/>
	  <point x="1014" y="1286"/>
	  <point x="896" y="1370"/>
	  <point x="713" y="1370" type="curve" smooth="yes"/>
	  <point x="354" y="1370"/>
	  <point x="102" y="1105"/>
	</contour>
	<contour>
	  <point x="711" y="1468" type="curve" smooth="yes"/>
	  <point x="768" y="1468"/>
	  <point x="815" y="1508"/>
	  <point x="815" y="1568" type="curve" smooth="yes"/>
	  <point x="815" y="1625"/>
	  <point x="768" y="1664"/>
	  <point x="711" y="1664" type="curve" smooth="yes"/>
	  <point x="654" y="1664"/>
	  <point x="609" y="1625"/>
	  <point x="609" y="1568" type="curve" smooth="yes"/>
	  <point x="609" y="1508"/>
	  <point x="654" y="1468"/>
	</contour>
  </outline>
</glyph>
<glyph name="uni0122" format="1">
  <advance width="1241"/>
  <unicode hex="0122"/>
  <outline>
	<contour>
	  <point x="102" y="674" type="curve" smooth="yes"/>
	  <point x="102" y="239"/>
	  <point x="346" y="-25"/>
	  <point x="696" y="-25" type="curve" smooth="yes"/>
	  <point x="875" y="-25"/>
	  <point x="1020" y="43"/>
	  <point x="1106" y="130" type="curve"/>
	  <point x="1106" y="683" type="line"/>
	  <point x="678" y="683" type="line"/>
	  <point x="678" y="567" type="line"/>
	  <point x="978" y="567" type="line"/>
	  <point x="978" y="188" type="line"/>
	  <point x="919" y="132"/>
	  <point x="817" y="99"/>
	  <point x="710" y="99" type="curve" smooth="yes"/>
	  <point x="415" y="99"/>
	  <point x="246" y="324"/>
	  <point x="246" y="677" type="curve" smooth="yes"/>
	  <point x="246" y="1028"/>
	  <point x="427" y="1247"/>
	  <point x="714" y="1247" type="curve" smooth="yes"/>
	  <point x="854" y="1247"/>
	  <point x="942" y="1190"/>
	  <point x="1010" y="1117" type="curve"/>
	  <point x="1091" y="1206" type="line"/>
	  <point x="1014" y="1286"/>
	  <point x="896" y="1370"/>
	  <point x="713" y="1370" type="curve" smooth="yes"/>
	  <point x="354" y="1370"/>
	  <point x="102" y="1105"/>
	</contour>
	<contour>
	  <point x="644" y="-100" type="curve"/>
	  <point x="612" y="-171" type="line"/>
	  <point x="670" y="-184"/>
	  <point x="721" y="-208"/>
	  <point x="721" y="-265" type="curve" smooth="yes"/>
	  <point x="721" y="-319"/>
	  <point x="644" y="-348"/>
	  <point x="536" y="-363" type="curve"/>
	  <point x="551" y="-436" type="line"/>
	  <point x="697" y="-423"/>
	  <point x="831" y="-369"/>
	  <point x="831" y="-255" type="curve" smooth="yes"/>
	  <point x="831" y="-166"/>
	  <point x="771" y="-122"/>
	</contour>
  </outline>
</glyph>
<glyph name="Hcircumflex" format="1">
  <advance width="1312"/>
  <unicode hex="0124"/>
  <outline>
	<contour>
	  <point x="184" y="0" type="line"/>
	  <point x="324" y="0" type="line"/>
	  <point x="324" y="651" type="line"/>
	  <point x="989" y="651" type="line"/>
	  <point x="989" y="0" type="line"/>
	  <point x="1127" y="0" type="line"/>
	  <point x="1127" y="1346" type="line"/>
	  <point x="989" y="1346" type="line"/>
	  <point x="989" y="771" type="line"/>
	  <point x="324" y="771" type="line"/>
	  <point x="324" y="1346" type="line"/>
	  <point x="184" y="1346" type="line"/>
	</contour>
	<contour>
	  <point x="507" y="1448" type="line"/>
	  <point x="651" y="1591" type="line"/>
	  <point x="660" y="1591" type="line"/>
	  <point x="804" y="1448" type="line"/>
	  <point x="918" y="1448" type="line"/>
	  <point x="721" y="1673" type="line"/>
	  <point x="590" y="1673" type="line"/>
	  <point x="393" y="1448" type="line"/>
	</contour>
  </outline>
</glyph>
<glyph name="Itilde" format="1">
  <advance width="507"/>
  <unicode hex="0128"/>
  <outline>
	<contour>
	  <point x="184" y="0" type="line"/>
	  <point x="324" y="0" type="line"/>
	  <point x="324" y="1346" type="line"/>
	  <point x="184" y="1346" type="line"/>
	</contour>
	<contour>
	  <point x="375" y="1460" type="curve" smooth="yes"/>
	  <point x="471" y="1460"/>
	  <point x="528" y="1557"/>
	  <point x="538" y="1668" type="curve"/>
	  <point x="458" y="1668" type="line"/>
	  <point x="448" y="1600"/>
	  <point x="417" y="1558"/>
	  <point x="374" y="1558" type="curve" smooth="yes"/>
	  <point x="297" y="1558"/>
	  <point x="239" y="1668"/>
	  <point x="132" y="1668" type="curve" smooth="yes"/>
	  <point x="36" y="1668"/>
	  <point x="-20" y="1573"/>
	  <point x="-31" y="1460" type="curve"/>
	  <point x="49" y="1460" type="line"/>
	  <point x="59" y="1530"/>
	  <point x="92" y="1571"/>
	  <point x="132" y="1571" type="curve" smooth="yes"/>
	  <point x="212" y="1571"/>
	  <point x="268" y="1460"/>
	</contour>
  </outline>
</glyph>
<glyph name="itilde" format="1">
  <advance width="490"/>
  <unicode hex="0129"/>
  <outline>
	<contour>
	  <point x="176" y="0" type="line"/>
	  <point x="313" y="0" type="line"/>
	  <point x="313" y="990" type="line"/>
	  <point x="176" y="990" type="line"/>
	</contour>
	<contour>
	  <point x="-28" y="1188" type="curve"/>
	  <point x="55" y="1188" type="line"/>
	  <point x="65" y="1258"/>
	  <point x="88" y="1295"/>
	  <point x="130" y="1295" type="curve" smooth="yes"/>
	  <point x="201" y="1295"/>
	  <point x="260" y="1188"/>
	  <point x="361" y="1188" type="curve" smooth="yes"/>
	  <point x="460" y="1188"/>
	  <point x="508" y="1282"/>
	  <point x="516" y="1390" type="curve"/>
	  <point x="435" y="1390" type="line"/>
	  <point x="425" y="1321"/>
	  <point x="402" y="1282"/>
	  <point x="359" y="1282" type="curve" smooth="yes"/>
	  <point x="292" y="1282"/>
	  <point x="231" y="1390"/>
	  <point x="128" y="1390" type="curve" smooth="yes"/>
	  <point x="30" y="1390"/>
	  <point x="-19" y="1296"/>
	</contour>
  </outline>
</glyph>
<glyph name="Imacron" format="1">
  <advance width="507"/>
  <unicode hex="012A"/>
  <outline>
	<contour>
	  <point x="184" y="0" type="line"/>
	  <point x="324" y="0" type="line"/>
	  <point x="324" y="1346" type="line"/>
	  <point x="184" y="1346" type="line"/>
	</contour>
	<contour>
	  <point x="8" y="1497" type="line"/>
	  <point x="499" y="1497" type="line"/>
	  <point x="499" y="1596" type="line"/>
	  <point x="8" y="1596" type="line"/>
	</contour>
  </outline>
</glyph>
<glyph name="imacron" format="1">
  <advance width="490"/>
  <unicode hex="012B"/>
  <outline>
	<contour>
	  <point x="176" y="0" type="line"/>
	  <point x="313" y="0" type="line"/>
	  <point x="313" y="990" type="line"/>
	  <point x="176" y="990" type="line"/>
	</contour>
	<contour>
	  <point x="2" y="1235" type="line"/>
	  <point x="489" y="1235" type="line"/>
	  <point x="489" y="1334" type="line"/>
	  <point x="2" y="1334" type="line"/>
	</contour>
  </outline>
</glyph>
<glyph name="uni012C" format="1">
  <advance width="507"/>
  <unicode hex="012C"/>
  <outline>
	<contour>
	  <point x="184" y="0" type="line"/>
	  <point x="324" y="0" type="line"/>
	  <point x="324" y="1346" type="line"/>
	  <point x="184" y="1346" type="line"/>
	</contour>
	<contour>
	  <point x="254" y="1452" type="curve" smooth="yes"/>
	  <point x="414" y="1452"/>
	  <point x="485" y="1567"/>
	  <point x="499" y="1673" type="curve"/>
	  <point x="412" y="1673" type="line"/>
	  <point x="399" y="1605"/>
	  <point x="351" y="1536"/>
	  <point x="254" y="1536" type="curve" smooth="yes"/>
	  <point x="156" y="1536"/>
	  <point x="109" y="1605"/>
	  <point x="97" y="1673" type="curve"/>
	  <point x="9" y="1673" type="line"/>
	  <point x="22" y="1567"/>
	  <point x="93" y="1452"/>
	</contour>
  </outline>
</glyph>
<glyph name="uni012D" format="1">
  <advance width="490"/>
  <unicode hex="012D"/>
  <outline>
	<contour>
	  <point x="176" y="0" type="line"/>
	  <point x="313" y="0" type="line"/>
	  <point x="313" y="990" type="line"/>
	  <point x="176" y="990" type="line"/>
	</contour>
	<contour>
	  <point x="247" y="1179" type="curve" smooth="yes"/>
	  <point x="419" y="1179"/>
	  <point x="489" y="1318"/>
	  <point x="498" y="1432" type="curve"/>
	  <point x="410" y="1432" type="line"/>
	  <point x="398" y="1349"/>
	  <point x="348" y="1267"/>
	  <point x="247" y="1267" type="curve" smooth="yes"/>
	  <point x="145" y="1267"/>
	  <point x="95" y="1349"/>
	  <point x="82" y="1432" type="curve"/>
	  <point x="-7" y="1432" type="line"/>
	  <point x="4" y="1318"/>
	  <point x="75" y="1179"/>
	</contour>
  </outline>
</glyph>
<glyph name="Idotaccent" format="1">
  <advance width="507"/>
  <unicode hex="0130"/>
  <outline>
	<contour>
	  <point x="184" y="0" type="line"/>
	  <point x="324" y="0" type="line"/>
	  <point x="324" y="1346" type="line"/>
	  <point x="184" y="1346" type="line"/>
	</contour>
	<contour>
	  <point x="254" y="1468" type="curve" smooth="yes"/>
	  <point x="311" y="1468"/>
	  <point x="357" y="1508"/>
	  <point x="357" y="1568" type="curve" smooth="yes"/>
	  <point x="357" y="1625"/>
	  <point x="311" y="1664"/>
	  <point x="254" y="1664" type="curve" smooth="yes"/>
	  <point x="197" y="1664"/>
	  <point x="151" y="1625"/>
	  <point x="151" y="1568" type="curve" smooth="yes"/>
	  <point x="151" y="1508"/>
	  <point x="197" y="1468"/>
	</contour>
  </outline>
</glyph>
<glyph name="dotlessi" format="1">
  <advance width="490"/>
  <unicode hex="0131"/>
  <outline>
	<contour>
	  <point x="176" y="0" type="line"/>
	  <point x="313" y="0" type="line"/>
	  <point x="313" y="990" type="line"/>
	  <point x="176" y="990" type="line"/>
	</contour>
	<contour>
	  <point x="298" y="0" type="move" name="mark0"/>
	</contour>
  </outline>
</glyph>
<glyph name="Jcircumflex" format="1">
  <advance width="955"/>
  <unicode hex="0134"/>
  <outline>
	<contour>
	  <point x="66" y="183" type="line"/>
	  <point x="140" y="48"/>
	  <point x="258" y="-25"/>
	  <point x="421" y="-25" type="curve" smooth="yes"/>
	  <point x="676" y="-25"/>
	  <point x="777" y="158"/>
	  <point x="777" y="384" type="curve" smooth="yes"/>
	  <point x="777" y="1346" type="line"/>
	  <point x="638" y="1346" type="line"/>
	  <point x="638" y="398" type="line"/>
	  <point x="638" y="187"/>
	  <point x="563" y="99"/>
	  <point x="412" y="99" type="curve" smooth="yes"/>
	  <point x="308" y="99"/>
	  <point x="231" y="144"/>
	  <point x="166" y="253" type="curve"/>
	</contour>
	<contour>
	  <point x="551" y="1448" type="line"/>
	  <point x="695" y="1591" type="line"/>
	  <point x="704" y="1591" type="line"/>
	  <point x="848" y="1448" type="line"/>
	  <point x="962" y="1448" type="line"/>
	  <point x="765" y="1673" type="line"/>
	  <point x="634" y="1673" type="line"/>
	  <point x="437" y="1448" type="line"/>
	</contour>
  </outline>
</glyph>
<glyph name="jcircumflex" format="1">
  <advance width="491"/>
  <unicode hex="0135"/>
  <outline>
	<contour>
	  <point x="177" y="-139" type="line"/>
	  <point x="177" y="-261"/>
	  <point x="154" y="-341"/>
	  <point x="51" y="-341" type="curve" smooth="yes"/>
	  <point x="14" y="-341"/>
	  <point x="-22" y="-332"/>
	  <point x="-46" y="-324" type="curve"/>
	  <point x="-76" y="-429" type="line"/>
	  <point x="-43" y="-442"/>
	  <point x="7" y="-454"/>
	  <point x="63" y="-454" type="curve" smooth="yes"/>
	  <point x="242" y="-454"/>
	  <point x="315" y="-340"/>
	  <point x="315" y="-141" type="curve" smooth="yes"/>
	  <point x="315" y="990" type="line"/>
	  <point x="177" y="990" type="line"/>
	</contour>
	<contour>
	  <point x="-5" y="1173" type="line"/>
	  <point x="99" y="1173" type="line"/>
	  <point x="242" y="1366" type="line"/>
	  <point x="251" y="1366" type="line"/>
	  <point x="394" y="1173" type="line"/>
	  <point x="496" y="1173" type="line"/>
	  <point x="303" y="1457" type="line"/>
	  <point x="189" y="1457" type="line"/>
	</contour>
  </outline>
</glyph>
<glyph name="uni0136" format="1">
  <advance width="1156"/>
  <unicode hex="0136"/>
  <outline>
	<contour>
	  <point x="184" y="0" type="line"/>
	  <point x="324" y="0" type="line"/>
	  <point x="324" y="442" type="line"/>
	  <point x="572" y="731" type="line"/>
	  <point x="991" y="0" type="line"/>
	  <point x="1148" y="0" type="line"/>
	  <point x="661" y="839" type="line"/>
	  <point x="1086" y="1346" type="line"/>
	  <point x="926" y="1346" type="line"/>
	  <point x="328" y="641" type="line"/>
	  <point x="324" y="641" type="line"/>
	  <point x="324" y="1346" type="line"/>
	  <point x="184" y="1346" type="line"/>
	</contour>
	<contour>
	  <point x="601" y="-100" type="curve"/>
	  <point x="569" y="-171" type="line"/>
	  <point x="628" y="-184"/>
	  <point x="678" y="-208"/>
	  <point x="678" y="-265" type="curve" smooth="yes"/>
	  <point x="678" y="-319"/>
	  <point x="603" y="-348"/>
	  <point x="494" y="-363" type="curve"/>
	  <point x="509" y="-436" type="line"/>
	  <point x="654" y="-423"/>
	  <point x="789" y="-369"/>
	  <point x="789" y="-255" type="curve" smooth="yes"/>
	  <point x="789" y="-166"/>
	  <point x="730" y="-122"/>
	</contour>
  </outline>
</glyph>
<glyph name="uni0137" format="1">
  <advance width="988"/>
  <unicode hex="0137"/>
  <outline>
	<contour>
	  <point x="176" y="0" type="line"/>
	  <point x="311" y="0" type="line"/>
	  <point x="311" y="264" type="line"/>
	  <point x="512" y="498" type="line"/>
	  <point x="817" y="0" type="line"/>
	  <point x="967" y="0" type="line"/>
	  <point x="590" y="595" type="line"/>
	  <point x="918" y="990" type="line"/>
	  <point x="766" y="990" type="line"/>
	  <point x="317" y="437" type="line"/>
	  <point x="311" y="437" type="line"/>
	  <point x="311" y="1464" type="line"/>
	  <point x="176" y="1464" type="line"/>
	</contour>
	<contour>
	  <point x="487" y="-100" type="curve"/>
	  <point x="456" y="-171" type="line"/>
	  <point x="514" y="-184"/>
	  <point x="564" y="-208"/>
	  <point x="564" y="-265" type="curve" smooth="yes"/>
	  <point x="564" y="-319"/>
	  <point x="488" y="-348"/>
	  <point x="379" y="-363" type="curve"/>
	  <point x="395" y="-436" type="line"/>
	  <point x="539" y="-423"/>
	  <point x="674" y="-369"/>
	  <point x="674" y="-255" type="curve" smooth="yes"/>
	  <point x="674" y="-166"/>
	  <point x="616" y="-122"/>
	</contour>
  </outline>
</glyph>
<glyph name="Lacute" format="1">
  <advance width="967"/>
  <unicode hex="0139"/>
  <outline>
	<contour>
	  <point x="184" y="0" type="line"/>
	  <point x="924" y="0" type="line"/>
	  <point x="924" y="119" type="line"/>
	  <point x="324" y="119" type="line"/>
	  <point x="324" y="1346" type="line"/>
	  <point x="184" y="1346" type="line"/>
	</contour>
	<contour>
	  <point x="513" y="1673" type="line"/>
	  <point x="350" y="1673" type="line"/>
	  <point x="167" y="1448" type="line"/>
	  <point x="284" y="1448" type="line"/>
	</contour>
  </outline>
</glyph>
<glyph name="lacute" format="1">
  <advance width="507"/>
  <unicode hex="013A"/>
  <outline>
	<contour>
	  <point x="176" y="172" type="line"/>
	  <point x="176" y="43"/>
	  <point x="223" y="-25"/>
	  <point x="331" y="-25" type="curve" smooth="yes"/>
	  <point x="369" y="-25"/>
	  <point x="394" y="-19"/>
	  <point x="415" y="-10" type="curve"/>
	  <point x="395" y="94" type="line"/>
	  <point x="375" y="90"/>
	  <point x="367" y="90"/>
	  <point x="358" y="90" type="curve" smooth="yes"/>
	  <point x="333" y="90"/>
	  <point x="313" y="111"/>
	  <point x="313" y="160" type="curve" smooth="yes"/>
	  <point x="313" y="1464" type="line"/>
	  <point x="176" y="1464" type="line"/>
	</contour>
	<contour>
	  <point x="487" y="1779" type="line"/>
	  <point x="324" y="1779" type="line"/>
	  <point x="140" y="1555" type="line"/>
	  <point x="258" y="1555" type="line"/>
	</contour>
  </outline>
</glyph>
<glyph name="uni013B" format="1">
  <advance width="967"/>
  <unicode hex="013B"/>
  <outline>
	<contour>
	  <point x="184" y="0" type="line"/>
	  <point x="924" y="0" type="line"/>
	  <point x="924" y="119" type="line"/>
	  <point x="324" y="119" type="line"/>
	  <point x="324" y="1346" type="line"/>
	  <point x="184" y="1346" type="line"/>
	</contour>
	<contour>
	  <point x="525" y="-100" type="curve"/>
	  <point x="493" y="-171" type="line"/>
	  <point x="552" y="-184"/>
	  <point x="602" y="-208"/>
	  <point x="602" y="-265" type="curve" smooth="yes"/>
	  <point x="602" y="-319"/>
	  <point x="527" y="-348"/>
	  <point x="419" y="-363" type="curve"/>
	  <point x="433" y="-436" type="line"/>
	  <point x="578" y="-423"/>
	  <point x="713" y="-369"/>
	  <point x="713" y="-255" type="curve" smooth="yes"/>
	  <point x="713" y="-166"/>
	  <point x="654" y="-122"/>
	</contour>
  </outline>
</glyph>
<glyph name="uni013C" format="1">
  <advance width="507"/>
  <unicode hex="013C"/>
  <outline>
	<contour>
	  <point x="176" y="172" type="line"/>
	  <point x="176" y="43"/>
	  <point x="223" y="-25"/>
	  <point x="331" y="-25" type="curve" smooth="yes"/>
	  <point x="369" y="-25"/>
	  <point x="394" y="-19"/>
	  <point x="415" y="-10" type="curve"/>
	  <point x="395" y="94" type="line"/>
	  <point x="375" y="90"/>
	  <point x="367" y="90"/>
	  <point x="358" y="90" type="curve" smooth="yes"/>
	  <point x="333" y="90"/>
	  <point x="313" y="111"/>
	  <point x="313" y="160" type="curve" smooth="yes"/>
	  <point x="313" y="1464" type="line"/>
	  <point x="176" y="1464" type="line"/>
	</contour>
	<contour>
	  <point x="282" y="-100" type="curve"/>
	  <point x="250" y="-171" type="line"/>
	  <point x="309" y="-184"/>
	  <point x="358" y="-208"/>
	  <point x="358" y="-265" type="curve" smooth="yes"/>
	  <point x="358" y="-319"/>
	  <point x="284" y="-348"/>
	  <point x="173" y="-363" type="curve"/>
	  <point x="190" y="-436" type="line"/>
	  <point x="334" y="-423"/>
	  <point x="469" y="-369"/>
	  <point x="469" y="-255" type="curve" smooth="yes"/>
	  <point x="469" y="-166"/>
	  <point x="410" y="-122"/>
	</contour>
  </outline>
</glyph>
<glyph name="Lcaron" format="1">
  <advance width="967"/>
  <unicode hex="013D"/>
  <outline>
	<contour>
	  <point x="184" y="0" type="line"/>
	  <point x="924" y="0" type="line"/>
	  <point x="924" y="119" type="line"/>
	  <point x="324" y="119" type="line"/>
	  <point x="324" y="1346" type="line"/>
	  <point x="184" y="1346" type="line"/>
	</contour>
	<contour>
	  <point x="739" y="1055" type="line"/>
	  <point x="762" y="1373" type="line"/>
	  <point x="764" y="1485" type="line"/>
	  <point x="661" y="1485" type="line"/>
	  <point x="668" y="1055" type="line"/>
	</contour>
  </outline>
</glyph>
<glyph name="Ldot" format="1">
  <advance width="967"/>
  <unicode hex="013F"/>
  <outline>
	<contour>
	  <point x="184" y="0" type="line"/>
	  <point x="924" y="0" type="line"/>
	  <point x="924" y="119" type="line"/>
	  <point x="324" y="119" type="line"/>
	  <point x="324" y="1346" type="line"/>
	  <point x="184" y="1346" type="line"/>
	</contour>
	<contour>
	  <point x="642" y="664" type="curve" smooth="yes"/>
	  <point x="642" y="596"/>
	  <point x="692" y="551"/>
	  <point x="749" y="551" type="curve" smooth="yes"/>
	  <point x="808" y="551"/>
	  <point x="857" y="596"/>
	  <point x="857" y="664" type="curve" smooth="yes"/>
	  <point x="857" y="734"/>
	  <point x="808" y="779"/>
	  <point x="749" y="779" type="curve" smooth="yes"/>
	  <point x="692" y="779"/>
	  <point x="642" y="734"/>
	</contour>
  </outline>
</glyph>
<glyph name="ldot" format="1">
  <advance width="696"/>
  <unicode hex="0140"/>
  <outline>
	<contour>
	  <point x="176" y="172" type="line"/>
	  <point x="176" y="43"/>
	  <point x="223" y="-25"/>
	  <point x="331" y="-25" type="curve" smooth="yes"/>
	  <point x="369" y="-25"/>
	  <point x="394" y="-19"/>
	  <point x="415" y="-10" type="curve"/>
	  <point x="395" y="94" type="line"/>
	  <point x="375" y="90"/>
	  <point x="367" y="90"/>
	  <point x="358" y="90" type="curve" smooth="yes"/>
	  <point x="333" y="90"/>
	  <point x="313" y="111"/>
	  <point x="313" y="160" type="curve" smooth="yes"/>
	  <point x="313" y="1464" type="line"/>
	  <point x="176" y="1464" type="line"/>
	</contour>
	<contour>
	  <point x="484" y="664" type="curve" smooth="yes"/>
	  <point x="484" y="596"/>
	  <point x="533" y="551"/>
	  <point x="591" y="551" type="curve" smooth="yes"/>
	  <point x="649" y="551"/>
	  <point x="699" y="596"/>
	  <point x="699" y="664" type="curve" smooth="yes"/>
	  <point x="699" y="734"/>
	  <point x="649" y="779"/>
	  <point x="591" y="779" type="curve" smooth="yes"/>
	  <point x="533" y="779"/>
	  <point x="484" y="734"/>
	</contour>
  </outline>
</glyph>
<glyph name="nacute" format="1">
  <advance width="1108"/>
  <unicode hex="0144"/>
  <outline>
	<contour>
	  <point x="176" y="0" type="line"/>
	  <point x="313" y="0" type="line"/>
	  <point x="313" y="729" type="line"/>
	  <point x="421" y="839"/>
	  <point x="497" y="895"/>
	  <point x="605" y="895" type="curve" smooth="yes"/>
	  <point x="748" y="895"/>
	  <point x="808" y="808"/>
	  <point x="808" y="612" type="curve" smooth="yes"/>
	  <point x="808" y="0" type="line"/>
	  <point x="944" y="0" type="line"/>
	  <point x="944" y="631" type="line"/>
	  <point x="944" y="885"/>
	  <point x="850" y="1015"/>
	  <point x="644" y="1015" type="curve" smooth="yes"/>
	  <point x="507" y="1015"/>
	  <point x="405" y="940"/>
	  <point x="309" y="843" type="curve"/>
	  <point x="302" y="843" type="line"/>
	  <point x="290" y="990" type="line"/>
	  <point x="176" y="990" type="line"/>
	</contour>
	<contour>
	  <point x="798" y="1457" type="line"/>
	  <point x="650" y="1457" type="line"/>
	  <point x="465" y="1173" type="line"/>
	  <point x="573" y="1173" type="line"/>
	</contour>
  </outline>
</glyph>
<glyph name="uni0145" format="1">
  <advance width="1304"/>
  <unicode hex="0145"/>
  <outline>
	<contour>
	  <point x="184" y="0" type="line"/>
	  <point x="316" y="0" type="line"/>
	  <point x="316" y="758" type="line"/>
	  <point x="316" y="895"/>
	  <point x="306" y="1030"/>
	  <point x="298" y="1163" type="curve"/>
	  <point x="307" y="1163" type="line"/>
	  <point x="455" y="889" type="line"/>
	  <point x="974" y="0" type="line"/>
	  <point x="1119" y="0" type="line"/>
	  <point x="1119" y="1346" type="line"/>
	  <point x="987" y="1346" type="line"/>
	  <point x="987" y="597" type="line"/>
	  <point x="987" y="460"/>
	  <point x="998" y="317"/>
	  <point x="1005" y="183" type="curve"/>
	  <point x="997" y="183" type="line"/>
	  <point x="849" y="458" type="line"/>
	  <point x="328" y="1346" type="line"/>
	  <point x="184" y="1346" type="line"/>
	</contour>
	<contour>
	  <point x="601" y="-100" type="curve"/>
	  <point x="568" y="-171" type="line"/>
	  <point x="628" y="-184"/>
	  <point x="677" y="-208"/>
	  <point x="677" y="-265" type="curve" smooth="yes"/>
	  <point x="677" y="-319"/>
	  <point x="602" y="-348"/>
	  <point x="494" y="-363" type="curve"/>
	  <point x="509" y="-436" type="line"/>
	  <point x="654" y="-423"/>
	  <point x="788" y="-369"/>
	  <point x="788" y="-255" type="curve" smooth="yes"/>
	  <point x="788" y="-166"/>
	  <point x="729" y="-122"/>
	</contour>
  </outline>
</glyph>
<glyph name="uni0146" format="1">
  <advance width="1108"/>
  <unicode hex="0146"/>
  <outline>
	<contour>
	  <point x="176" y="0" type="line"/>
	  <point x="313" y="0" type="line"/>
	  <point x="313" y="729" type="line"/>
	  <point x="421" y="839"/>
	  <point x="497" y="895"/>
	  <point x="605" y="895" type="curve" smooth="yes"/>
	  <point x="748" y="895"/>
	  <point x="808" y="808"/>
	  <point x="808" y="612" type="curve" smooth="yes"/>
	  <point x="808" y="0" type="line"/>
	  <point x="944" y="0" type="line"/>
	  <point x="944" y="631" type="line"/>
	  <point x="944" y="885"/>
	  <point x="850" y="1015"/>
	  <point x="644" y="1015" type="curve" smooth="yes"/>
	  <point x="507" y="1015"/>
	  <point x="405" y="940"/>
	  <point x="309" y="843" type="curve"/>
	  <point x="302" y="843" type="line"/>
	  <point x="290" y="990" type="line"/>
	  <point x="176" y="990" type="line"/>
	</contour>
	<contour>
	  <point x="509" y="-100" type="curve"/>
	  <point x="477" y="-171" type="line"/>
	  <point x="534" y="-184"/>
	  <point x="586" y="-208"/>
	  <point x="586" y="-265" type="curve" smooth="yes"/>
	  <point x="586" y="-319"/>
	  <point x="511" y="-348"/>
	  <point x="401" y="-363" type="curve"/>
	  <point x="416" y="-436" type="line"/>
	  <point x="562" y="-423"/>
	  <point x="697" y="-369"/>
	  <point x="697" y="-255" type="curve" smooth="yes"/>
	  <point x="697" y="-166"/>
	  <point x="635" y="-122"/>
	</contour>
  </outline>
</glyph>
<glyph name="Ncaron" format="1">
  <advance width="1304"/>
  <unicode hex="0147"/>
  <outline>
	<contour>
	  <point x="184" y="0" type="line"/>
	  <point x="316" y="0" type="line"/>
	  <point x="316" y="758" type="line"/>
	  <point x="316" y="895"/>
	  <point x="306" y="1030"/>
	  <point x="298" y="1163" type="curve"/>
	  <point x="307" y="1163" type="line"/>
	  <point x="455" y="889" type="line"/>
	  <point x="974" y="0" type="line"/>
	  <point x="1119" y="0" type="line"/>
	  <point x="1119" y="1346" type="line"/>
	  <point x="987" y="1346" type="line"/>
	  <point x="987" y="597" type="line"/>
	  <point x="987" y="460"/>
	  <point x="998" y="317"/>
	  <point x="1005" y="183" type="curve"/>
	  <point x="997" y="183" type="line"/>
	  <point x="849" y="458" type="line"/>
	  <point x="328" y="1346" type="line"/>
	  <point x="184" y="1346" type="line"/>
	</contour>
	<contour>
	  <point x="807" y="1673" type="line"/>
	  <point x="663" y="1530" type="line"/>
	  <point x="655" y="1530" type="line"/>
	  <point x="511" y="1673" type="line"/>
	  <point x="397" y="1673" type="line"/>
	  <point x="593" y="1448" type="line"/>
	  <point x="725" y="1448" type="line"/>
	  <point x="922" y="1673" type="line"/>
	</contour>
  </outline>
</glyph>
<glyph name="ncaron" format="1">
  <advance width="1108"/>
  <unicode hex="0148"/>
  <outline>
	<contour>
	  <point x="176" y="0" type="line"/>
	  <point x="313" y="0" type="line"/>
	  <point x="313" y="729" type="line"/>
	  <point x="421" y="839"/>
	  <point x="497" y="895"/>
	  <point x="605" y="895" type="curve" smooth="yes"/>
	  <point x="748" y="895"/>
	  <point x="808" y="808"/>
	  <point x="808" y="612" type="curve" smooth="yes"/>
	  <point x="808" y="0" type="line"/>
	  <point x="944" y="0" type="line"/>
	  <point x="944" y="631" type="line"/>
	  <point x="944" y="885"/>
	  <point x="850" y="1015"/>
	  <point x="644" y="1015" type="curve" smooth="yes"/>
	  <point x="507" y="1015"/>
	  <point x="405" y="940"/>
	  <point x="309" y="843" type="curve"/>
	  <point x="302" y="843" type="line"/>
	  <point x="290" y="990" type="line"/>
	  <point x="176" y="990" type="line"/>
	</contour>
	<contour>
	  <point x="533" y="1173" type="line"/>
	  <point x="647" y="1173" type="line"/>
	  <point x="840" y="1457" type="line"/>
	  <point x="738" y="1457" type="line"/>
	  <point x="595" y="1263" type="line"/>
	  <point x="586" y="1263" type="line"/>
	  <point x="443" y="1457" type="line"/>
	  <point x="339" y="1457" type="line"/>
	</contour>
  </outline>
</glyph>
<glyph name="napostrophe" format="1">
  <advance width="1548"/>
  <unicode hex="0149"/>
  <outline>
	<contour>
	  <point x="168" y="922" type="line"/>
	  <point x="296" y="999"/>
	  <point x="369" y="1110"/>
	  <point x="369" y="1266" type="curve" smooth="yes"/>
	  <point x="369" y="1372"/>
	  <point x="325" y="1433"/>
	  <point x="255" y="1433" type="curve" smooth="yes"/>
	  <point x="199" y="1433"/>
	  <point x="159" y="1395"/>
	  <point x="159" y="1331" type="curve" smooth="yes"/>
	  <point x="159" y="1271"/>
	  <point x="206" y="1239"/>
	  <point x="255" y="1239" type="curve" smooth="yes"/>
	  <point x="261" y="1239"/>
	  <point x="266" y="1239"/>
	  <point x="272" y="1242" type="curve"/>
	  <point x="272" y="1124"/>
	  <point x="222" y="1057"/>
	  <point x="125" y="987" type="curve"/>
	</contour>
	<contour>
	  <point x="730" y="843" type="line"/>
	  <point x="717" y="990" type="line"/>
	  <point x="605" y="990" type="line"/>
	  <point x="605" y="0" type="line"/>
	  <point x="742" y="0" type="line"/>
	  <point x="742" y="729" type="line"/>
	  <point x="848" y="839"/>
	  <point x="926" y="895"/>
	  <point x="1033" y="895" type="curve" smooth="yes"/>
	  <point x="1176" y="895"/>
	  <point x="1235" y="808"/>
	  <point x="1235" y="612" type="curve" smooth="yes"/>
	  <point x="1235" y="0" type="line"/>
	  <point x="1371" y="0" type="line"/>
	  <point x="1371" y="631" type="line"/>
	  <point x="1371" y="885"/>
	  <point x="1277" y="1015"/>
	  <point x="1071" y="1015" type="curve" smooth="yes"/>
	  <point x="934" y="1015"/>
	  <point x="832" y="940"/>
	  <point x="735" y="843" type="curve"/>
	</contour>
  </outline>
</glyph>
<glyph name="Omacron" format="1">
  <advance width="1338"/>
  <unicode hex="014C"/>
  <outline>
	<contour>
	  <point x="670" y="-25" type="curve" smooth="yes"/>
	  <point x="1001" y="-25"/>
	  <point x="1236" y="248"/>
	  <point x="1236" y="679" type="curve" smooth="yes"/>
	  <point x="1236" y="1106"/>
	  <point x="1001" y="1370"/>
	  <point x="670" y="1370" type="curve" smooth="yes"/>
	  <point x="337" y="1370"/>
	  <point x="102" y="1107"/>
	  <point x="102" y="679" type="curve" smooth="yes"/>
	  <point x="102" y="248"/>
	  <point x="337" y="-25"/>
	</contour>
	<contour>
	  <point x="670" y="99" type="curve" smooth="yes"/>
	  <point x="415" y="99"/>
	  <point x="246" y="327"/>
	  <point x="246" y="679" type="curve" smooth="yes"/>
	  <point x="246" y="1029"/>
	  <point x="415" y="1247"/>
	  <point x="670" y="1247" type="curve" smooth="yes"/>
	  <point x="923" y="1247"/>
	  <point x="1091" y="1029"/>
	  <point x="1091" y="679" type="curve" smooth="yes"/>
	  <point x="1091" y="327"/>
	  <point x="923" y="99"/>
	</contour>
	<contour>
	  <point x="424" y="1497" type="line"/>
	  <point x="915" y="1497" type="line"/>
	  <point x="915" y="1596" type="line"/>
	  <point x="424" y="1596" type="line"/>
	</contour>
  </outline>
</glyph>
<glyph name="omacron" format="1">
  <advance width="1104"/>
  <unicode hex="014D"/>
  <outline>
	<contour>
	  <point x="99" y="493" type="curve" smooth="yes"/>
	  <point x="99" y="165"/>
	  <point x="311" y="-25"/>
	  <point x="552" y="-25" type="curve" smooth="yes"/>
	  <point x="793" y="-25"/>
	  <point x="1005" y="165"/>
	  <point x="1005" y="493" type="curve" smooth="yes"/>
	  <point x="1005" y="825"/>
	  <point x="793" y="1015"/>
	  <point x="552" y="1015" type="curve" smooth="yes"/>
	  <point x="311" y="1015"/>
	  <point x="99" y="825"/>
	</contour>
	<contour>
	  <point x="241" y="493" type="curve" smooth="yes"/>
	  <point x="241" y="735"/>
	  <point x="370" y="900"/>
	  <point x="552" y="900" type="curve" smooth="yes"/>
	  <point x="734" y="900"/>
	  <point x="864" y="735"/>
	  <point x="864" y="493" type="curve" smooth="yes"/>
	  <point x="864" y="253"/>
	  <point x="734" y="90"/>
	  <point x="552" y="90" type="curve" smooth="yes"/>
	  <point x="370" y="90"/>
	  <point x="241" y="253"/>
	</contour>
	<contour>
	  <point x="309" y="1235" type="line"/>
	  <point x="796" y="1235" type="line"/>
	  <point x="796" y="1334" type="line"/>
	  <point x="309" y="1334" type="line"/>
	</contour>
  </outline>
</glyph>
<glyph name="uni014E" format="1">
  <advance width="1338"/>
  <unicode hex="014E"/>
  <outline>
	<contour>
	  <point x="670" y="-25" type="curve" smooth="yes"/>
	  <point x="1001" y="-25"/>
	  <point x="1236" y="248"/>
	  <point x="1236" y="679" type="curve" smooth="yes"/>
	  <point x="1236" y="1106"/>
	  <point x="1001" y="1370"/>
	  <point x="670" y="1370" type="curve" smooth="yes"/>
	  <point x="337" y="1370"/>
	  <point x="102" y="1107"/>
	  <point x="102" y="679" type="curve" smooth="yes"/>
	  <point x="102" y="248"/>
	  <point x="337" y="-25"/>
	</contour>
	<contour>
	  <point x="670" y="99" type="curve" smooth="yes"/>
	  <point x="415" y="99"/>
	  <point x="246" y="327"/>
	  <point x="246" y="679" type="curve" smooth="yes"/>
	  <point x="246" y="1029"/>
	  <point x="415" y="1247"/>
	  <point x="670" y="1247" type="curve" smooth="yes"/>
	  <point x="923" y="1247"/>
	  <point x="1091" y="1029"/>
	  <point x="1091" y="679" type="curve" smooth="yes"/>
	  <point x="1091" y="327"/>
	  <point x="923" y="99"/>
	</contour>
	<contour>
	  <point x="670" y="1452" type="curve" smooth="yes"/>
	  <point x="829" y="1452"/>
	  <point x="901" y="1567"/>
	  <point x="915" y="1673" type="curve"/>
	  <point x="825" y="1673" type="line"/>
	  <point x="813" y="1605"/>
	  <point x="767" y="1536"/>
	  <point x="670" y="1536" type="curve" smooth="yes"/>
	  <point x="571" y="1536"/>
	  <point x="525" y="1605"/>
	  <point x="512" y="1673" type="curve"/>
	  <point x="425" y="1673" type="line"/>
	  <point x="437" y="1567"/>
	  <point x="510" y="1452"/>
	</contour>
  </outline>
</glyph>
<glyph name="uni014F" format="1">
  <advance width="1104"/>
  <unicode hex="014F"/>
  <outline>
	<contour>
	  <point x="99" y="493" type="curve" smooth="yes"/>
	  <point x="99" y="165"/>
	  <point x="311" y="-25"/>
	  <point x="552" y="-25" type="curve" smooth="yes"/>
	  <point x="793" y="-25"/>
	  <point x="1005" y="165"/>
	  <point x="1005" y="493" type="curve" smooth="yes"/>
	  <point x="1005" y="825"/>
	  <point x="793" y="1015"/>
	  <point x="552" y="1015" type="curve" smooth="yes"/>
	  <point x="311" y="1015"/>
	  <point x="99" y="825"/>
	</contour>
	<contour>
	  <point x="241" y="493" type="curve" smooth="yes"/>
	  <point x="241" y="735"/>
	  <point x="370" y="900"/>
	  <point x="552" y="900" type="curve" smooth="yes"/>
	  <point x="734" y="900"/>
	  <point x="864" y="735"/>
	  <point x="864" y="493" type="curve" smooth="yes"/>
	  <point x="864" y="253"/>
	  <point x="734" y="90"/>
	  <point x="552" y="90" type="curve" smooth="yes"/>
	  <point x="370" y="90"/>
	  <point x="241" y="253"/>
	</contour>
	<contour>
	  <point x="552" y="1179" type="curve" smooth="yes"/>
	  <point x="724" y="1179"/>
	  <point x="795" y="1318"/>
	  <point x="804" y="1432" type="curve"/>
	  <point x="715" y="1432" type="line"/>
	  <point x="704" y="1349"/>
	  <point x="653" y="1267"/>
	  <point x="552" y="1267" type="curve" smooth="yes"/>
	  <point x="450" y="1267"/>
	  <point x="400" y="1349"/>
	  <point x="389" y="1432" type="curve"/>
	  <point x="300" y="1432" type="line"/>
	  <point x="309" y="1318"/>
	  <point x="380" y="1179"/>
	</contour>
  </outline>
</glyph>
<glyph name="Ohungarumlaut" format="1">
  <advance width="1338"/>
  <unicode hex="0150"/>
  <outline>
	<contour>
	  <point x="670" y="-25" type="curve" smooth="yes"/>
	  <point x="1001" y="-25"/>
	  <point x="1236" y="248"/>
	  <point x="1236" y="679" type="curve" smooth="yes"/>
	  <point x="1236" y="1106"/>
	  <point x="1001" y="1370"/>
	  <point x="670" y="1370" type="curve" smooth="yes"/>
	  <point x="337" y="1370"/>
	  <point x="102" y="1107"/>
	  <point x="102" y="679" type="curve" smooth="yes"/>
	  <point x="102" y="248"/>
	  <point x="337" y="-25"/>
	</contour>
	<contour>
	  <point x="670" y="99" type="curve" smooth="yes"/>
	  <point x="415" y="99"/>
	  <point x="246" y="327"/>
	  <point x="246" y="679" type="curve" smooth="yes"/>
	  <point x="246" y="1029"/>
	  <point x="415" y="1247"/>
	  <point x="670" y="1247" type="curve" smooth="yes"/>
	  <point x="923" y="1247"/>
	  <point x="1091" y="1029"/>
	  <point x="1091" y="679" type="curve" smooth="yes"/>
	  <point x="1091" y="327"/>
	  <point x="923" y="99"/>
	</contour>
	<contour>
	  <point x="562" y="1448" type="line"/>
	  <point x="730" y="1673" type="line"/>
	  <point x="597" y="1673" type="line"/>
	  <point x="460" y="1448" type="line"/>
	</contour>
	<contour>
	  <point x="772" y="1448" type="line"/>
	  <point x="875" y="1448" type="line"/>
	  <point x="1042" y="1673" type="line"/>
	  <point x="908" y="1673" type="line"/>
	</contour>
  </outline>
</glyph>
<glyph name="ohungarumlaut" format="1">
  <advance width="1104"/>
  <unicode hex="0151"/>
  <outline>
	<contour>
	  <point x="99" y="493" type="curve" smooth="yes"/>
	  <point x="99" y="165"/>
	  <point x="311" y="-25"/>
	  <point x="552" y="-25" type="curve" smooth="yes"/>
	  <point x="793" y="-25"/>
	  <point x="1005" y="165"/>
	  <point x="1005" y="493" type="curve" smooth="yes"/>
	  <point x="1005" y="825"/>
	  <point x="793" y="1015"/>
	  <point x="552" y="1015" type="curve" smooth="yes"/>
	  <point x="311" y="1015"/>
	  <point x="99" y="825"/>
	</contour>
	<contour>
	  <point x="241" y="493" type="curve" smooth="yes"/>
	  <point x="241" y="735"/>
	  <point x="370" y="900"/>
	  <point x="552" y="900" type="curve" smooth="yes"/>
	  <point x="734" y="900"/>
	  <point x="864" y="735"/>
	  <point x="864" y="493" type="curve" smooth="yes"/>
	  <point x="864" y="253"/>
	  <point x="734" y="90"/>
	  <point x="552" y="90" type="curve" smooth="yes"/>
	  <point x="370" y="90"/>
	  <point x="241" y="253"/>
	</contour>
	<contour>
	  <point x="364" y="1168" type="line"/>
	  <point x="511" y="1457" type="line"/>
	  <point x="636" y="1457" type="line"/>
	  <point x="460" y="1168" type="line"/>
	</contour>
	<contour>
	  <point x="654" y="1168" type="line"/>
	  <point x="749" y="1168" type="line"/>
	  <point x="925" y="1457" type="line"/>
	  <point x="800" y="1457" type="line"/>
	</contour>
  </outline>
</glyph>
<glyph name="uni0156" format="1">
  <advance width="1161"/>
  <unicode hex="0156"/>
  <outline>
	<contour>
	  <point x="530" y="-171" type="line"/>
	  <point x="588" y="-184"/>
	  <point x="639" y="-208"/>
	  <point x="639" y="-265" type="curve" smooth="yes"/>
	  <point x="639" y="-319"/>
	  <point x="563" y="-348"/>
	  <point x="454" y="-363" type="curve"/>
	  <point x="469" y="-436" type="line"/>
	  <point x="615" y="-423"/>
	  <point x="750" y="-369"/>
	  <point x="750" y="-255" type="curve" smooth="yes"/>
	  <point x="750" y="-166"/>
	  <point x="690" y="-122"/>
	  <point x="562" y="-100" type="curve"/>
	</contour>
	<contour>
	  <point x="324" y="1232" type="line"/>
	  <point x="566" y="1232" type="line"/>
	  <point x="788" y="1232"/>
	  <point x="909" y="1165"/>
	  <point x="909" y="978" type="curve" smooth="yes"/>
	  <point x="909" y="794"/>
	  <point x="788" y="703"/>
	  <point x="566" y="703" type="curve" smooth="yes"/>
	  <point x="324" y="703" type="line"/>
	</contour>
	<contour>
	  <point x="730" y="603" type="line"/>
	  <point x="924" y="642"/>
	  <point x="1050" y="766"/>
	  <point x="1050" y="978" type="curve" smooth="yes"/>
	  <point x="1050" y="1247"/>
	  <point x="861" y="1346"/>
	  <point x="591" y="1346" type="curve" smooth="yes"/>
	  <point x="184" y="1346" type="line"/>
	  <point x="184" y="0" type="line"/>
	  <point x="324" y="0" type="line"/>
	  <point x="324" y="589" type="line"/>
	  <point x="584" y="589" type="line"/>
	  <point x="924" y="0" type="line"/>
	  <point x="1084" y="0" type="line"/>
	</contour>
  </outline>
</glyph>
<glyph name="uni0157" format="1">
  <advance width="686"/>
  <unicode hex="0157"/>
  <outline>
	<contour>
	  <point x="176" y="0" type="line"/>
	  <point x="313" y="0" type="line"/>
	  <point x="313" y="652" type="line"/>
	  <point x="383" y="826"/>
	  <point x="486" y="890"/>
	  <point x="571" y="890" type="curve" smooth="yes"/>
	  <point x="611" y="890"/>
	  <point x="632" y="885"/>
	  <point x="665" y="874" type="curve"/>
	  <point x="692" y="994" type="line"/>
	  <point x="660" y="1010"/>
	  <point x="630" y="1015"/>
	  <point x="589" y="1015" type="curve" smooth="yes"/>
	  <point x="475" y="1015"/>
	  <point x="375" y="933"/>
	  <point x="309" y="809" type="curve"/>
	  <point x="302" y="809" type="line"/>
	  <point x="290" y="990" type="line"/>
	  <point x="176" y="990" type="line"/>
	</contour>
	<contour>
	  <point x="183" y="-100" type="curve"/>
	  <point x="152" y="-171" type="line"/>
	  <point x="210" y="-184"/>
	  <point x="260" y="-208"/>
	  <point x="260" y="-265" type="curve" smooth="yes"/>
	  <point x="260" y="-319"/>
	  <point x="185" y="-348"/>
	  <point x="77" y="-363" type="curve"/>
	  <point x="91" y="-436" type="line"/>
	  <point x="236" y="-423"/>
	  <point x="370" y="-369"/>
	  <point x="370" y="-255" type="curve" smooth="yes"/>
	  <point x="370" y="-166"/>
	  <point x="312" y="-122"/>
	</contour>
  </outline>
</glyph>
<glyph name="Rcaron" format="1">
  <advance width="1161"/>
  <unicode hex="0158"/>
  <outline>
	<contour>
	  <point x="653" y="1448" type="line"/>
	  <point x="850" y="1673" type="line"/>
	  <point x="735" y="1673" type="line"/>
	  <point x="592" y="1530" type="line"/>
	  <point x="583" y="1530" type="line"/>
	  <point x="440" y="1673" type="line"/>
	  <point x="326" y="1673" type="line"/>
	  <point x="523" y="1448" type="line"/>
	</contour>
	<contour>
	  <point x="324" y="1232" type="line"/>
	  <point x="566" y="1232" type="line"/>
	  <point x="788" y="1232"/>
	  <point x="909" y="1165"/>
	  <point x="909" y="978" type="curve" smooth="yes"/>
	  <point x="909" y="794"/>
	  <point x="788" y="703"/>
	  <point x="566" y="703" type="curve" smooth="yes"/>
	  <point x="324" y="703" type="line"/>
	</contour>
	<contour>
	  <point x="1084" y="0" type="line"/>
	  <point x="730" y="603" type="line"/>
	  <point x="924" y="642"/>
	  <point x="1050" y="766"/>
	  <point x="1050" y="978" type="curve" smooth="yes"/>
	  <point x="1050" y="1247"/>
	  <point x="861" y="1346"/>
	  <point x="591" y="1346" type="curve" smooth="yes"/>
	  <point x="184" y="1346" type="line"/>
	  <point x="184" y="0" type="line"/>
	  <point x="324" y="0" type="line"/>
	  <point x="324" y="589" type="line"/>
	  <point x="584" y="589" type="line"/>
	  <point x="924" y="0" type="line"/>
	</contour>
  </outline>
</glyph>
<glyph name="rcaron" format="1">
  <advance width="686"/>
  <unicode hex="0159"/>
  <outline>
	<contour>
	  <point x="176" y="0" type="line"/>
	  <point x="313" y="0" type="line"/>
	  <point x="313" y="652" type="line"/>
	  <point x="383" y="826"/>
	  <point x="486" y="890"/>
	  <point x="571" y="890" type="curve" smooth="yes"/>
	  <point x="611" y="890"/>
	  <point x="632" y="885"/>
	  <point x="665" y="874" type="curve"/>
	  <point x="692" y="994" type="line"/>
	  <point x="660" y="1010"/>
	  <point x="630" y="1015"/>
	  <point x="589" y="1015" type="curve" smooth="yes"/>
	  <point x="475" y="1015"/>
	  <point x="375" y="933"/>
	  <point x="309" y="809" type="curve"/>
	  <point x="302" y="809" type="line"/>
	  <point x="290" y="990" type="line"/>
	  <point x="176" y="990" type="line"/>
	</contour>
	<contour>
	  <point x="375" y="1173" type="line"/>
	  <point x="488" y="1173" type="line"/>
	  <point x="682" y="1457" type="line"/>
	  <point x="579" y="1457" type="line"/>
	  <point x="436" y="1263" type="line"/>
	  <point x="427" y="1263" type="line"/>
	  <point x="283" y="1457" type="line"/>
	  <point x="180" y="1457" type="line"/>
	</contour>
  </outline>
</glyph>
<glyph name="Scaron" format="1">
  <advance width="1071"/>
  <unicode hex="0160"/>
  <outline>
	<contour>
	  <point x="84" y="176" type="line"/>
	  <point x="197" y="55"/>
	  <point x="355" y="-25"/>
	  <point x="548" y="-25" type="curve" smooth="yes"/>
	  <point x="822" y="-25"/>
	  <point x="996" y="139"/>
	  <point x="996" y="350" type="curve" smooth="yes"/>
	  <point x="996" y="552"/>
	  <point x="870" y="641"/>
	  <point x="716" y="708" type="curve" smooth="yes"/>
	  <point x="519" y="794" type="line"/>
	  <point x="417" y="839"/>
	  <point x="291" y="892"/>
	  <point x="291" y="1032" type="curve" smooth="yes"/>
	  <point x="291" y="1164"/>
	  <point x="400" y="1247"/>
	  <point x="562" y="1247" type="curve" smooth="yes"/>
	  <point x="690" y="1247"/>
	  <point x="794" y="1195"/>
	  <point x="873" y="1115" type="curve"/>
	  <point x="950" y="1206" type="line"/>
	  <point x="860" y="1300"/>
	  <point x="723" y="1370"/>
	  <point x="562" y="1370" type="curve" smooth="yes"/>
	  <point x="327" y="1370"/>
	  <point x="151" y="1225"/>
	  <point x="151" y="1024" type="curve" smooth="yes"/>
	  <point x="151" y="826"/>
	  <point x="302" y="735"/>
	  <point x="424" y="683" type="curve" smooth="yes"/>
	  <point x="621" y="595" type="line"/>
	  <point x="751" y="537"/>
	  <point x="854" y="489"/>
	  <point x="854" y="339" type="curve" smooth="yes"/>
	  <point x="854" y="196"/>
	  <point x="739" y="99"/>
	  <point x="551" y="99" type="curve" smooth="yes"/>
	  <point x="403" y="99"/>
	  <point x="267" y="168"/>
	  <point x="169" y="273" type="curve"/>
	</contour>
	<contour>
	  <point x="707" y="1673" type="line"/>
	  <point x="562" y="1530" type="line"/>
	  <point x="554" y="1530" type="line"/>
	  <point x="410" y="1673" type="line"/>
	  <point x="297" y="1673" type="line"/>
	  <point x="494" y="1448" type="line"/>
	  <point x="624" y="1448" type="line"/>
	  <point x="821" y="1673" type="line"/>
	</contour>
  </outline>
</glyph>
<glyph name="Tcaron" format="1">
  <advance width="1076"/>
  <unicode hex="0164"/>
  <outline>
	<contour>
	  <point x="469" y="0" type="line"/>
	  <point x="608" y="0" type="line"/>
	  <point x="608" y="1228" type="line"/>
	  <point x="1024" y="1228" type="line"/>
	  <point x="1024" y="1346" type="line"/>
	  <point x="52" y="1346" type="line"/>
	  <point x="52" y="1228" type="line"/>
	  <point x="469" y="1228" type="line"/>
	</contour>
	<contour>
	  <point x="685" y="1673" type="line"/>
	  <point x="541" y="1530" type="line"/>
	  <point x="533" y="1530" type="line"/>
	  <point x="389" y="1673" type="line"/>
	  <point x="274" y="1673" type="line"/>
	  <point x="471" y="1448" type="line"/>
	  <point x="603" y="1448" type="line"/>
	  <point x="799" y="1673" type="line"/>
	</contour>
  </outline>
</glyph>
<glyph name="Utilde" format="1">
  <advance width="1300"/>
  <unicode hex="0168"/>
  <outline>
	<contour>
	  <point x="178" y="540" type="line"/>
	  <point x="178" y="112"/>
	  <point x="392" y="-25"/>
	  <point x="649" y="-25" type="curve" smooth="yes"/>
	  <point x="906" y="-25"/>
	  <point x="1122" y="112"/>
	  <point x="1122" y="540" type="curve" smooth="yes"/>
	  <point x="1122" y="1346" type="line"/>
	  <point x="989" y="1346" type="line"/>
	  <point x="989" y="542" type="line"/>
	  <point x="989" y="204"/>
	  <point x="835" y="99"/>
	  <point x="649" y="99" type="curve" smooth="yes"/>
	  <point x="469" y="99"/>
	  <point x="318" y="204"/>
	  <point x="318" y="542" type="curve" smooth="yes"/>
	  <point x="318" y="1346" type="line"/>
	  <point x="178" y="1346" type="line"/>
	</contour>
	<contour>
	  <point x="771" y="1460" type="curve" smooth="yes"/>
	  <point x="868" y="1460"/>
	  <point x="924" y="1557"/>
	  <point x="934" y="1668" type="curve"/>
	  <point x="855" y="1668" type="line"/>
	  <point x="845" y="1600"/>
	  <point x="814" y="1558"/>
	  <point x="771" y="1558" type="curve" smooth="yes"/>
	  <point x="693" y="1558"/>
	  <point x="636" y="1668"/>
	  <point x="528" y="1668" type="curve" smooth="yes"/>
	  <point x="432" y="1668"/>
	  <point x="376" y="1573"/>
	  <point x="367" y="1460" type="curve"/>
	  <point x="445" y="1460" type="line"/>
	  <point x="456" y="1530"/>
	  <point x="488" y="1571"/>
	  <point x="530" y="1571" type="curve" smooth="yes"/>
	  <point x="609" y="1571"/>
	  <point x="665" y="1460"/>
	</contour>
  </outline>
</glyph>
<glyph name="utilde" format="1">
  <advance width="1101"/>
  <unicode hex="0169"/>
  <outline>
	<contour>
	  <point x="162" y="360" type="line"/>
	  <point x="162" y="106"/>
	  <point x="256" y="-25"/>
	  <point x="464" y="-25" type="curve" smooth="yes"/>
	  <point x="600" y="-25"/>
	  <point x="700" y="49"/>
	  <point x="794" y="159" type="curve"/>
	  <point x="800" y="159" type="line"/>
	  <point x="812" y="0" type="line"/>
	  <point x="925" y="0" type="line"/>
	  <point x="925" y="990" type="line"/>
	  <point x="789" y="990" type="line"/>
	  <point x="789" y="276" type="line"/>
	  <point x="686" y="150"/>
	  <point x="609" y="95"/>
	  <point x="501" y="95" type="curve" smooth="yes"/>
	  <point x="359" y="95"/>
	  <point x="299" y="183"/>
	  <point x="299" y="378" type="curve" smooth="yes"/>
	  <point x="299" y="990" type="line"/>
	  <point x="162" y="990" type="line"/>
	</contour>
	<contour>
	  <point x="279" y="1188" type="curve"/>
	  <point x="361" y="1188" type="line"/>
	  <point x="371" y="1258"/>
	  <point x="395" y="1295"/>
	  <point x="436" y="1295" type="curve" smooth="yes"/>
	  <point x="508" y="1295"/>
	  <point x="566" y="1188"/>
	  <point x="667" y="1188" type="curve" smooth="yes"/>
	  <point x="768" y="1188"/>
	  <point x="815" y="1282"/>
	  <point x="825" y="1390" type="curve"/>
	  <point x="742" y="1390" type="line"/>
	  <point x="731" y="1321"/>
	  <point x="708" y="1282"/>
	  <point x="666" y="1282" type="curve" smooth="yes"/>
	  <point x="599" y="1282"/>
	  <point x="537" y="1390"/>
	  <point x="436" y="1390" type="curve" smooth="yes"/>
	  <point x="336" y="1390"/>
	  <point x="289" y="1296"/>
	</contour>
  </outline>
</glyph>
<glyph name="Umacron" format="1">
  <advance width="1300"/>
  <unicode hex="016A"/>
  <outline>
	<contour>
	  <point x="178" y="540" type="line"/>
	  <point x="178" y="112"/>
	  <point x="392" y="-25"/>
	  <point x="649" y="-25" type="curve" smooth="yes"/>
	  <point x="906" y="-25"/>
	  <point x="1122" y="112"/>
	  <point x="1122" y="540" type="curve" smooth="yes"/>
	  <point x="1122" y="1346" type="line"/>
	  <point x="989" y="1346" type="line"/>
	  <point x="989" y="542" type="line"/>
	  <point x="989" y="204"/>
	  <point x="835" y="99"/>
	  <point x="649" y="99" type="curve" smooth="yes"/>
	  <point x="469" y="99"/>
	  <point x="318" y="204"/>
	  <point x="318" y="542" type="curve" smooth="yes"/>
	  <point x="318" y="1346" type="line"/>
	  <point x="178" y="1346" type="line"/>
	</contour>
	<contour>
	  <point x="405" y="1497" type="line"/>
	  <point x="895" y="1497" type="line"/>
	  <point x="895" y="1596" type="line"/>
	  <point x="405" y="1596" type="line"/>
	</contour>
  </outline>
</glyph>
<glyph name="umacron" format="1">
  <advance width="1101"/>
  <unicode hex="016B"/>
  <outline>
	<contour>
	  <point x="162" y="360" type="line"/>
	  <point x="162" y="106"/>
	  <point x="256" y="-25"/>
	  <point x="464" y="-25" type="curve" smooth="yes"/>
	  <point x="600" y="-25"/>
	  <point x="700" y="49"/>
	  <point x="794" y="159" type="curve"/>
	  <point x="800" y="159" type="line"/>
	  <point x="812" y="0" type="line"/>
	  <point x="925" y="0" type="line"/>
	  <point x="925" y="990" type="line"/>
	  <point x="789" y="990" type="line"/>
	  <point x="789" y="276" type="line"/>
	  <point x="686" y="150"/>
	  <point x="609" y="95"/>
	  <point x="501" y="95" type="curve" smooth="yes"/>
	  <point x="359" y="95"/>
	  <point x="299" y="183"/>
	  <point x="299" y="378" type="curve" smooth="yes"/>
	  <point x="299" y="990" type="line"/>
	  <point x="162" y="990" type="line"/>
	</contour>
	<contour>
	  <point x="301" y="1235" type="line"/>
	  <point x="788" y="1235" type="line"/>
	  <point x="788" y="1334" type="line"/>
	  <point x="301" y="1334" type="line"/>
	</contour>
  </outline>
</glyph>
<glyph name="Ubreve" format="1">
  <advance width="1300"/>
  <unicode hex="016C"/>
  <outline>
	<contour>
	  <point x="178" y="540" type="line"/>
	  <point x="178" y="112"/>
	  <point x="392" y="-25"/>
	  <point x="649" y="-25" type="curve" smooth="yes"/>
	  <point x="906" y="-25"/>
	  <point x="1122" y="112"/>
	  <point x="1122" y="540" type="curve" smooth="yes"/>
	  <point x="1122" y="1346" type="line"/>
	  <point x="989" y="1346" type="line"/>
	  <point x="989" y="542" type="line"/>
	  <point x="989" y="204"/>
	  <point x="835" y="99"/>
	  <point x="649" y="99" type="curve" smooth="yes"/>
	  <point x="469" y="99"/>
	  <point x="318" y="204"/>
	  <point x="318" y="542" type="curve" smooth="yes"/>
	  <point x="318" y="1346" type="line"/>
	  <point x="178" y="1346" type="line"/>
	</contour>
	<contour>
	  <point x="650" y="1452" type="curve" smooth="yes"/>
	  <point x="810" y="1452"/>
	  <point x="882" y="1567"/>
	  <point x="896" y="1673" type="curve"/>
	  <point x="807" y="1673" type="line"/>
	  <point x="795" y="1605"/>
	  <point x="748" y="1536"/>
	  <point x="650" y="1536" type="curve" smooth="yes"/>
	  <point x="552" y="1536"/>
	  <point x="504" y="1605"/>
	  <point x="492" y="1673" type="curve"/>
	  <point x="404" y="1673" type="line"/>
	  <point x="419" y="1567"/>
	  <point x="490" y="1452"/>
	</contour>
  </outline>
</glyph>
<glyph name="ubreve" format="1">
  <advance width="1101"/>
  <unicode hex="016D"/>
  <outline>
	<contour>
	  <point x="162" y="360" type="line"/>
	  <point x="162" y="106"/>
	  <point x="256" y="-25"/>
	  <point x="464" y="-25" type="curve" smooth="yes"/>
	  <point x="600" y="-25"/>
	  <point x="700" y="49"/>
	  <point x="794" y="159" type="curve"/>
	  <point x="800" y="159" type="line"/>
	  <point x="812" y="0" type="line"/>
	  <point x="925" y="0" type="line"/>
	  <point x="925" y="990" type="line"/>
	  <point x="789" y="990" type="line"/>
	  <point x="789" y="276" type="line"/>
	  <point x="686" y="150"/>
	  <point x="609" y="95"/>
	  <point x="501" y="95" type="curve" smooth="yes"/>
	  <point x="359" y="95"/>
	  <point x="299" y="183"/>
	  <point x="299" y="378" type="curve" smooth="yes"/>
	  <point x="299" y="990" type="line"/>
	  <point x="162" y="990" type="line"/>
	</contour>
	<contour>
	  <point x="551" y="1179" type="curve" smooth="yes"/>
	  <point x="723" y="1179"/>
	  <point x="793" y="1318"/>
	  <point x="804" y="1432" type="curve"/>
	  <point x="715" y="1432" type="line"/>
	  <point x="703" y="1349"/>
	  <point x="652" y="1267"/>
	  <point x="551" y="1267" type="curve" smooth="yes"/>
	  <point x="450" y="1267"/>
	  <point x="400" y="1349"/>
	  <point x="388" y="1432" type="curve"/>
	  <point x="299" y="1432" type="line"/>
	  <point x="310" y="1318"/>
	  <point x="379" y="1179"/>
	</contour>
  </outline>
</glyph>
<glyph name="Uring" format="1">
  <advance width="1300"/>
  <unicode hex="016E"/>
  <outline>
	<contour>
	  <point x="178" y="540" type="line"/>
	  <point x="178" y="112"/>
	  <point x="392" y="-25"/>
	  <point x="649" y="-25" type="curve" smooth="yes"/>
	  <point x="906" y="-25"/>
	  <point x="1122" y="112"/>
	  <point x="1122" y="540" type="curve" smooth="yes"/>
	  <point x="1122" y="1346" type="line"/>
	  <point x="989" y="1346" type="line"/>
	  <point x="989" y="542" type="line"/>
	  <point x="989" y="204"/>
	  <point x="835" y="99"/>
	  <point x="649" y="99" type="curve" smooth="yes"/>
	  <point x="469" y="99"/>
	  <point x="318" y="204"/>
	  <point x="318" y="542" type="curve" smooth="yes"/>
	  <point x="318" y="1346" type="line"/>
	  <point x="178" y="1346" type="line"/>
	</contour>
	<contour>
	  <point x="650" y="1433" type="curve" smooth="yes"/>
	  <point x="752" y="1433"/>
	  <point x="833" y="1500"/>
	  <point x="833" y="1608" type="curve" smooth="yes"/>
	  <point x="833" y="1713"/>
	  <point x="752" y="1783"/>
	  <point x="650" y="1783" type="curve" smooth="yes"/>
	  <point x="546" y="1783"/>
	  <point x="468" y="1713"/>
	  <point x="468" y="1608" type="curve" smooth="yes"/>
	  <point x="468" y="1500"/>
	  <point x="546" y="1433"/>
	</contour>
	<contour>
	  <point x="650" y="1498" type="curve" smooth="yes"/>
	  <point x="594" y="1498"/>
	  <point x="548" y="1537"/>
	  <point x="548" y="1608" type="curve" smooth="yes"/>
	  <point x="548" y="1674"/>
	  <point x="594" y="1716"/>
	  <point x="650" y="1716" type="curve" smooth="yes"/>
	  <point x="704" y="1716"/>
	  <point x="749" y="1674"/>
	  <point x="749" y="1608" type="curve" smooth="yes"/>
	  <point x="749" y="1537"/>
	  <point x="704" y="1498"/>
	</contour>
  </outline>
</glyph>
<glyph name="uring" format="1">
  <advance width="1101"/>
  <unicode hex="016F"/>
  <outline>
	<contour>
	  <point x="162" y="360" type="line"/>
	  <point x="162" y="106"/>
	  <point x="256" y="-25"/>
	  <point x="464" y="-25" type="curve" smooth="yes"/>
	  <point x="600" y="-25"/>
	  <point x="700" y="49"/>
	  <point x="794" y="159" type="curve"/>
	  <point x="800" y="159" type="line"/>
	  <point x="812" y="0" type="line"/>
	  <point x="925" y="0" type="line"/>
	  <point x="925" y="990" type="line"/>
	  <point x="789" y="990" type="line"/>
	  <point x="789" y="276" type="line"/>
	  <point x="686" y="150"/>
	  <point x="609" y="95"/>
	  <point x="501" y="95" type="curve" smooth="yes"/>
	  <point x="359" y="95"/>
	  <point x="299" y="183"/>
	  <point x="299" y="378" type="curve" smooth="yes"/>
	  <point x="299" y="990" type="line"/>
	  <point x="162" y="990" type="line"/>
	</contour>
	<contour>
	  <point x="551" y="1108" type="curve" smooth="yes"/>
	  <point x="657" y="1108"/>
	  <point x="734" y="1182"/>
	  <point x="734" y="1292" type="curve" smooth="yes"/>
	  <point x="734" y="1402"/>
	  <point x="657" y="1476"/>
	  <point x="551" y="1476" type="curve" smooth="yes"/>
	  <point x="446" y="1476"/>
	  <point x="370" y="1402"/>
	  <point x="370" y="1292" type="curve" smooth="yes"/>
	  <point x="370" y="1182"/>
	  <point x="446" y="1108"/>
	</contour>
	<contour>
	  <point x="551" y="1174" type="curve" smooth="yes"/>
	  <point x="495" y="1174"/>
	  <point x="449" y="1221"/>
	  <point x="449" y="1292" type="curve" smooth="yes"/>
	  <point x="449" y="1363"/>
	  <point x="495" y="1410"/>
	  <point x="551" y="1410" type="curve" smooth="yes"/>
	  <point x="608" y="1410"/>
	  <point x="653" y="1363"/>
	  <point x="653" y="1292" type="curve" smooth="yes"/>
	  <point x="653" y="1221"/>
	  <point x="608" y="1174"/>
	</contour>
  </outline>
</glyph>
<glyph name="uhungarumlaut" format="1">
  <advance width="1101"/>
  <unicode hex="0171"/>
  <outline>
	<contour>
	  <point x="162" y="360" type="line"/>
	  <point x="162" y="106"/>
	  <point x="256" y="-25"/>
	  <point x="464" y="-25" type="curve" smooth="yes"/>
	  <point x="600" y="-25"/>
	  <point x="700" y="49"/>
	  <point x="794" y="159" type="curve"/>
	  <point x="800" y="159" type="line"/>
	  <point x="812" y="0" type="line"/>
	  <point x="925" y="0" type="line"/>
	  <point x="925" y="990" type="line"/>
	  <point x="789" y="990" type="line"/>
	  <point x="789" y="276" type="line"/>
	  <point x="686" y="150"/>
	  <point x="609" y="95"/>
	  <point x="501" y="95" type="curve" smooth="yes"/>
	  <point x="359" y="95"/>
	  <point x="299" y="183"/>
	  <point x="299" y="378" type="curve" smooth="yes"/>
	  <point x="299" y="990" type="line"/>
	  <point x="162" y="990" type="line"/>
	</contour>
	<contour>
	  <point x="364" y="1168" type="line"/>
	  <point x="459" y="1168" type="line"/>
	  <point x="635" y="1457" type="line"/>
	  <point x="509" y="1457" type="line"/>
	</contour>
	<contour>
	  <point x="653" y="1168" type="line"/>
	  <point x="748" y="1168" type="line"/>
	  <point x="924" y="1457" type="line"/>
	  <point x="800" y="1457" type="line"/>
	</contour>
  </outline>
</glyph>
<glyph name="Ycircumflex" format="1">
  <advance width="939"/>
  <unicode hex="0176"/>
  <outline>
	<contour>
	  <point x="399" y="0" type="line"/>
	  <point x="539" y="0" type="line"/>
	  <point x="539" y="531" type="line"/>
	  <point x="943" y="1346" type="line"/>
	  <point x="800" y="1346" type="line"/>
	  <point x="613" y="950" type="line"/>
	  <point x="571" y="851"/>
	  <point x="521" y="757"/>
	  <point x="474" y="658" type="curve"/>
	  <point x="465" y="658" type="line"/>
	  <point x="417" y="757"/>
	  <point x="374" y="851"/>
	  <point x="330" y="950" type="curve" smooth="yes"/>
	  <point x="144" y="1346" type="line"/>
	  <point x="-6" y="1346" type="line"/>
	  <point x="399" y="531" type="line"/>
	</contour>
	<contour>
	  <point x="321" y="1448" type="line"/>
	  <point x="464" y="1591" type="line"/>
	  <point x="473" y="1591" type="line"/>
	  <point x="617" y="1448" type="line"/>
	  <point x="731" y="1448" type="line"/>
	  <point x="535" y="1673" type="line"/>
	  <point x="404" y="1673" type="line"/>
	  <point x="207" y="1448" type="line"/>
	</contour>
  </outline>
</glyph>
<glyph name="ycircumflex" format="1">
  <advance width="930"/>
  <unicode hex="0177"/>
  <outline>
	<contour>
	  <point x="88" y="-304" type="curve"/>
	  <point x="60" y="-416" type="line"/>
	  <point x="90" y="-428"/>
	  <point x="128" y="-437"/>
	  <point x="170" y="-437" type="curve" smooth="yes"/>
	  <point x="361" y="-437"/>
	  <point x="461" y="-282"/>
	  <point x="525" y="-99" type="curve" smooth="yes"/>
	  <point x="906" y="990" type="line"/>
	  <point x="771" y="990" type="line"/>
	  <point x="580" y="412" type="line"/>
	  <point x="553" y="326"/>
	  <point x="523" y="222"/>
	  <point x="493" y="134" type="curve"/>
	  <point x="485" y="134" type="line"/>
	  <point x="452" y="223"/>
	  <point x="415" y="327"/>
	  <point x="384" y="412" type="curve" smooth="yes"/>
	  <point x="168" y="990" type="line"/>
	  <point x="25" y="990" type="line"/>
	  <point x="426" y="-9" type="line"/>
	  <point x="401" y="-87" type="line"/>
	  <point x="357" y="-222"/>
	  <point x="281" y="-320"/>
	  <point x="165" y="-320" type="curve" smooth="yes"/>
	  <point x="139" y="-320"/>
	  <point x="108" y="-312"/>
	</contour>
	<contour>
	  <point x="237" y="1173" type="line"/>
	  <point x="338" y="1173" type="line"/>
	  <point x="482" y="1366" type="line"/>
	  <point x="490" y="1366" type="line"/>
	  <point x="634" y="1173" type="line"/>
	  <point x="737" y="1173" type="line"/>
	  <point x="544" y="1457" type="line"/>
	  <point x="429" y="1457" type="line"/>
	</contour>
  </outline>
</glyph>
<glyph name="Zacute" format="1">
  <advance width="1091"/>
  <unicode hex="0179"/>
  <outline>
	<contour>
	  <point x="89" y="0" type="line"/>
	  <point x="1006" y="0" type="line"/>
	  <point x="1006" y="119" type="line"/>
	  <point x="263" y="119" type="line"/>
	  <point x="999" y="1264" type="line"/>
	  <point x="999" y="1346" type="line"/>
	  <point x="156" y="1346" type="line"/>
	  <point x="156" y="1228" type="line"/>
	  <point x="827" y="1228" type="line"/>
	  <point x="89" y="83" type="line"/>
	</contour>
	<contour>
	  <point x="821" y="1673" type="line"/>
	  <point x="659" y="1673" type="line"/>
	  <point x="475" y="1448" type="line"/>
	  <point x="592" y="1448" type="line"/>
	</contour>
  </outline>
</glyph>
<glyph name="zacute" format="1">
  <advance width="852"/>
  <unicode hex="017A"/>
  <outline>
	<contour>
	  <point x="60" y="0" type="line"/>
	  <point x="799" y="0" type="line"/>
	  <point x="799" y="114" type="line"/>
	  <point x="234" y="114" type="line"/>
	  <point x="782" y="918" type="line"/>
	  <point x="782" y="990" type="line"/>
	  <point x="120" y="990" type="line"/>
	  <point x="120" y="877" type="line"/>
	  <point x="608" y="877" type="line"/>
	  <point x="60" y="73" type="line"/>
	</contour>
	<contour>
	  <point x="669" y="1457" type="line"/>
	  <point x="521" y="1457" type="line"/>
	  <point x="334" y="1173" type="line"/>
	  <point x="443" y="1173" type="line"/>
	</contour>
  </outline>
</glyph>
<glyph name="Zdotaccent" format="1">
  <advance width="1091"/>
  <unicode hex="017B"/>
  <outline>
	<contour>
	  <point x="89" y="0" type="line"/>
	  <point x="1006" y="0" type="line"/>
	  <point x="1006" y="119" type="line"/>
	  <point x="263" y="119" type="line"/>
	  <point x="999" y="1264" type="line"/>
	  <point x="999" y="1346" type="line"/>
	  <point x="156" y="1346" type="line"/>
	  <point x="156" y="1228" type="line"/>
	  <point x="827" y="1228" type="line"/>
	  <point x="89" y="83" type="line"/>
	</contour>
	<contour>
	  <point x="567" y="1468" type="curve" smooth="yes"/>
	  <point x="625" y="1468"/>
	  <point x="670" y="1508"/>
	  <point x="670" y="1568" type="curve" smooth="yes"/>
	  <point x="670" y="1625"/>
	  <point x="625" y="1664"/>
	  <point x="567" y="1664" type="curve" smooth="yes"/>
	  <point x="511" y="1664"/>
	  <point x="465" y="1625"/>
	  <point x="465" y="1568" type="curve" smooth="yes"/>
	  <point x="465" y="1508"/>
	  <point x="511" y="1468"/>
	</contour>
  </outline>
</glyph>
<glyph name="zdotaccent" format="1">
  <advance width="852"/>
  <unicode hex="017C"/>
  <outline>
	<contour>
	  <point x="60" y="0" type="line"/>
	  <point x="799" y="0" type="line"/>
	  <point x="799" y="114" type="line"/>
	  <point x="234" y="114" type="line"/>
	  <point x="782" y="918" type="line"/>
	  <point x="782" y="990" type="line"/>
	  <point x="120" y="990" type="line"/>
	  <point x="120" y="877" type="line"/>
	  <point x="608" y="877" type="line"/>
	  <point x="60" y="73" type="line"/>
	</contour>
	<contour>
	  <point x="461" y="1209" type="curve" smooth="yes"/>
	  <point x="516" y="1209"/>
	  <point x="558" y="1248"/>
	  <point x="558" y="1309" type="curve" smooth="yes"/>
	  <point x="558" y="1365"/>
	  <point x="516" y="1406"/>
	  <point x="461" y="1406" type="curve" smooth="yes"/>
	  <point x="403" y="1406"/>
	  <point x="363" y="1365"/>
	  <point x="363" y="1309" type="curve" smooth="yes"/>
	  <point x="363" y="1248"/>
	  <point x="403" y="1209"/>
	</contour>
  </outline>
</glyph>
<glyph name="Zcaron" format="1">
  <advance width="1091"/>
  <unicode hex="017D"/>
  <outline>
	<contour>
	  <point x="89" y="0" type="line"/>
	  <point x="1006" y="0" type="line"/>
	  <point x="1006" y="119" type="line"/>
	  <point x="263" y="119" type="line"/>
	  <point x="999" y="1264" type="line"/>
	  <point x="999" y="1346" type="line"/>
	  <point x="156" y="1346" type="line"/>
	  <point x="156" y="1228" type="line"/>
	  <point x="827" y="1228" type="line"/>
	  <point x="89" y="83" type="line"/>
	</contour>
	<contour>
	  <point x="716" y="1673" type="line"/>
	  <point x="571" y="1530" type="line"/>
	  <point x="563" y="1530" type="line"/>
	  <point x="420" y="1673" type="line"/>
	  <point x="307" y="1673" type="line"/>
	  <point x="503" y="1448" type="line"/>
	  <point x="633" y="1448" type="line"/>
	  <point x="830" y="1673" type="line"/>
	</contour>
  </outline>
</glyph>
<glyph name="zcaron" format="1">
  <advance width="852"/>
  <unicode hex="017E"/>
  <outline>
	<contour>
	  <point x="60" y="0" type="line"/>
	  <point x="799" y="0" type="line"/>
	  <point x="799" y="114" type="line"/>
	  <point x="234" y="114" type="line"/>
	  <point x="782" y="918" type="line"/>
	  <point x="782" y="990" type="line"/>
	  <point x="120" y="990" type="line"/>
	  <point x="120" y="877" type="line"/>
	  <point x="608" y="877" type="line"/>
	  <point x="60" y="73" type="line"/>
	</contour>
	<contour>
	  <point x="403" y="1173" type="line"/>
	  <point x="516" y="1173" type="line"/>
	  <point x="710" y="1457" type="line"/>
	  <point x="608" y="1457" type="line"/>
	  <point x="465" y="1263" type="line"/>
	  <point x="456" y="1263" type="line"/>
	  <point x="313" y="1457" type="line"/>
	  <point x="209" y="1457" type="line"/>
	</contour>
  </outline>
</glyph>
<glyph name="uni01D5" format="1">
  <advance width="1300"/>
  <unicode hex="01D5"/>
  <outline>
	<contour>
	  <point x="178" y="540" type="line"/>
	  <point x="178" y="112"/>
	  <point x="392" y="-25"/>
	  <point x="649" y="-25" type="curve" smooth="yes"/>
	  <point x="906" y="-25"/>
	  <point x="1122" y="112"/>
	  <point x="1122" y="540" type="curve" smooth="yes"/>
	  <point x="1122" y="1346" type="line"/>
	  <point x="989" y="1346" type="line"/>
	  <point x="989" y="542" type="line"/>
	  <point x="989" y="204"/>
	  <point x="835" y="99"/>
	  <point x="649" y="99" type="curve" smooth="yes"/>
	  <point x="469" y="99"/>
	  <point x="318" y="204"/>
	  <point x="318" y="542" type="curve" smooth="yes"/>
	  <point x="318" y="1346" type="line"/>
	  <point x="178" y="1346" type="line"/>
	</contour>
	<contour>
	  <point x="405" y="1757" type="line"/>
	  <point x="895" y="1757" type="line"/>
	  <point x="895" y="1841" type="line"/>
	  <point x="405" y="1841" type="line"/>
	</contour>
	<contour>
	  <point x="480" y="1473" type="curve" smooth="yes"/>
	  <point x="528" y="1473"/>
	  <point x="564" y="1506"/>
	  <point x="564" y="1558" type="curve" smooth="yes"/>
	  <point x="564" y="1608"/>
	  <point x="528" y="1642"/>
	  <point x="480" y="1642" type="curve" smooth="yes"/>
	  <point x="431" y="1642"/>
	  <point x="396" y="1608"/>
	  <point x="396" y="1558" type="curve" smooth="yes"/>
	  <point x="396" y="1506"/>
	  <point x="431" y="1473"/>
	</contour>
	<contour>
	  <point x="821" y="1473" type="curve" smooth="yes"/>
	  <point x="870" y="1473"/>
	  <point x="906" y="1506"/>
	  <point x="906" y="1558" type="curve" smooth="yes"/>
	  <point x="906" y="1608"/>
	  <point x="870" y="1642"/>
	  <point x="821" y="1642" type="curve" smooth="yes"/>
	  <point x="771" y="1642"/>
	  <point x="736" y="1608"/>
	  <point x="736" y="1558" type="curve" smooth="yes"/>
	  <point x="736" y="1506"/>
	  <point x="771" y="1473"/>
	</contour>
  </outline>
</glyph>
<glyph name="uni01D7" format="1">
  <advance width="1300"/>
  <unicode hex="01D7"/>
  <outline>
	<contour>
	  <point x="178" y="540" type="line"/>
	  <point x="178" y="112"/>
	  <point x="392" y="-25"/>
	  <point x="649" y="-25" type="curve" smooth="yes"/>
	  <point x="906" y="-25"/>
	  <point x="1122" y="112"/>
	  <point x="1122" y="540" type="curve" smooth="yes"/>
	  <point x="1122" y="1346" type="line"/>
	  <point x="989" y="1346" type="line"/>
	  <point x="989" y="542" type="line"/>
	  <point x="989" y="204"/>
	  <point x="835" y="99"/>
	  <point x="649" y="99" type="curve" smooth="yes"/>
	  <point x="469" y="99"/>
	  <point x="318" y="204"/>
	  <point x="318" y="542" type="curve" smooth="yes"/>
	  <point x="318" y="1346" type="line"/>
	  <point x="178" y="1346" type="line"/>
	</contour>
	<contour>
	  <point x="557" y="1710" type="line"/>
	  <point x="672" y="1710" type="line"/>
	  <point x="899" y="1933" type="line"/>
	  <point x="743" y="1933" type="line"/>
	</contour>
	<contour>
	  <point x="480" y="1473" type="curve" smooth="yes"/>
	  <point x="528" y="1473"/>
	  <point x="564" y="1506"/>
	  <point x="564" y="1558" type="curve" smooth="yes"/>
	  <point x="564" y="1608"/>
	  <point x="528" y="1642"/>
	  <point x="480" y="1642" type="curve" smooth="yes"/>
	  <point x="431" y="1642"/>
	  <point x="396" y="1608"/>
	  <point x="396" y="1558" type="curve" smooth="yes"/>
	  <point x="396" y="1506"/>
	  <point x="431" y="1473"/>
	</contour>
	<contour>
	  <point x="821" y="1473" type="curve" smooth="yes"/>
	  <point x="870" y="1473"/>
	  <point x="906" y="1506"/>
	  <point x="906" y="1558" type="curve" smooth="yes"/>
	  <point x="906" y="1608"/>
	  <point x="870" y="1642"/>
	  <point x="821" y="1642" type="curve" smooth="yes"/>
	  <point x="771" y="1642"/>
	  <point x="736" y="1608"/>
	  <point x="736" y="1558" type="curve" smooth="yes"/>
	  <point x="736" y="1506"/>
	  <point x="771" y="1473"/>
	</contour>
  </outline>
</glyph>
<glyph name="uni01D9" format="1">
  <advance width="1300"/>
  <unicode hex="01D9"/>
  <outline>
	<contour>
	  <point x="178" y="540" type="line"/>
	  <point x="178" y="112"/>
	  <point x="392" y="-25"/>
	  <point x="649" y="-25" type="curve" smooth="yes"/>
	  <point x="906" y="-25"/>
	  <point x="1122" y="112"/>
	  <point x="1122" y="540" type="curve" smooth="yes"/>
	  <point x="1122" y="1346" type="line"/>
	  <point x="989" y="1346" type="line"/>
	  <point x="989" y="542" type="line"/>
	  <point x="989" y="204"/>
	  <point x="835" y="99"/>
	  <point x="649" y="99" type="curve" smooth="yes"/>
	  <point x="469" y="99"/>
	  <point x="318" y="204"/>
	  <point x="318" y="542" type="curve" smooth="yes"/>
	  <point x="318" y="1346" type="line"/>
	  <point x="178" y="1346" type="line"/>
	</contour>
	<contour>
	  <point x="480" y="1473" type="curve" smooth="yes"/>
	  <point x="528" y="1473"/>
	  <point x="564" y="1506"/>
	  <point x="564" y="1558" type="curve" smooth="yes"/>
	  <point x="564" y="1608"/>
	  <point x="528" y="1642"/>
	  <point x="480" y="1642" type="curve" smooth="yes"/>
	  <point x="431" y="1642"/>
	  <point x="396" y="1608"/>
	  <point x="396" y="1558" type="curve" smooth="yes"/>
	  <point x="396" y="1506"/>
	  <point x="431" y="1473"/>
	</contour>
	<contour>
	  <point x="821" y="1473" type="curve" smooth="yes"/>
	  <point x="870" y="1473"/>
	  <point x="906" y="1506"/>
	  <point x="906" y="1558" type="curve" smooth="yes"/>
	  <point x="906" y="1608"/>
	  <point x="870" y="1642"/>
	  <point x="821" y="1642" type="curve" smooth="yes"/>
	  <point x="771" y="1642"/>
	  <point x="736" y="1608"/>
	  <point x="736" y="1558" type="curve" smooth="yes"/>
	  <point x="736" y="1506"/>
	  <point x="771" y="1473"/>
	</contour>
	<contour>
	  <point x="798" y="1933" type="line"/>
	  <point x="654" y="1790" type="line"/>
	  <point x="646" y="1790" type="line"/>
	  <point x="502" y="1933" type="line"/>
	  <point x="387" y="1933" type="line"/>
	  <point x="583" y="1710" type="line"/>
	  <point x="716" y="1710" type="line"/>
	  <point x="913" y="1933" type="line"/>
	</contour>
  </outline>
</glyph>
<glyph name="uni01DC" format="1">
  <advance width="1101"/>
  <unicode hex="01DC"/>
  <outline>
	<contour>
	  <point x="162" y="360" type="line"/>
	  <point x="162" y="106"/>
	  <point x="256" y="-25"/>
	  <point x="464" y="-25" type="curve" smooth="yes"/>
	  <point x="600" y="-25"/>
	  <point x="700" y="49"/>
	  <point x="794" y="159" type="curve"/>
	  <point x="800" y="159" type="line"/>
	  <point x="812" y="0" type="line"/>
	  <point x="925" y="0" type="line"/>
	  <point x="925" y="990" type="line"/>
	  <point x="789" y="990" type="line"/>
	  <point x="789" y="276" type="line"/>
	  <point x="686" y="150"/>
	  <point x="609" y="95"/>
	  <point x="501" y="95" type="curve" smooth="yes"/>
	  <point x="359" y="95"/>
	  <point x="299" y="183"/>
	  <point x="299" y="378" type="curve" smooth="yes"/>
	  <point x="299" y="990" type="line"/>
	  <point x="162" y="990" type="line"/>
	</contour>
	<contour>
	  <point x="485" y="1673" type="line"/>
	  <point x="346" y="1673" type="line"/>
	  <point x="551" y="1466" type="line"/>
	  <point x="652" y="1466" type="line"/>
	</contour>
	<contour>
	  <point x="723" y="1213" type="curve" smooth="yes"/>
	  <point x="770" y="1213"/>
	  <point x="806" y="1250"/>
	  <point x="806" y="1297" type="curve" smooth="yes"/>
	  <point x="806" y="1345"/>
	  <point x="770" y="1382"/>
	  <point x="723" y="1382" type="curve" smooth="yes"/>
	  <point x="674" y="1382"/>
	  <point x="637" y="1345"/>
	  <point x="637" y="1297" type="curve" smooth="yes"/>
	  <point x="637" y="1250"/>
	  <point x="674" y="1213"/>
	</contour>
	<contour>
	  <point x="381" y="1213" type="curve" smooth="yes"/>
	  <point x="429" y="1213"/>
	  <point x="466" y="1250"/>
	  <point x="466" y="1297" type="curve" smooth="yes"/>
	  <point x="466" y="1345"/>
	  <point x="429" y="1382"/>
	  <point x="381" y="1382" type="curve" smooth="yes"/>
	  <point x="333" y="1382"/>
	  <point x="296" y="1345"/>
	  <point x="296" y="1297" type="curve" smooth="yes"/>
	  <point x="296" y="1250"/>
	  <point x="333" y="1213"/>
	</contour>
  </outline>
</glyph>
<glyph name="uni0218" format="1">
  <advance width="1071"/>
  <unicode hex="0218"/>
  <outline>
	<contour>
	  <point x="84" y="176" type="line"/>
	  <point x="197" y="55"/>
	  <point x="355" y="-25"/>
	  <point x="548" y="-25" type="curve" smooth="yes"/>
	  <point x="822" y="-25"/>
	  <point x="996" y="139"/>
	  <point x="996" y="350" type="curve" smooth="yes"/>
	  <point x="996" y="552"/>
	  <point x="870" y="641"/>
	  <point x="716" y="708" type="curve" smooth="yes"/>
	  <point x="519" y="794" type="line"/>
	  <point x="417" y="839"/>
	  <point x="291" y="892"/>
	  <point x="291" y="1032" type="curve" smooth="yes"/>
	  <point x="291" y="1164"/>
	  <point x="400" y="1247"/>
	  <point x="562" y="1247" type="curve" smooth="yes"/>
	  <point x="690" y="1247"/>
	  <point x="794" y="1195"/>
	  <point x="873" y="1115" type="curve"/>
	  <point x="950" y="1206" type="line"/>
	  <point x="860" y="1300"/>
	  <point x="723" y="1370"/>
	  <point x="562" y="1370" type="curve" smooth="yes"/>
	  <point x="327" y="1370"/>
	  <point x="151" y="1225"/>
	  <point x="151" y="1024" type="curve" smooth="yes"/>
	  <point x="151" y="826"/>
	  <point x="302" y="735"/>
	  <point x="424" y="683" type="curve" smooth="yes"/>
	  <point x="621" y="595" type="line"/>
	  <point x="751" y="537"/>
	  <point x="854" y="489"/>
	  <point x="854" y="339" type="curve" smooth="yes"/>
	  <point x="854" y="196"/>
	  <point x="739" y="99"/>
	  <point x="551" y="99" type="curve" smooth="yes"/>
	  <point x="403" y="99"/>
	  <point x="267" y="168"/>
	  <point x="169" y="273" type="curve"/>
	</contour>
	<contour>
	  <point x="493" y="-100" type="curve"/>
	  <point x="460" y="-171" type="line"/>
	  <point x="517" y="-184"/>
	  <point x="569" y="-208"/>
	  <point x="569" y="-265" type="curve" smooth="yes"/>
	  <point x="569" y="-319"/>
	  <point x="494" y="-348"/>
	  <point x="384" y="-363" type="curve"/>
	  <point x="398" y="-436" type="line"/>
	  <point x="545" y="-423"/>
	  <point x="680" y="-369"/>
	  <point x="680" y="-255" type="curve" smooth="yes"/>
	  <point x="680" y="-166"/>
	  <point x="620" y="-122"/>
	</contour>
  </outline>
</glyph>
<glyph name="uni0219" format="1">
  <advance width="846"/>
  <unicode hex="0219"/>
  <outline>
	<contour>
	  <point x="61" y="112" type="line"/>
	  <point x="153" y="36"/>
	  <point x="285" y="-25"/>
	  <point x="427" y="-25" type="curve" smooth="yes"/>
	  <point x="654" y="-25"/>
	  <point x="779" y="108"/>
	  <point x="779" y="264" type="curve" smooth="yes"/>
	  <point x="779" y="454"/>
	  <point x="615" y="510"/>
	  <point x="467" y="565" type="curve" smooth="yes"/>
	  <point x="353" y="608"/>
	  <point x="242" y="649"/>
	  <point x="242" y="748" type="curve" smooth="yes"/>
	  <point x="242" y="830"/>
	  <point x="305" y="906"/>
	  <point x="441" y="906" type="curve" smooth="yes"/>
	  <point x="534" y="906"/>
	  <point x="604" y="868"/>
	  <point x="671" y="818" type="curve"/>
	  <point x="739" y="906" type="line"/>
	  <point x="664" y="967"/>
	  <point x="557" y="1015"/>
	  <point x="441" y="1015" type="curve" smooth="yes"/>
	  <point x="230" y="1015"/>
	  <point x="109" y="894"/>
	  <point x="109" y="740" type="curve" smooth="yes"/>
	  <point x="109" y="573"/>
	  <point x="268" y="509"/>
	  <point x="412" y="457" type="curve" smooth="yes"/>
	  <point x="523" y="416"/>
	  <point x="645" y="367"/>
	  <point x="645" y="256" type="curve" smooth="yes"/>
	  <point x="645" y="162"/>
	  <point x="574" y="84"/>
	  <point x="433" y="84" type="curve" smooth="yes"/>
	  <point x="305" y="84"/>
	  <point x="217" y="137"/>
	  <point x="132" y="206" type="curve"/>
	</contour>
	<contour>
	  <point x="395" y="-100" type="curve"/>
	  <point x="362" y="-171" type="line"/>
	  <point x="421" y="-184"/>
	  <point x="472" y="-208"/>
	  <point x="472" y="-265" type="curve" smooth="yes"/>
	  <point x="472" y="-319"/>
	  <point x="396" y="-348"/>
	  <point x="287" y="-363" type="curve"/>
	  <point x="302" y="-436" type="line"/>
	  <point x="448" y="-423"/>
	  <point x="582" y="-369"/>
	  <point x="582" y="-255" type="curve" smooth="yes"/>
	  <point x="582" y="-166"/>
	  <point x="523" y="-122"/>
	</contour>
  </outline>
</glyph>
<glyph name="uni021A" format="1">
  <advance width="1076"/>
  <unicode hex="021A"/>
  <outline>
	<contour>
	  <point x="469" y="0" type="line"/>
	  <point x="608" y="0" type="line"/>
	  <point x="608" y="1228" type="line"/>
	  <point x="1024" y="1228" type="line"/>
	  <point x="1024" y="1346" type="line"/>
	  <point x="52" y="1346" type="line"/>
	  <point x="52" y="1228" type="line"/>
	  <point x="469" y="1228" type="line"/>
	</contour>
	<contour>
	  <point x="483" y="-100" type="curve"/>
	  <point x="451" y="-171" type="line"/>
	  <point x="510" y="-184"/>
	  <point x="560" y="-208"/>
	  <point x="560" y="-265" type="curve" smooth="yes"/>
	  <point x="560" y="-319"/>
	  <point x="484" y="-348"/>
	  <point x="374" y="-363" type="curve"/>
	  <point x="391" y="-436" type="line"/>
	  <point x="535" y="-423"/>
	  <point x="670" y="-369"/>
	  <point x="670" y="-255" type="curve" smooth="yes"/>
	  <point x="670" y="-166"/>
	  <point x="611" y="-122"/>
	</contour>
  </outline>
</glyph>
<glyph name="uni021B" format="1">
  <advance width="670"/>
  <unicode hex="021B"/>
  <outline>
	<contour>
	  <point x="203" y="293" type="line"/>
	  <point x="203" y="105"/>
	  <point x="267" y="-25"/>
	  <point x="471" y="-25" type="curve" smooth="yes"/>
	  <point x="525" y="-25"/>
	  <point x="589" y="-7"/>
	  <point x="645" y="12" type="curve"/>
	  <point x="616" y="117" type="line"/>
	  <point x="582" y="104"/>
	  <point x="535" y="89"/>
	  <point x="499" y="89" type="curve" smooth="yes"/>
	  <point x="376" y="89"/>
	  <point x="341" y="164"/>
	  <point x="341" y="288" type="curve" smooth="yes"/>
	  <point x="341" y="877" type="line"/>
	  <point x="616" y="877" type="line"/>
	  <point x="616" y="990" type="line"/>
	  <point x="341" y="990" type="line"/>
	  <point x="341" y="1272" type="line"/>
	  <point x="225" y="1272" type="line"/>
	  <point x="208" y="990" type="line"/>
	  <point x="52" y="981" type="line"/>
	  <point x="52" y="877" type="line"/>
	  <point x="203" y="877" type="line"/>
	</contour>
	<contour>
	  <point x="369" y="-100" type="curve"/>
	  <point x="337" y="-171" type="line"/>
	  <point x="396" y="-184"/>
	  <point x="445" y="-208"/>
	  <point x="445" y="-265" type="curve" smooth="yes"/>
	  <point x="445" y="-319"/>
	  <point x="371" y="-348"/>
	  <point x="260" y="-363" type="curve"/>
	  <point x="277" y="-436" type="line"/>
	  <point x="421" y="-423"/>
	  <point x="556" y="-369"/>
	  <point x="556" y="-255" type="curve" smooth="yes"/>
	  <point x="556" y="-166"/>
	  <point x="497" y="-122"/>
	</contour>
  </outline>
</glyph>
<glyph name="uni02BE" format="1">
  <advance width="300"/>
  <unicode hex="02BE"/>
  <outline>
	<contour>
	  <point x="64" y="1108" type="line"/>
	  <point x="203" y="1104"/>
	  <point x="282" y="1176"/>
	  <point x="282" y="1292" type="curve" smooth="yes"/>
	  <point x="282" y="1407"/>
	  <point x="203" y="1480"/>
	  <point x="64" y="1476" type="curve"/>
	  <point x="64" y="1412" type="line"/>
	  <point x="159" y="1412"/>
	  <point x="199" y="1363"/>
	  <point x="199" y="1292" type="curve" smooth="yes"/>
	  <point x="199" y="1221"/>
	  <point x="159" y="1171"/>
	  <point x="64" y="1171" type="curve"/>
	</contour>
  </outline>
</glyph>
<glyph name="circumflex" format="1">
  <advance width="1104"/>
  <unicode hex="02C6"/>
  <outline>
	<contour>
	  <point x="302" y="1173" type="line"/>
	  <point x="404" y="1173" type="line"/>
	  <point x="548" y="1366" type="line"/>
	  <point x="556" y="1366" type="line"/>
	  <point x="700" y="1173" type="line"/>
	  <point x="803" y="1173" type="line"/>
	  <point x="610" y="1457" type="line"/>
	  <point x="494" y="1457" type="line"/>
	</contour>
	<contour>
	  <point x="552" y="1464" type="move" name="mark0"/>
	</contour>
  </outline>
</glyph>
<glyph name="caron" format="1">
  <advance width="1104"/>
  <unicode hex="02C7"/>
  <outline>
	<contour>
	  <point x="494" y="1173" type="line"/>
	  <point x="610" y="1173" type="line"/>
	  <point x="803" y="1457" type="line"/>
	  <point x="700" y="1457" type="line"/>
	  <point x="556" y="1263" type="line"/>
	  <point x="548" y="1263" type="line"/>
	  <point x="404" y="1457" type="line"/>
	  <point x="302" y="1457" type="line"/>
	</contour>
  </outline>
</glyph>
<glyph name="uni02C8" format="1">
  <advance width="217"/>
  <unicode hex="02C8"/>
  <outline>
	<contour>
	  <point x="61" y="1088" type="line"/>
	  <point x="157" y="1088" type="line"/>
	  <point x="169" y="1454" type="line"/>
	  <point x="48" y="1454" type="line"/>
	</contour>
  </outline>
</glyph>
<glyph name="uni02CA" format="1">
  <advance width="455"/>
  <unicode hex="02CA"/>
  <outline>
	<contour>
	  <point x="433" y="1457" type="line"/>
	  <point x="285" y="1457" type="line"/>
	  <point x="99" y="1173" type="line"/>
	  <point x="206" y="1173" type="line"/>
	</contour>
  </outline>
</glyph>
<glyph name="uni02CB" format="1">
  <advance width="455"/>
  <unicode hex="02CB"/>
  <outline>
	<contour>
	  <point x="241" y="1173" type="line"/>
	  <point x="349" y="1173" type="line"/>
	  <point x="163" y="1457" type="line"/>
	  <point x="16" y="1457" type="line"/>
	</contour>
  </outline>
</glyph>
